  0
SECTION
  2
HEADER
  9
$ACADVER
  1
AC1024
  9
$ACADMAINTVER
 70
     6
  9
$DWGCODEPAGE
  3
ANSI_1252
  9
$INSBASE
 10
0.0
 20
0.0
 30
0.0
  9
$EXTMIN
 10
1.000000000000000E+20
 20
1.000000000000000E+20
 30
1.000000000000000E+20
  9
$EXTMAX
 10
-1.000000000000000E+20
 20
-1.000000000000000E+20
 30
-1.000000000000000E+20
  9
$LIMMIN
 10
0.0
 20
0.0
  9
$LIMMAX
 10
12.0
 20
9.0
  9
$ORTHOMODE
 70
     0
  9
$REGENMODE
 70
     1
  9
$FILLMODE
 70
     1
  9
$QTEXTMODE
 70
     0
  9
$MIRRTEXT
 70
     1
  9
$LTSCALE
 40
1.0
  9
$ATTMODE
 70
     1
  9
$TEXTSIZE
 40
0.2
  9
$TRACEWID
 40
0.05
  9
$TEXTSTYLE
  7
Standard
  9
$CLAYER
  8
0
  9
$CELTYPE
  6
ByLayer
  9
$CECOLOR
 62
   256
  9
$CELTSCALE
 40
1.0
  9
$DISPSILH
 70
     0
  9
$DIMSCALE
 40
1.0
  9
$DIMASZ
 40
0.18
  9
$DIMEXO
 40
0.0625
  9
$DIMDLI
 40
0.38
  9
$DIMRND
 40
0.0
  9
$DIMDLE
 40
0.0
  9
$DIMEXE
 40
0.18
  9
$DIMTP
 40
0.0
  9
$DIMTM
 40
0.0
  9
$DIMTXT
 40
0.18
  9
$DIMCEN
 40
0.09
  9
$DIMTSZ
 40
0.0
  9
$DIMTOL
 70
     0
  9
$DIMLIM
 70
     0
  9
$DIMTIH
 70
     1
  9
$DIMTOH
 70
     1
  9
$DIMSE1
 70
     0
  9
$DIMSE2
 70
     0
  9
$DIMTAD
 70
     0
  9
$DIMZIN
 70
     0
  9
$DIMBLK
  1

  9
$DIMASO
 70
     1
  9
$DIMSHO
 70
     1
  9
$DIMPOST
  1

  9
$DIMAPOST
  1

  9
$DIMALT
 70
     0
  9
$DIMALTD
 70
     2
  9
$DIMALTF
 40
25.4
  9
$DIMLFAC
 40
1.0
  9
$DIMTOFL
 70
     0
  9
$DIMTVP
 40
0.0
  9
$DIMTIX
 70
     0
  9
$DIMSOXD
 70
     0
  9
$DIMSAH
 70
     0
  9
$DIMBLK1
  1

  9
$DIMBLK2
  1

  9
$DIMSTYLE
  2
Standard
  9
$DIMCLRD
 70
     0
  9
$DIMCLRE
 70
     0
  9
$DIMCLRT
 70
     0
  9
$DIMTFAC
 40
1.0
  9
$DIMGAP
 40
0.09
  9
$DIMJUST
 70
     0
  9
$DIMSD1
 70
     0
  9
$DIMSD2
 70
     0
  9
$DIMTOLJ
 70
     1
  9
$DIMTZIN
 70
     0
  9
$DIMALTZ
 70
     0
  9
$DIMALTTZ
 70
     0
  9
$DIMUPT
 70
     0
  9
$DIMDEC
 70
     4
  9
$DIMTDEC
 70
     4
  9
$DIMALTU
 70
     2
  9
$DIMALTTD
 70
     2
  9
$DIMTXSTY
  7
Standard
  9
$DIMAUNIT
 70
     0
  9
$DIMADEC
 70
     0
  9
$DIMALTRND
 40
0.0
  9
$DIMAZIN
 70
     0
  9
$DIMDSEP
 70
    46
  9
$DIMATFIT
 70
     3
  9
$DIMFRAC
 70
     0
  9
$DIMLDRBLK
  1

  9
$DIMLUNIT
 70
     2
  9
$DIMLWD
 70
    -2
  9
$DIMLWE
 70
    -2
  9
$DIMTMOVE
 70
     0
  9
$DIMFXL
 40
1.0
  9
$DIMFXLON
 70
     0
  9
$DIMJOGANG
 40
0.7853981633974483
  9
$DIMTFILL
 70
     0
  9
$DIMTFILLCLR
 70
     0
  9
$DIMARCSYM
 70
     0
  9
$DIMLTYPE
  6

  9
$DIMLTEX1
  6

  9
$DIMLTEX2
  6

  9
$DIMTXTDIRECTION
 70
     0
  9
$LUNITS
 70
     2
  9
$LUPREC
 70
     4
  9
$SKETCHINC
 40
0.1
  9
$FILLETRAD
 40
0.5
  9
$AUNITS
 70
     0
  9
$AUPREC
 70
     0
  9
$MENU
  1
.
  9
$ELEVATION
 40
0.0
  9
$PELEVATION
 40
0.0
  9
$THICKNESS
 40
0.0
  9
$LIMCHECK
 70
     0
  9
$CHAMFERA
 40
0.5
  9
$CHAMFERB
 40
0.5
  9
$CHAMFERC
 40
1.0
  9
$CHAMFERD
 40
0.0
  9
$SKPOLY
 70
     0
  9
$TDCREATE
 40
2458457.417641933
  9
$TDUCREATE
 40
2458456.9593086
  9
$TDUPDATE
 40
2458457.417641979
  9
$TDUUPDATE
 40
2458456.959308646
  9
$TDINDWG
 40
0.0000000116
  9
$TDUSRTIMER
 40
0.0000000116
  9
$USRTIMER
 70
     1
  9
$ANGBASE
 50
0.0
  9
$ANGDIR
 70
     0
  9
$PDMODE
 70
     0
  9
$PDSIZE
 40
0.0
  9
$PLINEWID
 40
0.0
  9
$SPLFRAME
 70
     0
  9
$SPLINETYPE
 70
     6
  9
$SPLINESEGS
 70
     8
  9
$HANDSEED
  5
47
  9
$SURFTAB1
 70
     6
  9
$SURFTAB2
 70
     6
  9
$SURFTYPE
 70
     6
  9
$SURFU
 70
     6
  9
$SURFV
 70
     6
  9
$UCSBASE
  2

  9
$UCSNAME
  2

  9
$UCSORG
 10
0.0
 20
0.0
 30
0.0
  9
$UCSXDIR
 10
1.0
 20
0.0
 30
0.0
  9
$UCSYDIR
 10
0.0
 20
1.0
 30
0.0
  9
$UCSORTHOREF
  2

  9
$UCSORTHOVIEW
 70
     0
  9
$UCSORGTOP
 10
0.0
 20
0.0
 30
0.0
  9
$UCSORGBOTTOM
 10
0.0
 20
0.0
 30
0.0
  9
$UCSORGLEFT
 10
0.0
 20
0.0
 30
0.0
  9
$UCSORGRIGHT
 10
0.0
 20
0.0
 30
0.0
  9
$UCSORGFRONT
 10
0.0
 20
0.0
 30
0.0
  9
$UCSORGBACK
 10
0.0
 20
0.0
 30
0.0
  9
$PUCSBASE
  2

  9
$PUCSNAME
  2

  9
$PUCSORG
 10
0.0
 20
0.0
 30
0.0
  9
$PUCSXDIR
 10
1.0
 20
0.0
 30
0.0
  9
$PUCSYDIR
 10
0.0
 20
1.0
 30
0.0
  9
$PUCSORTHOREF
  2

  9
$PUCSORTHOVIEW
 70
     0
  9
$PUCSORGTOP
 10
0.0
 20
0.0
 30
0.0
  9
$PUCSORGBOTTOM
 10
0.0
 20
0.0
 30
0.0
  9
$PUCSORGLEFT
 10
0.0
 20
0.0
 30
0.0
  9
$PUCSORGRIGHT
 10
0.0
 20
0.0
 30
0.0
  9
$PUCSORGFRONT
 10
0.0
 20
0.0
 30
0.0
  9
$PUCSORGBACK
 10
0.0
 20
0.0
 30
0.0
  9
$USERI1
 70
     0
  9
$USERI2
 70
     0
  9
$USERI3
 70
     0
  9
$USERI4
 70
     0
  9
$USERI5
 70
     0
  9
$USERR1
 40
0.0
  9
$USERR2
 40
0.0
  9
$USERR3
 40
0.0
  9
$USERR4
 40
0.0
  9
$USERR5
 40
0.0
  9
$WORLDVIEW
 70
     1
  9
$SHADEDGE
 70
     3
  9
$SHADEDIF
 70
    70
  9
$TILEMODE
 70
     1
  9
$MAXACTVP
 70
    64
  9
$PINSBASE
 10
0.0
 20
0.0
 30
0.0
  9
$PLIMCHECK
 70
     0
  9
$PEXTMIN
 10
1.000000000000000E+20
 20
1.000000000000000E+20
 30
1.000000000000000E+20
  9
$PEXTMAX
 10
-1.000000000000000E+20
 20
-1.000000000000000E+20
 30
-1.000000000000000E+20
  9
$PLIMMIN
 10
0.0
 20
0.0
  9
$PLIMMAX
 10
12.0
 20
9.0
  9
$UNITMODE
 70
     0
  9
$VISRETAIN
 70
     1
  9
$PLINEGEN
 70
     0
  9
$PSLTSCALE
 70
     1
  9
$TREEDEPTH
 70
  3020
  9
$CMLSTYLE
  2
Standard
  9
$CMLJUST
 70
     0
  9
$CMLSCALE
 40
1.0
  9
$PROXYGRAPHICS
 70
     1
  9
$MEASUREMENT
 70
     0
  9
$CELWEIGHT
370
    -1
  9
$ENDCAPS
280
     0
  9
$JOINSTYLE
280
     0
  9
$LWDISPLAY
290
     1
  9
$INSUNITS
 70
     1
  9
$HYPERLINKBASE
  1

  9
$STYLESHEET
  1

  9
$XEDIT
290
     1
  9
$CEPSNTYPE
380
     0
  9
$PSTYLEMODE
290
     1
  9
$FINGERPRINTGUID
  2
{DC15E97B-34EC-4807-9CC3-50D6FE09FFF5}
  9
$VERSIONGUID
  2
{FAEB1C32-E019-11D5-929B-00C0DF256EC4}
  9
$EXTNAMES
290
     1
  9
$PSVPSCALE
 40
0.0
  9
$OLESTARTUP
290
     0
  9
$SORTENTS
280
   127
  9
$INDEXCTL
280
     0
  9
$HIDETEXT
280
     1
  9
$XCLIPFRAME
280
     2
  9
$HALOGAP
280
     0
  9
$OBSCOLOR
 70
   257
  9
$OBSLTYPE
280
     0
  9
$INTERSECTIONDISPLAY
280
     0
  9
$INTERSECTIONCOLOR
 70
   257
  9
$DIMASSOC
280
     2
  9
$PROJECTNAME
  1

  9
$CAMERADISPLAY
290
     0
  9
$LENSLENGTH
 40
50.0
  9
$CAMERAHEIGHT
 40
0.0
  9
$STEPSPERSEC
 40
2.0
  9
$STEPSIZE
 40
6.0
  9
$3DDWFPREC
 40
2.0
  9
$PSOLWIDTH
 40
0.25
  9
$PSOLHEIGHT
 40
4.0
  9
$LOFTANG1
 40
1.570796326794897
  9
$LOFTANG2
 40
1.570796326794897
  9
$LOFTMAG1
 40
0.0
  9
$LOFTMAG2
 40
0.0
  9
$LOFTPARAM
 70
     7
  9
$LOFTNORMALS
280
     1
  9
$LATITUDE
 40
37.795
  9
$LONGITUDE
 40
-122.394
  9
$NORTHDIRECTION
 40
0.0
  9
$TIMEZONE
 70
 -8000
  9
$LIGHTGLYPHDISPLAY
280
     1
  9
$TILEMODELIGHTSYNCH
280
     1
  9
$CMATERIAL
347
3C
  9
$SOLIDHIST
280
     1
  9
$SHOWHIST
280
     1
  9
$DWFFRAME
280
     2
  9
$DGNFRAME
280
     2
  9
$REALWORLDSCALE
290
     1
  9
$INTERFERECOLOR
 62
   256
  9
$CSHADOW
280
     0
  9
$SHADOWPLANELOCATION
 40
0.0
  0
ENDSEC
  0
SECTION
  2
CLASSES
  0
CLASS
  1
ACDBDICTIONARYWDFLT
  2
AcDbDictionaryWithDefault
  3
ObjectDBX Classes
 90
        0
 91
        4
280
     0
281
     0
  0
CLASS
  1
VISUALSTYLE
  2
AcDbVisualStyle
  3
ObjectDBX Classes
 90
     4095
 91
        4
280
     0
281
     0
  0
CLASS
  1
MATERIAL
  2
AcDbMaterial
  3
ObjectDBX Classes
 90
     1153
 91
        4
280
     0
281
     0
  0
CLASS
  1
SUN
  2
AcDbSun
  3
SCENEOE
 90
     1024
 91
        4
280
     0
281
     0
  0
ENDSEC
  0
SECTION
  2
TABLES
  0
TABLE
  2
VPORT
  5
8
330
0
100
AcDbSymbolTable
 70
     1
  0
VPORT
  5
29
330
8
100
AcDbSymbolTableRecord
100
AcDbViewportTableRecord
  2
*Active
 70
     0
 10
0.0
 20
0.0
 11
1.0
 21
1.0
 12
0.0
 22
0.0
 13
0.0
 23
0.0
 14
0.5
 24
0.5
 15
0.5
 25
0.5
 16
0.0
 26
0.0
 36
1.0
 17
6.0
 27
-6.0
 37
0.0
 40
12.0
 41
1.0
 42
50.0
 43
0.0
 44
0.0
 50
0.0
 51
0.0
 71
     0
 72
   100
 73
     1
 74
     3
 75
     0
 76
     0
 77
     0
 78
     0
281
     0
 65
     1
110
0.0
120
0.0
130
0.0
111
1.0
121
0.0
131
0.0
112
0.0
122
1.0
132
0.0
 79
     0
146
0.0
 60
     3
 61
     5
292
     1
282
     1
141
0.0
142
0.0
 63
   250
361
3F
  0
ENDTAB
  0
TABLE
  2
LTYPE
  5
5
330
0
100
AcDbSymbolTable
 70
     1
  0
LTYPE
  5
14
330
5
100
AcDbSymbolTableRecord
100
AcDbLinetypeTableRecord
  2
ByBlock
 70
     0
  3

 72
    65
 73
     0
 40
0.0
  0
LTYPE
  5
15
330
5
100
AcDbSymbolTableRecord
100
AcDbLinetypeTableRecord
  2
ByLayer
 70
     0
  3

 72
    65
 73
     0
 40
0.0
  0
LTYPE
  5
16
330
5
100
AcDbSymbolTableRecord
100
AcDbLinetypeTableRecord
  2
Continuous
 70
     0
  3
Solid line
 72
    65
 73
     0
 40
0.0
  0
ENDTAB
  0
TABLE
  2
LAYER
  5
2
330
0
100
AcDbSymbolTable
 70
     2
  0
LAYER
  5
10
330
2
100
AcDbSymbolTableRecord
100
AcDbLayerTableRecord
  2
0
 70
     0
 62
     7
  6
Continuous
370
    -3
390
F
347
3E
  0
LAYER
  5
40
330
2
100
AcDbSymbolTableRecord
100
AcDbLayerTableRecord
  2
Layer 1
 70
     0
 62
     7
  6
Continuous
370
    -3
390
F
347
3E
  0
ENDTAB
  0
TABLE
  2
STYLE
  5
3
330
0
100
AcDbSymbolTable
 70
     1
  0
STYLE
  5
11
330
3
100
AcDbSymbolTableRecord
100
AcDbTextStyleTableRecord
  2
Standard
 70
     0
 40
0.0
 41
1.0
 50
0.0
 71
     0
 42
0.2
  3
txt
  4

  0
ENDTAB
  0
TABLE
  2
VIEW
  5
6
330
0
100
AcDbSymbolTable
 70
     0
  0
ENDTAB
  0
TABLE
  2
UCS
  5
7
330
0
100
AcDbSymbolTable
 70
     0
  0
ENDTAB
  0
TABLE
  2
APPID
  5
9
330
0
100
AcDbSymbolTable
 70
     1
  0
APPID
  5
12
330
9
100
AcDbSymbolTableRecord
100
AcDbRegAppTableRecord
  2
ACAD
 70
     0
  0
ENDTAB
  0
TABLE
  2
DIMSTYLE
  5
A
330
0
100
AcDbSymbolTable
 70
     1
100
AcDbDimStyleTable
  0
DIMSTYLE
105
27
330
A
100
AcDbSymbolTableRecord
100
AcDbDimStyleTableRecord
  2
Standard
 70
     0
178
     0
340
11
  0
ENDTAB
  0
TABLE
  2
BLOCK_RECORD
  5
1
330
0
100
AcDbSymbolTable
 70
     1
  0
BLOCK_RECORD
  5
1F
330
1
100
AcDbSymbolTableRecord
100
AcDbBlockTableRecord
  2
*Model_Space
340
22
 70
     0
280
     1
281
     0
  0
BLOCK_RECORD
  5
1B
330
1
100
AcDbSymbolTableRecord
100
AcDbBlockTableRecord
  2
*Paper_Space
340
1E
 70
     0
280
     1
281
     0
  0
BLOCK_RECORD
  5
23
330
1
100
AcDbSymbolTableRecord
100
AcDbBlockTableRecord
  2
*Paper_Space0
340
26
 70
     0
280
     1
281
     0
  0
ENDTAB
  0
ENDSEC
  0
SECTION
  2
BLOCKS
  0
BLOCK
  5
20
330
1F
100
AcDbEntity
  8
0
100
AcDbBlockBegin
  2
*Model_Space
 70
     0
 10
0.0
 20
0.0
 30
0.0
  3
*Model_Space
  1

  0
ENDBLK
  5
21
330
1F
100
AcDbEntity
  8
0
100
AcDbBlockEnd
  0
BLOCK
  5
1C
330
1B
100
AcDbEntity
 67
     1
  8
0
100
AcDbBlockBegin
  2
*Paper_Space
 70
     0
 10
0.0
 20
0.0
 30
0.0
  3
*Paper_Space
  1

  0
ENDBLK
  5
1D
330
1B
100
AcDbEntity
 67
     1
  8
0
100
AcDbBlockEnd
  0
BLOCK
  5
24
330
23
100
AcDbEntity
  8
0
100
AcDbBlockBegin
  2
*Paper_Space0
 70
     0
 10
0.0
 20
0.0
 30
0.0
  3
*Paper_Space0
  1

  0
ENDBLK
  5
25
330
23
100
AcDbEntity
  8
0
100
AcDbBlockEnd
  0
ENDSEC
  0
SECTION
  2
ENTITIES
  0
SPLINE
  5
41
330
1F
100
AcDbEntity
  8
Layer 1
370
     0
100
AcDbSpline
210
0.0
220
0.0
230
1.0
 70
    11
 71
     3
 72
   251
 73
   247
 74
     0
 42
0.0000000001
 43
0.0000000001
 12
1.0
 22
0.0
 32
0.0
 13
1.0
 23
0.0
 33
0.0
 40
0.0
 40
0.0
 40
0.0
 40
0.0
 40
1.0
 40
1.0
 40
1.0
 40
2.0
 40
2.0
 40
2.0
 40
3.0
 40
3.0
 40
3.0
 40
4.0
 40
4.0
 40
4.0
 40
5.0
 40
5.0
 40
5.0
 40
6.0
 40
6.0
 40
6.0
 40
7.0
 40
7.0
 40
7.0
 40
8.0
 40
8.0
 40
8.0
 40
9.0
 40
9.0
 40
9.0
 40
10.0
 40
10.0
 40
10.0
 40
11.0
 40
11.0
 40
11.0
 40
12.0
 40
12.0
 40
12.0
 40
13.0
 40
13.0
 40
13.0
 40
14.0
 40
14.0
 40
14.0
 40
15.0
 40
15.0
 40
15.0
 40
16.0
 40
16.0
 40
16.0
 40
17.0
 40
17.0
 40
17.0
 40
18.0
 40
18.0
 40
18.0
 40
19.0
 40
19.0
 40
19.0
 40
20.0
 40
20.0
 40
20.0
 40
21.0
 40
21.0
 40
21.0
 40
22.0
 40
22.0
 40
22.0
 40
23.0
 40
23.0
 40
23.0
 40
24.0
 40
24.0
 40
24.0
 40
25.0
 40
25.0
 40
25.0
 40
26.0
 40
26.0
 40
26.0
 40
27.0
 40
27.0
 40
27.0
 40
28.0
 40
28.0
 40
28.0
 40
29.0
 40
29.0
 40
29.0
 40
30.0
 40
30.0
 40
30.0
 40
31.0
 40
31.0
 40
31.0
 40
32.0
 40
32.0
 40
32.0
 40
33.0
 40
33.0
 40
33.0
 40
34.0
 40
34.0
 40
34.0
 40
35.0
 40
35.0
 40
35.0
 40
36.0
 40
36.0
 40
36.0
 40
37.0
 40
37.0
 40
37.0
 40
38.0
 40
38.0
 40
38.0
 40
39.0
 40
39.0
 40
39.0
 40
40.0
 40
40.0
 40
40.0
 40
41.0
 40
41.0
 40
41.0
 40
42.0
 40
42.0
 40
42.0
 40
43.0
 40
43.0
 40
43.0
 40
44.0
 40
44.0
 40
44.0
 40
45.0
 40
45.0
 40
45.0
 40
46.0
 40
46.0
 40
46.0
 40
47.0
 40
47.0
 40
47.0
 40
48.0
 40
48.0
 40
48.0
 40
49.0
 40
49.0
 40
49.0
 40
50.0
 40
50.0
 40
50.0
 40
51.0
 40
51.0
 40
51.0
 40
52.0
 40
52.0
 40
52.0
 40
53.0
 40
53.0
 40
53.0
 40
54.0
 40
54.0
 40
54.0
 40
55.0
 40
55.0
 40
55.0
 40
56.0
 40
56.0
 40
56.0
 40
57.0
 40
57.0
 40
57.0
 40
58.0
 40
58.0
 40
58.0
 40
59.0
 40
59.0
 40
59.0
 40
60.0
 40
60.0
 40
60.0
 40
61.0
 40
61.0
 40
61.0
 40
62.0
 40
62.0
 40
62.0
 40
63.0
 40
63.0
 40
63.0
 40
64.0
 40
64.0
 40
64.0
 40
65.0
 40
65.0
 40
65.0
 40
66.0
 40
66.0
 40
66.0
 40
67.0
 40
67.0
 40
67.0
 40
68.0
 40
68.0
 40
68.0
 40
69.0
 40
69.0
 40
69.0
 40
70.0
 40
70.0
 40
70.0
 40
71.0
 40
71.0
 40
71.0
 40
72.0
 40
72.0
 40
72.0
 40
73.0
 40
73.0
 40
73.0
 40
74.0
 40
74.0
 40
74.0
 40
75.0
 40
75.0
 40
75.0
 40
76.0
 40
76.0
 40
76.0
 40
77.0
 40
77.0
 40
77.0
 40
78.0
 40
78.0
 40
78.0
 40
79.0
 40
79.0
 40
79.0
 40
80.0
 40
80.0
 40
80.0
 40
81.0
 40
81.0
 40
81.0
 40
82.0
 40
82.0
 40
82.0
 40
82.0
 10
11.14671206779182
 20
-7.247065659948677
 30
0.0
 10
11.14714332530775
 20
-7.242565100744336
 30
0.0
 10
11.14808324553481
 20
-7.238208294045206
 30
0.0
 10
11.14808324553481
 20
-7.233597155990436
 30
0.0
 10
11.14808324553481
 20
-7.228986017935792
 30
0.0
 10
11.14714332530775
 20
-7.224629211236661
 30
0.0
 10
11.14671206779182
 20
-7.220128652032194
 30
0.0
 10
11.14671206779182
 20
-7.220128652032194
 30
0.0
 10
11.70728049115984
 20
-6.659562993135396
 30
0.0
 10
11.70728049115984
 20
-6.659562993135396
 30
0.0
 10
11.76423965691452
 20
-6.602598298438301
 30
0.0
 10
11.76423965691452
 20
-6.509377563221025
 30
0.0
 10
11.70728049115984
 20
-6.452412868523955
 30
0.0
 10
11.70728049115984
 20
-6.452412868523955
 30
0.0
 10
11.70728049115984
 20
-6.452412868523955
 30
0.0
 10
11.70728049115984
 20
-6.452412868523955
 30
0.0
 10
11.65031026752005
 20
-6.395448173826733
 30
0.0
 10
11.5570922967743
 20
-6.395448173826733
 30
0.0
 10
11.50013313101956
 20
-6.452412868523955
 30
0.0
 10
11.50013313101956
 20
-6.452412868523955
 30
0.0
 10
10.86252442269465
 20
-7.090021576848711
 30
0.0
 10
10.86252442269465
 20
-7.090021576848711
 30
0.0
 10
10.86252442269465
 20
-7.090021576848711
 30
0.0
 10
10.85127855362604
 20
-7.090021576848711
 30
0.0
 10
10.85127855362604
 20
-7.090021576848711
 30
0.0
 10
10.85127855362604
 20
-7.090021576848711
 30
0.0
 10
10.68730117661653
 20
-7.090021576848711
 30
0.0
 10
10.68730117661653
 20
-7.090021576848711
 30
0.0
 10
10.68730117661653
 20
-7.090021576848711
 30
0.0
 10
11.11776252480104
 20
-6.659562993135396
 30
0.0
 10
11.11776252480104
 20
-6.659562993135396
 30
0.0
 10
11.17473274844077
 20
-6.602598298438301
 30
0.0
 10
11.17473274844077
 20
-6.509377563221025
 30
0.0
 10
11.11776252480104
 20
-6.452412868523955
 30
0.0
 10
11.06079230116145
 20
-6.395448173826733
 30
0.0
 10
10.96758538830052
 20
-6.395448173826733
 30
0.0
 10
10.91061516466076
 20
-6.452412868523955
 30
0.0
 10
10.91061516466076
 20
-6.452412868523955
 30
0.0
 10
10.27300645633603
 20
-7.090021576848711
 30
0.0
 10
10.27300645633603
 20
-7.090021576848711
 30
0.0
 10
10.27300645633603
 20
-7.090021576848711
 30
0.0
 10
10.07773526471058
 20
-7.090021576848711
 30
0.0
 10
10.07773526471058
 20
-7.090021576848711
 30
0.0
 10
10.07773526471058
 20
-7.090021576848711
 30
0.0
 10
10.50819661289521
 20
-6.659562993135396
 30
0.0
 10
10.50819661289521
 20
-6.659562993135396
 30
0.0
 10
10.56515577864977
 20
-6.602598298438301
 30
0.0
 10
10.56515577864977
 20
-6.509377563221025
 30
0.0
 10
10.50819661289521
 20
-6.452412868523955
 30
0.0
 10
10.45122638925548
 20
-6.395448173826733
 30
0.0
 10
10.35800841850952
 20
-6.395448173826733
 30
0.0
 10
10.30103819486981
 20
-6.452412868523955
 30
0.0
 10
10.30103819486981
 20
-6.452412868523955
 30
0.0
 10
9.663429486545056
 20
-7.090021576848711
 30
0.0
 10
9.663429486545056
 20
-7.090021576848711
 30
0.0
 10
9.663429486545056
 20
-7.090021576848711
 30
0.0
 10
6.587568188481504
 20
-7.090021576848711
 30
0.0
 10
6.587568188481504
 20
-7.090021576848711
 30
0.0
 10
6.608069507314591
 20
-7.000073975598449
 30
0.0
 10
6.602120365172166
 20
-6.909921803475249
 30
0.0
 10
6.55377529185057
 20
-6.82525157785234
 30
0.0
 10
6.508824989231116
 20
-6.742687879326391
 30
0.0
 10
6.383970409433636
 20
-6.668821207371163
 30
0.0
 10
6.257147526102168
 20
-6.671956117775203
 30
0.0
 10
6.16399590266648
 20
-6.669246935944582
 30
0.0
 10
6.067991344894684
 20
-6.706838216081046
 30
0.0
 10
6.000007467771789
 20
-6.811854950146678
 30
0.0
 10
5.932012532763868
 20
-6.706838216081046
 30
0.0
 10
5.836007974992248
 20
-6.669246935944582
 30
0.0
 10
5.742856351556585
 20
-6.671956117775203
 30
0.0
 10
5.616033468224966
 20
-6.668821207371163
 30
0.0
 10
5.491178888427586
 20
-6.742687879326391
 30
0.0
 10
5.446228585808158
 20
-6.82525157785234
 30
0.0
 10
5.397883512486563
 20
-6.909921803475249
 30
0.0
 10
5.391934370344011
 20
-7.000073975598449
 30
0.0
 10
5.412435689177073
 20
-7.090021576848711
 30
0.0
 10
5.412435689177073
 20
-7.090021576848711
 30
0.0
 10
2.336574391113698
 20
-7.090021576848711
 30
0.0
 10
2.336574391113698
 20
-7.090021576848711
 30
0.0
 10
2.336574391113698
 20
-7.090021576848711
 30
0.0
 10
1.698965682788791
 20
-6.452412868523955
 30
0.0
 10
1.698965682788791
 20
-6.452412868523955
 30
0.0
 10
1.641995459149206
 20
-6.395448173826733
 30
0.0
 10
1.548777488403276
 20
-6.395448173826733
 30
0.0
 10
1.491818322648568
 20
-6.452412868523955
 30
0.0
 10
1.434848099008781
 20
-6.509377563221025
 30
0.0
 10
1.434848099008781
 20
-6.602598298438301
 30
0.0
 10
1.491818322648568
 20
-6.659562993135396
 30
0.0
 10
1.491818322648568
 20
-6.659562993135396
 30
0.0
 10
1.922268612948023
 20
-7.090021576848711
 30
0.0
 10
1.922268612948023
 20
-7.090021576848711
 30
0.0
 10
1.922268612948023
 20
-7.090021576848711
 30
0.0
 10
1.726997421322721
 20
-7.090021576848711
 30
0.0
 10
1.726997421322721
 20
-7.090021576848711
 30
0.0
 10
1.726997421322721
 20
-7.090021576848711
 30
0.0
 10
1.08938871299799
 20
-6.452412868523955
 30
0.0
 10
1.08938871299799
 20
-6.452412868523955
 30
0.0
 10
1.032429547243257
 20
-6.395448173826733
 30
0.0
 10
0.939211576497352
 20
-6.395448173826733
 30
0.0
 10
0.8822413528575908
 20
-6.452412868523955
 30
0.0
 10
0.8252711292178294
 20
-6.509377563221025
 30
0.0
 10
0.8252711292178294
 20
-6.602598298438301
 30
0.0
 10
0.8822413528575908
 20
-6.659562993135396
 30
0.0
 10
0.8822413528575908
 20
-6.659562993135396
 30
0.0
 10
1.312702701042225
 20
-7.090021576848711
 30
0.0
 10
1.312702701042225
 20
-7.090021576848711
 30
0.0
 10
1.312702701042225
 20
-7.090021576848711
 30
0.0
 10
1.148725324032562
 20
-7.090021576848711
 30
0.0
 10
1.148725324032562
 20
-7.090021576848711
 30
0.0
 10
1.148725324032562
 20
-7.090021576848711
 30
0.0
 10
1.137479454963947
 20
-7.090021576848711
 30
0.0
 10
1.137479454963947
 20
-7.090021576848711
 30
0.0
 10
1.137479454963947
 20
-7.090021576848711
 30
0.0
 10
0.4998707466391907
 20
-6.452412868523955
 30
0.0
 10
0.4998707466391907
 20
-6.452412868523955
 30
0.0
 10
0.4429060519419434
 20
-6.395448173826733
 30
0.0
 10
0.349693610138527
 20
-6.395448173826733
 30
0.0
 10
0.2927233864987657
 20
-6.452412868523955
 30
0.0
 10
0.2927233864987657
 20
-6.452412868523955
 30
0.0
 10
0.2927233864987657
 20
-6.452412868523955
 30
0.0
 10
0.2927233864987657
 20
-6.452412868523955
 30
0.0
 10
0.2357586918015436
 20
-6.509377563221025
 30
0.0
 10
0.2357586918015436
 20
-6.602598298438301
 30
0.0
 10
0.2927233864987657
 20
-6.659562993135396
 30
0.0
 10
0.2927233864987657
 20
-6.659562993135396
 30
0.0
 10
0.8532918098667324
 20
-7.220128652032194
 30
0.0
 10
0.8532918098667324
 20
-7.220128652032194
 30
0.0
 10
0.8528605523508506
 20
-7.224629211236661
 30
0.0
 10
0.8519206321239431
 20
-7.228986017935792
 30
0.0
 10
0.8519206321239431
 20
-7.233597155990436
 30
0.0
 10
0.8519206321239431
 20
-7.238208294045206
 30
0.0
 10
0.8528605523508506
 20
-7.242565100744336
 30
0.0
 10
0.8532918098667324
 20
-7.247065659948677
 30
0.0
 10
0.8532918098667324
 20
-7.247065659948677
 30
0.0
 10
0.2927233864987657
 20
-7.807631318845475
 30
0.0
 10
0.2927233864987657
 20
-7.807631318845475
 30
0.0
 10
0.2357586918015436
 20
-7.864596013542697
 30
0.0
 10
0.2357586918015436
 20
-7.957816748759797
 30
0.0
 10
0.2927233864987657
 20
-8.014781443457043
 30
0.0
 10
0.2927233864987657
 20
-8.014781443457043
 30
0.0
 10
0.2927233864987657
 20
-8.014781443457043
 30
0.0
 10
0.2927233864987657
 20
-8.014781443457043
 30
0.0
 10
0.349693610138527
 20
-8.07174613815414
 30
0.0
 10
0.4429060519419434
 20
-8.07174613815414
 30
0.0
 10
0.4998707466391907
 20
-8.014781443457043
 30
0.0
 10
0.4998707466391907
 20
-8.014781443457043
 30
0.0
 10
1.137479454963947
 20
-7.37717549960333
 30
0.0
 10
1.137479454963947
 20
-7.37717549960333
 30
0.0
 10
1.137479454963947
 20
-7.37717549960333
 30
0.0
 10
1.148725324032562
 20
-7.37717549960333
 30
0.0
 10
1.148725324032562
 20
-7.37717549960333
 30
0.0
 10
1.148725324032562
 20
-7.37717549960333
 30
0.0
 10
1.312691643157223
 20
-7.37717549960333
 30
0.0
 10
1.312691643157223
 20
-7.37717549960333
 30
0.0
 10
1.312691643157223
 20
-7.37717549960333
 30
0.0
 10
0.8822413528575908
 20
-7.807631318845475
 30
0.0
 10
0.8822413528575908
 20
-7.807631318845475
 30
0.0
 10
0.8252711292178294
 20
-7.864596013542697
 30
0.0
 10
0.8252711292178294
 20
-7.957816748759797
 30
0.0
 10
0.8822413528575908
 20
-8.014781443457043
 30
0.0
 10
0.939211576497352
 20
-8.07174613815414
 30
0.0
 10
1.032429547243257
 20
-8.07174613815414
 30
0.0
 10
1.08938871299799
 20
-8.014781443457043
 30
0.0
 10
1.08938871299799
 20
-8.014781443457043
 30
0.0
 10
1.726997421322721
 20
-7.37717549960333
 30
0.0
 10
1.726997421322721
 20
-7.37717549960333
 30
0.0
 10
1.726997421322721
 20
-7.37717549960333
 30
0.0
 10
1.922268612948023
 20
-7.37717549960333
 30
0.0
 10
1.922268612948023
 20
-7.37717549960333
 30
0.0
 10
1.922268612948023
 20
-7.37717549960333
 30
0.0
 10
1.491818322648568
 20
-7.807631318845475
 30
0.0
 10
1.491818322648568
 20
-7.807631318845475
 30
0.0
 10
1.434848099008781
 20
-7.864596013542697
 30
0.0
 10
1.434848099008781
 20
-7.957816748759797
 30
0.0
 10
1.491818322648568
 20
-8.014781443457043
 30
0.0
 10
1.548777488403276
 20
-8.07174613815414
 30
0.0
 10
1.641995459149206
 20
-8.07174613815414
 30
0.0
 10
1.698965682788791
 20
-8.014781443457043
 30
0.0
 10
1.698965682788791
 20
-8.014781443457043
 30
0.0
 10
2.336563333228696
 20
-7.37717549960333
 30
0.0
 10
2.336563333228696
 20
-7.37717549960333
 30
0.0
 10
2.336563333228696
 20
-7.37717549960333
 30
0.0
 10
5.556685799305342
 20
-7.37717549960333
 30
0.0
 10
5.556685799305342
 20
-7.37717549960333
 30
0.0
 10
5.731621540372948
 20
-7.612326953564964
 30
0.0
 10
5.991437606878915
 20
-7.79549805450367
 30
0.0
 10
5.991437606878915
 20
-7.79549805450367
 30
0.0
 10
5.991437606878915
 20
-7.79549805450367
 30
0.0
 10
5.994533814685383
 20
-7.793305828797757
 30
0.0
 10
6.000007467771789
 20
-7.789316696775788
 30
0.0
 10
6.005470062973422
 20
-7.793305828797757
 30
0.0
 10
6.008566270779839
 20
-7.79549805450367
 30
0.0
 10
6.008566270779839
 20
-7.79549805450367
 30
0.0
 10
6.008566270779839
 20
-7.79549805450367
 30
0.0
 10
6.268382337285781
 20
-7.612326953564964
 30
0.0
 10
6.443318078353362
 20
-7.37717549960333
 30
0.0
 10
6.443318078353362
 20
-7.37717549960333
 30
0.0
 10
9.663440544430083
 20
-7.37717549960333
 30
0.0
 10
9.663440544430083
 20
-7.37717549960333
 30
0.0
 10
9.663440544430083
 20
-7.37717549960333
 30
0.0
 10
10.30103819486981
 20
-8.014781443457043
 30
0.0
 10
10.30103819486981
 20
-8.014781443457043
 30
0.0
 10
10.35800841850952
 20
-8.07174613815414
 30
0.0
 10
10.45122638925548
 20
-8.07174613815414
 30
0.0
 10
10.50819661289521
 20
-8.014781443457043
 30
0.0
 10
10.56515577864977
 20
-7.957816748759797
 30
0.0
 10
10.56515577864977
 20
-7.864596013542697
 30
0.0
 10
10.50819661289521
 20
-7.807631318845475
 30
0.0
 10
10.50819661289521
 20
-7.807631318845475
 30
0.0
 10
10.07773526471058
 20
-7.37717549960333
 30
0.0
 10
10.07773526471058
 20
-7.37717549960333
 30
0.0
 10
10.07773526471058
 20
-7.37717549960333
 30
0.0
 10
10.27300645633603
 20
-7.37717549960333
 30
0.0
 10
10.27300645633603
 20
-7.37717549960333
 30
0.0
 10
10.27300645633603
 20
-7.37717549960333
 30
0.0
 10
10.91061516466076
 20
-8.014781443457043
 30
0.0
 10
10.91061516466076
 20
-8.014781443457043
 30
0.0
 10
10.96758538830052
 20
-8.07174613815414
 30
0.0
 10
11.06079230116145
 20
-8.07174613815414
 30
0.0
 10
11.11776252480104
 20
-8.014781443457043
 30
0.0
 10
11.17473274844077
 20
-7.957816748759797
 30
0.0
 10
11.17473274844077
 20
-7.864596013542697
 30
0.0
 10
11.11776252480104
 20
-7.807631318845475
 30
0.0
 10
11.11776252480104
 20
-7.807631318845475
 30
0.0
 10
10.68731223450151
 20
-7.37717549960333
 30
0.0
 10
10.68731223450151
 20
-7.37717549960333
 30
0.0
 10
10.68731223450151
 20
-7.37717549960333
 30
0.0
 10
10.85127855362604
 20
-7.37717549960333
 30
0.0
 10
10.85127855362604
 20
-7.37717549960333
 30
0.0
 10
10.85127855362604
 20
-7.37717549960333
 30
0.0
 10
10.86252442269465
 20
-7.37717549960333
 30
0.0
 10
10.86252442269465
 20
-7.37717549960333
 30
0.0
 10
10.86252442269465
 20
-7.37717549960333
 30
0.0
 10
11.50013313101956
 20
-8.014781443457043
 30
0.0
 10
11.50013313101956
 20
-8.014781443457043
 30
0.0
 10
11.5570922967743
 20
-8.07174613815414
 30
0.0
 10
11.65031026752005
 20
-8.07174613815414
 30
0.0
 10
11.70728049115984
 20
-8.014781443457043
 30
0.0
 10
11.70728049115984
 20
-8.014781443457043
 30
0.0
 10
11.70728049115984
 20
-8.014781443457043
 30
0.0
 10
11.70728049115984
 20
-8.014781443457043
 30
0.0
 10
11.76423965691452
 20
-7.957816748759797
 30
0.0
 10
11.76423965691452
 20
-7.864596013542697
 30
0.0
 10
11.70728049115984
 20
-7.807631318845475
 30
0.0
 10
11.70728049115984
 20
-7.807631318845475
 30
0.0
 10
11.14671206779182
 20
-7.247065659948677
 30
0.0
 10
11.14671206779182
 20
-7.247065659948677
 30
0.0
  0
SPLINE
  5
42
330
1F
100
AcDbEntity
  8
Layer 1
370
     0
100
AcDbSpline
210
0.0
220
0.0
230
1.0
 70
    11
 71
     3
 72
  1445
 73
  1441
 74
     0
 42
0.0000000001
 43
0.0000000001
 12
1.0
 22
0.0
 32
0.0
 13
1.0
 23
0.0
 33
0.0
 40
0.0
 40
0.0
 40
0.0
 40
0.0
 40
1.0
 40
1.0
 40
1.0
 40
2.0
 40
2.0
 40
2.0
 40
3.0
 40
3.0
 40
3.0
 40
4.0
 40
4.0
 40
4.0
 40
5.0
 40
5.0
 40
5.0
 40
6.0
 40
6.0
 40
6.0
 40
7.0
 40
7.0
 40
7.0
 40
8.0
 40
8.0
 40
8.0
 40
9.0
 40
9.0
 40
9.0
 40
10.0
 40
10.0
 40
10.0
 40
11.0
 40
11.0
 40
11.0
 40
12.0
 40
12.0
 40
12.0
 40
13.0
 40
13.0
 40
13.0
 40
14.0
 40
14.0
 40
14.0
 40
15.0
 40
15.0
 40
15.0
 40
16.0
 40
16.0
 40
16.0
 40
17.0
 40
17.0
 40
17.0
 40
18.0
 40
18.0
 40
18.0
 40
19.0
 40
19.0
 40
19.0
 40
20.0
 40
20.0
 40
20.0
 40
21.0
 40
21.0
 40
21.0
 40
22.0
 40
22.0
 40
22.0
 40
23.0
 40
23.0
 40
23.0
 40
24.0
 40
24.0
 40
24.0
 40
25.0
 40
25.0
 40
25.0
 40
26.0
 40
26.0
 40
26.0
 40
27.0
 40
27.0
 40
27.0
 40
28.0
 40
28.0
 40
28.0
 40
29.0
 40
29.0
 40
29.0
 40
30.0
 40
30.0
 40
30.0
 40
31.0
 40
31.0
 40
31.0
 40
32.0
 40
32.0
 40
32.0
 40
33.0
 40
33.0
 40
33.0
 40
34.0
 40
34.0
 40
34.0
 40
35.0
 40
35.0
 40
35.0
 40
36.0
 40
36.0
 40
36.0
 40
37.0
 40
37.0
 40
37.0
 40
38.0
 40
38.0
 40
38.0
 40
39.0
 40
39.0
 40
39.0
 40
40.0
 40
40.0
 40
40.0
 40
41.0
 40
41.0
 40
41.0
 40
42.0
 40
42.0
 40
42.0
 40
43.0
 40
43.0
 40
43.0
 40
44.0
 40
44.0
 40
44.0
 40
45.0
 40
45.0
 40
45.0
 40
46.0
 40
46.0
 40
46.0
 40
47.0
 40
47.0
 40
47.0
 40
48.0
 40
48.0
 40
48.0
 40
49.0
 40
49.0
 40
49.0
 40
50.0
 40
50.0
 40
50.0
 40
51.0
 40
51.0
 40
51.0
 40
52.0
 40
52.0
 40
52.0
 40
53.0
 40
53.0
 40
53.0
 40
54.0
 40
54.0
 40
54.0
 40
55.0
 40
55.0
 40
55.0
 40
56.0
 40
56.0
 40
56.0
 40
57.0
 40
57.0
 40
57.0
 40
58.0
 40
58.0
 40
58.0
 40
59.0
 40
59.0
 40
59.0
 40
60.0
 40
60.0
 40
60.0
 40
61.0
 40
61.0
 40
61.0
 40
62.0
 40
62.0
 40
62.0
 40
63.0
 40
63.0
 40
63.0
 40
64.0
 40
64.0
 40
64.0
 40
65.0
 40
65.0
 40
65.0
 40
66.0
 40
66.0
 40
66.0
 40
67.0
 40
67.0
 40
67.0
 40
68.0
 40
68.0
 40
68.0
 40
69.0
 40
69.0
 40
69.0
 40
70.0
 40
70.0
 40
70.0
 40
71.0
 40
71.0
 40
71.0
 40
72.0
 40
72.0
 40
72.0
 40
73.0
 40
73.0
 40
73.0
 40
74.0
 40
74.0
 40
74.0
 40
75.0
 40
75.0
 40
75.0
 40
76.0
 40
76.0
 40
76.0
 40
77.0
 40
77.0
 40
77.0
 40
78.0
 40
78.0
 40
78.0
 40
79.0
 40
79.0
 40
79.0
 40
80.0
 40
80.0
 40
80.0
 40
81.0
 40
81.0
 40
81.0
 40
82.0
 40
82.0
 40
82.0
 40
83.0
 40
83.0
 40
83.0
 40
84.0
 40
84.0
 40
84.0
 40
85.0
 40
85.0
 40
85.0
 40
86.0
 40
86.0
 40
86.0
 40
87.0
 40
87.0
 40
87.0
 40
88.0
 40
88.0
 40
88.0
 40
89.0
 40
89.0
 40
89.0
 40
90.0
 40
90.0
 40
90.0
 40
91.0
 40
91.0
 40
91.0
 40
92.0
 40
92.0
 40
92.0
 40
93.0
 40
93.0
 40
93.0
 40
94.0
 40
94.0
 40
94.0
 40
95.0
 40
95.0
 40
95.0
 40
96.0
 40
96.0
 40
96.0
 40
97.0
 40
97.0
 40
97.0
 40
98.0
 40
98.0
 40
98.0
 40
99.0
 40
99.0
 40
99.0
 40
100.0
 40
100.0
 40
100.0
 40
101.0
 40
101.0
 40
101.0
 40
102.0
 40
102.0
 40
102.0
 40
103.0
 40
103.0
 40
103.0
 40
104.0
 40
104.0
 40
104.0
 40
105.0
 40
105.0
 40
105.0
 40
106.0
 40
106.0
 40
106.0
 40
107.0
 40
107.0
 40
107.0
 40
108.0
 40
108.0
 40
108.0
 40
109.0
 40
109.0
 40
109.0
 40
110.0
 40
110.0
 40
110.0
 40
111.0
 40
111.0
 40
111.0
 40
112.0
 40
112.0
 40
112.0
 40
113.0
 40
113.0
 40
113.0
 40
114.0
 40
114.0
 40
114.0
 40
115.0
 40
115.0
 40
115.0
 40
116.0
 40
116.0
 40
116.0
 40
117.0
 40
117.0
 40
117.0
 40
118.0
 40
118.0
 40
118.0
 40
119.0
 40
119.0
 40
119.0
 40
120.0
 40
120.0
 40
120.0
 40
121.0
 40
121.0
 40
121.0
 40
122.0
 40
122.0
 40
122.0
 40
123.0
 40
123.0
 40
123.0
 40
124.0
 40
124.0
 40
124.0
 40
125.0
 40
125.0
 40
125.0
 40
126.0
 40
126.0
 40
126.0
 40
127.0
 40
127.0
 40
127.0
 40
128.0
 40
128.0
 40
128.0
 40
129.0
 40
129.0
 40
129.0
 40
130.0
 40
130.0
 40
130.0
 40
131.0
 40
131.0
 40
131.0
 40
132.0
 40
132.0
 40
132.0
 40
133.0
 40
133.0
 40
133.0
 40
134.0
 40
134.0
 40
134.0
 40
135.0
 40
135.0
 40
135.0
 40
136.0
 40
136.0
 40
136.0
 40
137.0
 40
137.0
 40
137.0
 40
138.0
 40
138.0
 40
138.0
 40
139.0
 40
139.0
 40
139.0
 40
140.0
 40
140.0
 40
140.0
 40
141.0
 40
141.0
 40
141.0
 40
142.0
 40
142.0
 40
142.0
 40
143.0
 40
143.0
 40
143.0
 40
144.0
 40
144.0
 40
144.0
 40
145.0
 40
145.0
 40
145.0
 40
146.0
 40
146.0
 40
146.0
 40
147.0
 40
147.0
 40
147.0
 40
148.0
 40
148.0
 40
148.0
 40
149.0
 40
149.0
 40
149.0
 40
150.0
 40
150.0
 40
150.0
 40
151.0
 40
151.0
 40
151.0
 40
152.0
 40
152.0
 40
152.0
 40
153.0
 40
153.0
 40
153.0
 40
154.0
 40
154.0
 40
154.0
 40
155.0
 40
155.0
 40
155.0
 40
156.0
 40
156.0
 40
156.0
 40
157.0
 40
157.0
 40
157.0
 40
158.0
 40
158.0
 40
158.0
 40
159.0
 40
159.0
 40
159.0
 40
160.0
 40
160.0
 40
160.0
 40
161.0
 40
161.0
 40
161.0
 40
162.0
 40
162.0
 40
162.0
 40
163.0
 40
163.0
 40
163.0
 40
164.0
 40
164.0
 40
164.0
 40
165.0
 40
165.0
 40
165.0
 40
166.0
 40
166.0
 40
166.0
 40
167.0
 40
167.0
 40
167.0
 40
168.0
 40
168.0
 40
168.0
 40
169.0
 40
169.0
 40
169.0
 40
170.0
 40
170.0
 40
170.0
 40
171.0
 40
171.0
 40
171.0
 40
172.0
 40
172.0
 40
172.0
 40
173.0
 40
173.0
 40
173.0
 40
174.0
 40
174.0
 40
174.0
 40
175.0
 40
175.0
 40
175.0
 40
176.0
 40
176.0
 40
176.0
 40
177.0
 40
177.0
 40
177.0
 40
178.0
 40
178.0
 40
178.0
 40
179.0
 40
179.0
 40
179.0
 40
180.0
 40
180.0
 40
180.0
 40
181.0
 40
181.0
 40
181.0
 40
182.0
 40
182.0
 40
182.0
 40
183.0
 40
183.0
 40
183.0
 40
184.0
 40
184.0
 40
184.0
 40
185.0
 40
185.0
 40
185.0
 40
186.0
 40
186.0
 40
186.0
 40
187.0
 40
187.0
 40
187.0
 40
188.0
 40
188.0
 40
188.0
 40
189.0
 40
189.0
 40
189.0
 40
190.0
 40
190.0
 40
190.0
 40
191.0
 40
191.0
 40
191.0
 40
192.0
 40
192.0
 40
192.0
 40
193.0
 40
193.0
 40
193.0
 40
194.0
 40
194.0
 40
194.0
 40
195.0
 40
195.0
 40
195.0
 40
196.0
 40
196.0
 40
196.0
 40
197.0
 40
197.0
 40
197.0
 40
198.0
 40
198.0
 40
198.0
 40
199.0
 40
199.0
 40
199.0
 40
200.0
 40
200.0
 40
200.0
 40
201.0
 40
201.0
 40
201.0
 40
202.0
 40
202.0
 40
202.0
 40
203.0
 40
203.0
 40
203.0
 40
204.0
 40
204.0
 40
204.0
 40
205.0
 40
205.0
 40
205.0
 40
206.0
 40
206.0
 40
206.0
 40
207.0
 40
207.0
 40
207.0
 40
208.0
 40
208.0
 40
208.0
 40
209.0
 40
209.0
 40
209.0
 40
210.0
 40
210.0
 40
210.0
 40
211.0
 40
211.0
 40
211.0
 40
212.0
 40
212.0
 40
212.0
 40
213.0
 40
213.0
 40
213.0
 40
214.0
 40
214.0
 40
214.0
 40
215.0
 40
215.0
 40
215.0
 40
216.0
 40
216.0
 40
216.0
 40
217.0
 40
217.0
 40
217.0
 40
218.0
 40
218.0
 40
218.0
 40
219.0
 40
219.0
 40
219.0
 40
220.0
 40
220.0
 40
220.0
 40
221.0
 40
221.0
 40
221.0
 40
222.0
 40
222.0
 40
222.0
 40
223.0
 40
223.0
 40
223.0
 40
224.0
 40
224.0
 40
224.0
 40
225.0
 40
225.0
 40
225.0
 40
226.0
 40
226.0
 40
226.0
 40
227.0
 40
227.0
 40
227.0
 40
228.0
 40
228.0
 40
228.0
 40
229.0
 40
229.0
 40
229.0
 40
230.0
 40
230.0
 40
230.0
 40
231.0
 40
231.0
 40
231.0
 40
232.0
 40
232.0
 40
232.0
 40
233.0
 40
233.0
 40
233.0
 40
234.0
 40
234.0
 40
234.0
 40
235.0
 40
235.0
 40
235.0
 40
236.0
 40
236.0
 40
236.0
 40
237.0
 40
237.0
 40
237.0
 40
238.0
 40
238.0
 40
238.0
 40
239.0
 40
239.0
 40
239.0
 40
240.0
 40
240.0
 40
240.0
 40
241.0
 40
241.0
 40
241.0
 40
242.0
 40
242.0
 40
242.0
 40
243.0
 40
243.0
 40
243.0
 40
244.0
 40
244.0
 40
244.0
 40
245.0
 40
245.0
 40
245.0
 40
246.0
 40
246.0
 40
246.0
 40
247.0
 40
247.0
 40
247.0
 40
248.0
 40
248.0
 40
248.0
 40
249.0
 40
249.0
 40
249.0
 40
250.0
 40
250.0
 40
250.0
 40
251.0
 40
251.0
 40
251.0
 40
252.0
 40
252.0
 40
252.0
 40
253.0
 40
253.0
 40
253.0
 40
254.0
 40
254.0
 40
254.0
 40
255.0
 40
255.0
 40
255.0
 40
256.0
 40
256.0
 40
256.0
 40
257.0
 40
257.0
 40
257.0
 40
258.0
 40
258.0
 40
258.0
 40
259.0
 40
259.0
 40
259.0
 40
260.0
 40
260.0
 40
260.0
 40
261.0
 40
261.0
 40
261.0
 40
262.0
 40
262.0
 40
262.0
 40
263.0
 40
263.0
 40
263.0
 40
264.0
 40
264.0
 40
264.0
 40
265.0
 40
265.0
 40
265.0
 40
266.0
 40
266.0
 40
266.0
 40
267.0
 40
267.0
 40
267.0
 40
268.0
 40
268.0
 40
268.0
 40
269.0
 40
269.0
 40
269.0
 40
270.0
 40
270.0
 40
270.0
 40
271.0
 40
271.0
 40
271.0
 40
272.0
 40
272.0
 40
272.0
 40
273.0
 40
273.0
 40
273.0
 40
274.0
 40
274.0
 40
274.0
 40
275.0
 40
275.0
 40
275.0
 40
276.0
 40
276.0
 40
276.0
 40
277.0
 40
277.0
 40
277.0
 40
278.0
 40
278.0
 40
278.0
 40
279.0
 40
279.0
 40
279.0
 40
280.0
 40
280.0
 40
280.0
 40
281.0
 40
281.0
 40
281.0
 40
282.0
 40
282.0
 40
282.0
 40
283.0
 40
283.0
 40
283.0
 40
284.0
 40
284.0
 40
284.0
 40
285.0
 40
285.0
 40
285.0
 40
286.0
 40
286.0
 40
286.0
 40
287.0
 40
287.0
 40
287.0
 40
288.0
 40
288.0
 40
288.0
 40
289.0
 40
289.0
 40
289.0
 40
290.0
 40
290.0
 40
290.0
 40
291.0
 40
291.0
 40
291.0
 40
292.0
 40
292.0
 40
292.0
 40
293.0
 40
293.0
 40
293.0
 40
294.0
 40
294.0
 40
294.0
 40
295.0
 40
295.0
 40
295.0
 40
296.0
 40
296.0
 40
296.0
 40
297.0
 40
297.0
 40
297.0
 40
298.0
 40
298.0
 40
298.0
 40
299.0
 40
299.0
 40
299.0
 40
300.0
 40
300.0
 40
300.0
 40
301.0
 40
301.0
 40
301.0
 40
302.0
 40
302.0
 40
302.0
 40
303.0
 40
303.0
 40
303.0
 40
304.0
 40
304.0
 40
304.0
 40
305.0
 40
305.0
 40
305.0
 40
306.0
 40
306.0
 40
306.0
 40
307.0
 40
307.0
 40
307.0
 40
308.0
 40
308.0
 40
308.0
 40
309.0
 40
309.0
 40
309.0
 40
310.0
 40
310.0
 40
310.0
 40
311.0
 40
311.0
 40
311.0
 40
312.0
 40
312.0
 40
312.0
 40
313.0
 40
313.0
 40
313.0
 40
314.0
 40
314.0
 40
314.0
 40
315.0
 40
315.0
 40
315.0
 40
316.0
 40
316.0
 40
316.0
 40
317.0
 40
317.0
 40
317.0
 40
318.0
 40
318.0
 40
318.0
 40
319.0
 40
319.0
 40
319.0
 40
320.0
 40
320.0
 40
320.0
 40
321.0
 40
321.0
 40
321.0
 40
322.0
 40
322.0
 40
322.0
 40
323.0
 40
323.0
 40
323.0
 40
324.0
 40
324.0
 40
324.0
 40
325.0
 40
325.0
 40
325.0
 40
326.0
 40
326.0
 40
326.0
 40
327.0
 40
327.0
 40
327.0
 40
328.0
 40
328.0
 40
328.0
 40
329.0
 40
329.0
 40
329.0
 40
330.0
 40
330.0
 40
330.0
 40
331.0
 40
331.0
 40
331.0
 40
332.0
 40
332.0
 40
332.0
 40
333.0
 40
333.0
 40
333.0
 40
334.0
 40
334.0
 40
334.0
 40
335.0
 40
335.0
 40
335.0
 40
336.0
 40
336.0
 40
336.0
 40
337.0
 40
337.0
 40
337.0
 40
338.0
 40
338.0
 40
338.0
 40
339.0
 40
339.0
 40
339.0
 40
340.0
 40
340.0
 40
340.0
 40
341.0
 40
341.0
 40
341.0
 40
342.0
 40
342.0
 40
342.0
 40
343.0
 40
343.0
 40
343.0
 40
344.0
 40
344.0
 40
344.0
 40
345.0
 40
345.0
 40
345.0
 40
346.0
 40
346.0
 40
346.0
 40
347.0
 40
347.0
 40
347.0
 40
348.0
 40
348.0
 40
348.0
 40
349.0
 40
349.0
 40
349.0
 40
350.0
 40
350.0
 40
350.0
 40
351.0
 40
351.0
 40
351.0
 40
352.0
 40
352.0
 40
352.0
 40
353.0
 40
353.0
 40
353.0
 40
354.0
 40
354.0
 40
354.0
 40
355.0
 40
355.0
 40
355.0
 40
356.0
 40
356.0
 40
356.0
 40
357.0
 40
357.0
 40
357.0
 40
358.0
 40
358.0
 40
358.0
 40
359.0
 40
359.0
 40
359.0
 40
360.0
 40
360.0
 40
360.0
 40
361.0
 40
361.0
 40
361.0
 40
362.0
 40
362.0
 40
362.0
 40
363.0
 40
363.0
 40
363.0
 40
364.0
 40
364.0
 40
364.0
 40
365.0
 40
365.0
 40
365.0
 40
366.0
 40
366.0
 40
366.0
 40
367.0
 40
367.0
 40
367.0
 40
368.0
 40
368.0
 40
368.0
 40
369.0
 40
369.0
 40
369.0
 40
370.0
 40
370.0
 40
370.0
 40
371.0
 40
371.0
 40
371.0
 40
372.0
 40
372.0
 40
372.0
 40
373.0
 40
373.0
 40
373.0
 40
374.0
 40
374.0
 40
374.0
 40
375.0
 40
375.0
 40
375.0
 40
376.0
 40
376.0
 40
376.0
 40
377.0
 40
377.0
 40
377.0
 40
378.0
 40
378.0
 40
378.0
 40
379.0
 40
379.0
 40
379.0
 40
380.0
 40
380.0
 40
380.0
 40
381.0
 40
381.0
 40
381.0
 40
382.0
 40
382.0
 40
382.0
 40
383.0
 40
383.0
 40
383.0
 40
384.0
 40
384.0
 40
384.0
 40
385.0
 40
385.0
 40
385.0
 40
386.0
 40
386.0
 40
386.0
 40
387.0
 40
387.0
 40
387.0
 40
388.0
 40
388.0
 40
388.0
 40
389.0
 40
389.0
 40
389.0
 40
390.0
 40
390.0
 40
390.0
 40
391.0
 40
391.0
 40
391.0
 40
392.0
 40
392.0
 40
392.0
 40
393.0
 40
393.0
 40
393.0
 40
394.0
 40
394.0
 40
394.0
 40
395.0
 40
395.0
 40
395.0
 40
396.0
 40
396.0
 40
396.0
 40
397.0
 40
397.0
 40
397.0
 40
398.0
 40
398.0
 40
398.0
 40
399.0
 40
399.0
 40
399.0
 40
400.0
 40
400.0
 40
400.0
 40
401.0
 40
401.0
 40
401.0
 40
402.0
 40
402.0
 40
402.0
 40
403.0
 40
403.0
 40
403.0
 40
404.0
 40
404.0
 40
404.0
 40
405.0
 40
405.0
 40
405.0
 40
406.0
 40
406.0
 40
406.0
 40
407.0
 40
407.0
 40
407.0
 40
408.0
 40
408.0
 40
408.0
 40
409.0
 40
409.0
 40
409.0
 40
410.0
 40
410.0
 40
410.0
 40
411.0
 40
411.0
 40
411.0
 40
412.0
 40
412.0
 40
412.0
 40
413.0
 40
413.0
 40
413.0
 40
414.0
 40
414.0
 40
414.0
 40
415.0
 40
415.0
 40
415.0
 40
416.0
 40
416.0
 40
416.0
 40
417.0
 40
417.0
 40
417.0
 40
418.0
 40
418.0
 40
418.0
 40
419.0
 40
419.0
 40
419.0
 40
420.0
 40
420.0
 40
420.0
 40
421.0
 40
421.0
 40
421.0
 40
422.0
 40
422.0
 40
422.0
 40
423.0
 40
423.0
 40
423.0
 40
424.0
 40
424.0
 40
424.0
 40
425.0
 40
425.0
 40
425.0
 40
426.0
 40
426.0
 40
426.0
 40
427.0
 40
427.0
 40
427.0
 40
428.0
 40
428.0
 40
428.0
 40
429.0
 40
429.0
 40
429.0
 40
430.0
 40
430.0
 40
430.0
 40
431.0
 40
431.0
 40
431.0
 40
432.0
 40
432.0
 40
432.0
 40
433.0
 40
433.0
 40
433.0
 40
434.0
 40
434.0
 40
434.0
 40
435.0
 40
435.0
 40
435.0
 40
436.0
 40
436.0
 40
436.0
 40
437.0
 40
437.0
 40
437.0
 40
438.0
 40
438.0
 40
438.0
 40
439.0
 40
439.0
 40
439.0
 40
440.0
 40
440.0
 40
440.0
 40
441.0
 40
441.0
 40
441.0
 40
442.0
 40
442.0
 40
442.0
 40
443.0
 40
443.0
 40
443.0
 40
444.0
 40
444.0
 40
444.0
 40
445.0
 40
445.0
 40
445.0
 40
446.0
 40
446.0
 40
446.0
 40
447.0
 40
447.0
 40
447.0
 40
448.0
 40
448.0
 40
448.0
 40
449.0
 40
449.0
 40
449.0
 40
450.0
 40
450.0
 40
450.0
 40
451.0
 40
451.0
 40
451.0
 40
452.0
 40
452.0
 40
452.0
 40
453.0
 40
453.0
 40
453.0
 40
454.0
 40
454.0
 40
454.0
 40
455.0
 40
455.0
 40
455.0
 40
456.0
 40
456.0
 40
456.0
 40
457.0
 40
457.0
 40
457.0
 40
458.0
 40
458.0
 40
458.0
 40
459.0
 40
459.0
 40
459.0
 40
460.0
 40
460.0
 40
460.0
 40
461.0
 40
461.0
 40
461.0
 40
462.0
 40
462.0
 40
462.0
 40
463.0
 40
463.0
 40
463.0
 40
464.0
 40
464.0
 40
464.0
 40
465.0
 40
465.0
 40
465.0
 40
466.0
 40
466.0
 40
466.0
 40
467.0
 40
467.0
 40
467.0
 40
468.0
 40
468.0
 40
468.0
 40
469.0
 40
469.0
 40
469.0
 40
470.0
 40
470.0
 40
470.0
 40
471.0
 40
471.0
 40
471.0
 40
472.0
 40
472.0
 40
472.0
 40
473.0
 40
473.0
 40
473.0
 40
474.0
 40
474.0
 40
474.0
 40
475.0
 40
475.0
 40
475.0
 40
476.0
 40
476.0
 40
476.0
 40
477.0
 40
477.0
 40
477.0
 40
478.0
 40
478.0
 40
478.0
 40
479.0
 40
479.0
 40
479.0
 40
480.0
 40
480.0
 40
480.0
 40
480.0
 10
11.75000013452417
 20
-10.40018936509058
 30
0.0
 10
11.75000013452417
 20
-10.39549304890135
 30
0.0
 10
11.74952541664222
 20
-10.39090523965655
 30
0.0
 10
11.7486166709825
 20
-10.3864734091444
 30
0.0
 10
11.74464938582625
 20
-10.36709135619301
 30
0.0
 10
11.73244235457625
 20
-10.35071189384492
 30
0.0
 10
11.71582044702417
 20
-10.34114971936575
 30
0.0
 10
11.70583780813528
 20
-10.33541411009926
 30
0.0
 10
11.69427503686792
 20
-10.33213347045082
 30
0.0
 10
11.68193915362139
 20
-10.33213347045082
 30
0.0
 10
11.67888061412486
 20
-10.33213347045082
 30
0.0
 10
11.67588989146861
 20
-10.33239117444388
 30
0.0
 10
11.67293985891653
 20
-10.33279129380152
 30
0.0
 10
11.67187513452417
 20
-10.3329320137451
 30
0.0
 10
11.67085110023597
 20
-10.33315920016003
 30
0.0
 10
11.6698067208957
 20
-10.33335078273381
 30
0.0
 10
11.66798922957625
 20
-10.33368478067218
 30
0.0
 10
11.66619208330889
 20
-10.33406625039874
 30
0.0
 10
11.66442884546167
 20
-10.33454605454371
 30
0.0
 10
11.66315388886445
 20
-10.33489022500811
 30
0.0
 10
11.66190605900334
 20
-10.33526660847166
 30
0.0
 10
11.66065822914222
 20
-10.33568198661836
 30
0.0
 10
11.65927476560056
 20
-10.33615161823728
 30
0.0
 10
11.657918428795
 20
-10.33668058959145
 30
0.0
 10
11.65656887367347
 20
-10.33723668768173
 30
0.0
 10
11.65516506507972
 20
-10.33780973998207
 30
0.0
 10
11.65376125648597
 20
-10.33836583807235
 30
0.0
 10
11.65240491968042
 20
-10.33903044310707
 30
0.0
 10
11.65165215275334
 20
-10.33940004488659
 30
0.0
 10
11.65094685761445
 20
-10.33984424519041
 30
0.0
 10
11.65021443573945
 20
-10.34024097370603
 30
0.0
 10
11.64657267141653
 20
-10.34219409870603
 30
0.0
 10
11.64312757593042
 20
-10.34443544527721
 30
0.0
 10
11.63991983938528
 20
-10.34699892183971
 30
0.0
 10
11.6397774240207
 20
-10.34711081962617
 30
0.0
 10
11.63962822697209
 20
-10.34720915404457
 30
0.0
 10
11.6394858116075
 20
-10.34732105183103
 30
0.0
 10
11.63786498912486
 20
-10.34864008937443
 30
0.0
 10
11.63635267358667
 20
-10.35006085217825
 30
0.0
 10
11.63485392141653
 20
-10.35152060966523
 30
0.0
 10
11.63439276690264
 20
-10.35196989623207
 30
0.0
 10
11.63393161238875
 20
-10.35241409653589
 30
0.0
 10
11.63348402124292
 20
-10.35287525104978
 30
0.0
 10
11.63212090275334
 20
-10.35428584132756
 30
0.0
 10
11.63081881942
 20
-10.3557354262885
 30
0.0
 10
11.62957777124292
 20
-10.35725791435273
 30
0.0
 10
11.62940822914222
 20
-10.35746645113659
 30
0.0
 10
11.62921156030542
 20
-10.35764955660534
 30
0.0
 10
11.62904201820472
 20
-10.35785809338919
 30
0.0
 10
11.62904201820472
 20
-10.35785809338919
 30
0.0
 10
11.44334594615611
 20
-10.35785809338919
 30
0.0
 10
11.44334594615611
 20
-10.35785809338919
 30
0.0
 10
11.43812404945472
 20
-10.34957765719128
 30
0.0
 10
11.00120727428111
 20
-10.06457908134492
 30
0.0
 10
10.77488213322209
 20
-10.12109594061141
 30
0.0
 10
10.78713663626028
 20
-10.07402766261662
 30
0.0
 10
10.87203653860403
 20
-10.00083633774683
 30
0.0
 10
10.87664130205889
 20
-9.991299594582769
 30
0.0
 10
10.71000854381236
 20
-9.953069546297177
 30
0.0
 10
10.5567221397325
 20
-10.00261313896211
 30
0.0
 10
10.51295993270125
 20
-10.01311796752114
 30
0.0
 10
10.53219278860403
 20
-9.96752301038138
 30
0.0
 10
10.5567221397325
 20
-9.930951083840581
 30
0.0
 10
10.58374036889917
 20
-9.895698194843185
 30
0.0
 10
10.59099677080889
 20
-9.886236050203427
 30
0.0
 10
10.60647935544431
 20
-9.876967183558463
 30
0.0
 10
10.60268839407278
 20
-9.866291117477733
 30
0.0
 10
10.59819891924639
 20
-9.853660230975997
 30
0.0
 10
10.41395412757972
 20
-9.826530104022872
 30
0.0
 10
10.21170396481931
 20
-9.875463345125302
 30
0.0
 10
10.20315226126028
 20
-9.877531758753776
 30
0.0
 10
10.19482435327417
 20
-9.881685540220788
 30
0.0
 10
10.18159328773597
 20
-9.879567959383115
 30
0.0
 10
10.18673380422903
 20
-9.872793057039365
 30
0.0
 10
10.18981947046167
 20
-9.867933980433463
 30
0.0
 10
10.19366468530542
 20
-9.863780198966449
 30
0.0
 10
10.21929266924639
 20
-9.836132968606206
 30
0.0
 10
10.23625366099986
 20
-9.803552063115754
 30
0.0
 10
10.24802666447209
 20
-9.768119459491622
 30
0.0
 10
10.25502536238875
 20
-9.747065721427386
 30
0.0
 10
10.2537910958957
 20
-9.7453601278944
 30
0.0
 10
10.23246948131236
 20
-9.744882019170442
 30
0.0
 10
9.505974798152641
 20
-9.728595804977733
 30
0.0
 10
9.413709986954725
 20
-9.974275872252038
 30
0.0
 10
9.146274277319309
 20
-10.19319202351072
 30
0.0
 10
9.066338567683891
 20
-10.25863527437878
 30
0.0
 10
8.983005234350559
 20
-10.32585532646211
 30
0.0
 10
8.883090683569309
 20
-10.35785809338919
 30
0.0
 10
8.883090683569309
 20
-10.35785809338919
 30
0.0
 10
8.819573430965141
 20
-10.35785809338919
 30
0.0
 10
8.819573430965141
 20
-10.35785809338919
 30
0.0
 10
8.819431015600559
 20
-10.35748001450464
 30
0.0
 10
8.81921400171167
 20
-10.35714432114527
 30
0.0
 10
8.819071586347086
 20
-10.35676793768173
 30
0.0
 10
8.817037081138754
 20
-10.35145448824596
 30
0.0
 10
8.814704181833196
 20
-10.34629701754284
 30
0.0
 10
8.811984726538059
 20
-10.34136673325464
 30
0.0
 10
8.81185587454153
 20
-10.34114293768173
 30
0.0
 10
8.811713459176946
 20
-10.34092931463485
 30
0.0
 10
8.811591388864446
 20
-10.34070551906193
 30
0.0
 10
8.805799830704725
 20
-10.33035497381454
 30
0.0
 10
8.798556992163059
 20
-10.320947082647
 30
0.0
 10
8.79012735891653
 20
-10.31274463581541
 30
0.0
 10
8.78994425344778
 20
-10.31256661660968
 30
0.0
 10
8.789781493031114
 20
-10.31237842487791
 30
0.0
 10
8.789598387562364
 20
-10.31220210109318
 30
0.0
 10
8.78554972219778
 20
-10.30830941446124
 30
0.0
 10
8.781202662735975
 20
-10.30474224866263
 30
0.0
 10
8.776645371069309
 20
-10.3014378731201
 30
0.0
 10
8.776157089819309
 20
-10.30108183470864
 30
0.0
 10
8.775682371937364
 20
-10.30071562377114
 30
0.0
 10
8.775187309003336
 20
-10.30036636704371
 30
0.0
 10
8.770738524281114
 20
-10.29724170612791
 30
0.0
 10
8.766072725670004
 20
-10.2944323935194
 30
0.0
 10
8.761217039906114
 20
-10.29191977958711
 30
0.0
 10
8.76052530813528
 20
-10.29156374117565
 30
0.0
 10
8.759840358048475
 20
-10.29121957071124
 30
0.0
 10
8.759148626277641
 20
-10.29087540024683
 30
0.0
 10
8.75429972219778
 20
-10.28848485662704
 30
0.0
 10
8.749281276017225
 20
-10.28639440252548
 30
0.0
 10
8.744093287735975
 20
-10.28466168225638
 30
0.0
 10
8.74334730249292
 20
-10.28441075994735
 30
0.0
 10
8.742587753881809
 20
-10.28419713690048
 30
0.0
 10
8.741834986954725
 20
-10.28396147338051
 30
0.0
 10
8.73653849172903
 20
-10.28230843789874
 30
0.0
 10
8.731113144506809
 20
-10.28095210109318
 30
0.0
 10
8.725531818551946
 20
-10.28003657374943
 30
0.0
 10
8.72494181204153
 20
-10.27993823933103
 30
0.0
 10
8.724338242163059
 20
-10.27989076754284
 30
0.0
 10
8.723748235652641
 20
-10.27980260565048
 30
0.0
 10
8.717888860652641
 20
-10.27893115925291
 30
0.0
 10
8.711920978708196
 20
-10.2783920153727
 30
0.0
 10
8.70581068139917
 20
-10.27838862453068
 30
0.0
 10
8.705797118031114
 20
-10.27838862453068
 30
0.0
 10
8.70577677297903
 20
-10.27838523368867
 30
0.0
 10
8.705763209610975
 20
-10.27838523368867
 30
0.0
 10
8.70574964624292
 20
-10.27838523368867
 30
0.0
 10
8.705729301190836
 20
-10.27838862453068
 30
0.0
 10
8.70571573782278
 20
-10.27838862453068
 30
0.0
 10
8.69961222219778
 20
-10.2783920153727
 30
0.0
 10
8.693644340253336
 20
-10.27893115925291
 30
0.0
 10
8.687784965253336
 20
-10.27980260565048
 30
0.0
 10
8.687188177058891
 20
-10.27989246296385
 30
0.0
 10
8.68658460718042
 20
-10.27993823933103
 30
0.0
 10
8.685994600670004
 20
-10.28003657374943
 30
0.0
 10
8.680413274715141
 20
-10.28095210109318
 30
0.0
 10
8.674994709176946
 20
-10.28230674247773
 30
0.0
 10
8.66970499563528
 20
-10.2839597779595
 30
0.0
 10
8.66894544702417
 20
-10.28419713690048
 30
0.0
 10
8.66817911672903
 20
-10.28441075994735
 30
0.0
 10
8.667426349801946
 20
-10.28466507309839
 30
0.0
 10
8.662245143204725
 20
-10.28639609794648
 30
0.0
 10
8.657233478708196
 20
-10.28848316120603
 30
0.0
 10
8.652391356312364
 20
-10.29087031398381
 30
0.0
 10
8.651692842857504
 20
-10.29121787529023
 30
0.0
 10
8.65100111108667
 20
-10.29156543659666
 30
0.0
 10
8.650309379315836
 20
-10.29192486585013
 30
0.0
 10
8.645453693551946
 20
-10.29443578436141
 30
0.0
 10
8.640787894940836
 20
-10.29724509696992
 30
0.0
 10
8.636345891902641
 20
-10.30036636704371
 30
0.0
 10
8.635850828968614
 20
-10.30071562377114
 30
0.0
 10
8.63537611108667
 20
-10.30108013928763
 30
0.0
 10
8.634881048152641
 20
-10.30143617769909
 30
0.0
 10
8.630323756485975
 20
-10.30474224866263
 30
0.0
 10
8.62597669702417
 20
-10.30831619614527
 30
0.0
 10
8.621928031659586
 20
-10.31221057819822
 30
0.0
 10
8.621751707874864
 20
-10.31237842487791
 30
0.0
 10
8.621595729142225
 20
-10.31255644408364
 30
0.0
 10
8.621419405357504
 20
-10.31272429076332
 30
0.0
 10
8.61297620874292
 20
-10.32094199638398
 30
0.0
 10
8.605719806833196
 20
-10.3303702326036
 30
0.0
 10
8.59991468530542
 20
-10.34074281832409
 30
0.0
 10
8.599799396676946
 20
-10.34094796426593
 30
0.0
 10
8.599677326364446
 20
-10.34114293768173
 30
0.0
 10
8.599562037735975
 20
-10.34134808362357
 30
0.0
 10
8.596835800756809
 20
-10.3462885404378
 30
0.0
 10
8.594489338083196
 20
-10.35145787908798
 30
0.0
 10
8.592454832874864
 20
-10.3567848918918
 30
0.0
 10
8.59231241751028
 20
-10.35715449367131
 30
0.0
 10
8.592095403621391
 20
-10.35748679618867
 30
0.0
 10
8.591959769940836
 20
-10.35785809338919
 30
0.0
 10
8.591959769940836
 20
-10.35785809338919
 30
0.0
 10
8.54574259329153
 20
-10.35785809338919
 30
0.0
 10
8.54574259329153
 20
-10.35785809338919
 30
0.0
 10
8.545674776451254
 20
-10.35771906886662
 30
0.0
 10
8.545573051190836
 20
-10.35759530313311
 30
0.0
 10
8.545505234350559
 20
-10.35745797403155
 30
0.0
 10
8.545139023413059
 20
-10.35674420178763
 30
0.0
 10
8.544664305531114
 20
-10.356103332647
 30
0.0
 10
8.54427774954153
 20
-10.35540142835013
 30
0.0
 10
8.542500948326254
 20
-10.35215300170082
 30
0.0
 10
8.540608858482504
 20
-10.34898425983885
 30
0.0
 10
8.53847940969778
 20
-10.34598166923555
 30
0.0
 10
8.53738077688528
 20
-10.34441849106714
 30
0.0
 10
8.536126165340141
 20
-10.34299603284232
 30
0.0
 10
8.534932588951254
 20
-10.34150575777721
 30
0.0
 10
8.533311766468614
 20
-10.33948651135794
 30
0.0
 10
8.531690943985975
 20
-10.33747743746471
 30
0.0
 10
8.529914142770696
 20
-10.33559721556801
 30
0.0
 10
8.528462862388754
 20
-10.3340560778727
 30
0.0
 10
8.526909856746391
 20
-10.3326404013319
 30
0.0
 10
8.525350069420004
 20
-10.331200988897
 30
0.0
 10
8.52358683157278
 20
-10.32956660304631
 30
0.0
 10
8.521796466989446
 20
-10.32797460272079
 30
0.0
 10
8.519911158829725
 20
-10.32647754597166
 30
0.0
 10
8.518229301190836
 20
-10.32514833590221
 30
0.0
 10
8.51650675344778
 20
-10.32390220146211
 30
0.0
 10
8.51473673391653
 20
-10.32268658460013
 30
0.0
 10
8.512715792076254
 20
-10.32129973021645
 30
0.0
 10
8.51064737844778
 20
-10.32001290567218
 30
0.0
 10
8.508517929663059
 20
-10.31878542086315
 30
0.0
 10
8.50671400171167
 20
-10.31774612778589
 30
0.0
 10
8.50491007376028
 20
-10.31673904770777
 30
0.0
 10
8.503038328968614
 20
-10.315820129522
 30
0.0
 10
8.500685084610975
 20
-10.31466554781628
 30
0.0
 10
8.498250460045004
 20
-10.31368050821124
 30
0.0
 10
8.49578870874292
 20
-10.31272429076332
 30
0.0
 10
8.493977999107504
 20
-10.31202238646645
 30
0.0
 10
8.492201197892225
 20
-10.3112780966444
 30
0.0
 10
8.490329453100559
 20
-10.31068809013398
 30
0.0
 10
8.487440455704725
 20
-10.30977086736923
 30
0.0
 10
8.484456514732504
 20
-10.30911304401853
 30
0.0
 10
8.48144544702417
 20
-10.30847895656193
 30
0.0
 10
8.479865314645696
 20
-10.30814834946558
 30
0.0
 10
8.478339435739446
 20
-10.30769906289874
 30
0.0
 10
8.476732176624864
 20
-10.30744814058971
 30
0.0
 10
8.47204603296167
 20
-10.30671741413572
 30
0.0
 10
8.46725138235403
 20
-10.30627660467391
 30
0.0
 10
8.462348224801946
 20
-10.30627660467391
 30
0.0
 10
8.457445067249864
 20
-10.30627660467391
 30
0.0
 10
8.452650416642225
 20
-10.30671571871471
 30
0.0
 10
8.44796427297903
 20
-10.30744814058971
 30
0.0
 10
8.446357013864446
 20
-10.30769906289874
 30
0.0
 10
8.44482435327417
 20
-10.30815004488659
 30
0.0
 10
8.443244220895696
 20
-10.30848065198294
 30
0.0
 10
8.440239934871391
 20
-10.30911304401853
 30
0.0
 10
8.43725599389917
 20
-10.30977256279023
 30
0.0
 10
8.434360214819309
 20
-10.31068809013398
 30
0.0
 10
8.43249525171167
 20
-10.31127640122339
 30
0.0
 10
8.430718450496391
 20
-10.31202238646645
 30
0.0
 10
8.428900959176946
 20
-10.31272429076332
 30
0.0
 10
8.426445989558891
 20
-10.31368050821124
 30
0.0
 10
8.42401136499292
 20
-10.31466385239527
 30
0.0
 10
8.42165812063528
 20
-10.315820129522
 30
0.0
 10
8.419779594159586
 20
-10.31673735228676
 30
0.0
 10
8.417982447892225
 20
-10.31774612778589
 30
0.0
 10
8.416178519940836
 20
-10.31878372544214
 30
0.0
 10
8.414049071156114
 20
-10.32001460109318
 30
0.0
 10
8.411973875843614
 20
-10.32130312105846
 30
0.0
 10
8.409952934003336
 20
-10.32269336628416
 30
0.0
 10
8.408189696156114
 20
-10.32390389688311
 30
0.0
 10
8.406467148413059
 20
-10.3251449450602
 30
0.0
 10
8.404792072458196
 20
-10.32647076428763
 30
0.0
 10
8.402899982614446
 20
-10.32797290729978
 30
0.0
 10
8.401102836347086
 20
-10.32956999388832
 30
0.0
 10
8.399326035131809
 20
-10.33121285684405
 30
0.0
 10
8.397779811173475
 20
-10.33264548759492
 30
0.0
 10
8.396233587215141
 20
-10.3340560778727
 30
0.0
 10
8.394782306833196
 20
-10.33558873846298
 30
0.0
 10
8.392985160565836
 20
-10.33748760999075
 30
0.0
 10
8.391350774715141
 20
-10.33951872435707
 30
0.0
 10
8.389716388864446
 20
-10.34156170667044
 30
0.0
 10
8.388543157527641
 20
-10.34302485499943
 30
0.0
 10
8.387308891034586
 20
-10.34442188190916
 30
0.0
 10
8.386223821590141
 20
-10.34595793334145
 30
0.0
 10
8.38403333764917
 20
-10.34905038125811
 30
0.0
 10
8.38208021264917
 20
-10.35231067585447
 30
0.0
 10
8.380255939645696
 20
-10.3556625231852
 30
0.0
 10
8.379930418812364
 20
-10.35626778848468
 30
0.0
 10
8.37951673608667
 20
-10.35681540946992
 30
0.0
 10
8.379204778621391
 20
-10.35742915187443
 30
0.0
 10
8.379123398413059
 20
-10.35757834892305
 30
0.0
 10
8.379021673152641
 20
-10.35770889634058
 30
0.0
 10
8.378947074628336
 20
-10.35785809338919
 30
0.0
 10
8.378947074628336
 20
-10.35785809338919
 30
0.0
 10
8.327833522110975
 20
-10.35785809338919
 30
0.0
 10
8.327833522110975
 20
-10.35785809338919
 30
0.0
 10
8.326917994767225
 20
-10.35650006116263
 30
0.0
 10
8.325853270374864
 20
-10.35525562214353
 30
0.0
 10
8.32485636282278
 20
-10.35396201591523
 30
0.0
 10
8.324198539472086
 20
-10.35310752372773
 30
0.0
 10
8.323588187909586
 20
-10.35221742769909
 30
0.0
 10
8.322889674454725
 20
-10.35139345308971
 30
0.0
 10
8.320719535565836
 20
-10.34880963147513
 30
0.0
 10
8.31842054468042
 20
-10.34634109848902
 30
0.0
 10
8.315924884958196
 20
-10.34406923433971
 30
0.0
 10
8.31588419485403
 20
-10.34403363049857
 30
0.0
 10
8.315843504749864
 20
-10.34400480834145
 30
0.0
 10
8.315802814645696
 20
-10.34397089992131
 30
0.0
 10
8.313341063343614
 20
-10.34173633503416
 30
0.0
 10
8.310702988256809
 20
-10.3396967435628
 30
0.0
 10
8.307963187909586
 20
-10.33779617661402
 30
0.0
 10
8.307074787301946
 20
-10.3371824342095
 30
0.0
 10
8.306132133222086
 20
-10.33666024453936
 30
0.0
 10
8.305216605878336
 20
-10.336083801397
 30
0.0
 10
8.303243135826254
 20
-10.33483597153589
 30
0.0
 10
8.30123575735403
 20
-10.33364917683103
 30
0.0
 10
8.299140216989446
 20
-10.33258445243867
 30
0.0
 10
8.29803480249292
 20
-10.33202157266436
 30
0.0
 10
8.29690226126028
 20
-10.33151464178329
 30
0.0
 10
8.295762938343614
 20
-10.3310043200602
 30
0.0
 10
8.293714869767225
 20
-10.33008709729544
 30
0.0
 10
8.291632892770696
 20
-10.32926651352808
 30
0.0
 10
8.289496662301946
 20
-10.32852900539006
 30
0.0
 10
8.288303085913059
 20
-10.32812210434839
 30
0.0
 10
8.287123072892225
 20
-10.32771520330673
 30
0.0
 10
8.28591593313528
 20
-10.3273659465793
 30
0.0
 10
8.28359659719778
 20
-10.32669455986055
 30
0.0
 10
8.281223007788059
 20
-10.32617915187443
 30
0.0
 10
8.278822291642225
 20
-10.32572816988659
 30
0.0
 10
8.277744003881809
 20
-10.32552811020777
 30
0.0
 10
8.276692842857504
 20
-10.3252670153727
 30
0.0
 10
8.275594210045004
 20
-10.32511103664006
 30
0.0
 10
8.272074516034586
 20
-10.324609192022
 30
0.0
 10
8.268500568551946
 20
-10.32429214829371
 30
0.0
 10
8.264838459176946
 20
-10.32429214829371
 30
0.0
 10
8.261176349801946
 20
-10.32429214829371
 30
0.0
 10
8.257602402319309
 20
-10.324609192022
 30
0.0
 10
8.254082708308891
 20
-10.32511103664006
 30
0.0
 10
8.252984075496391
 20
-10.3252670153727
 30
0.0
 10
8.251926132788059
 20
-10.32552811020777
 30
0.0
 10
8.250841063343614
 20
-10.3257315607286
 30
0.0
 10
8.248447128881809
 20
-10.32617915187443
 30
0.0
 10
8.246080321156114
 20
-10.32669455986055
 30
0.0
 10
8.24377454858667
 20
-10.32736255573728
 30
0.0
 10
8.242547063777641
 20
-10.32771520330673
 30
0.0
 10
8.24136026907278
 20
-10.32812549519041
 30
0.0
 10
8.240159910999864
 20
-10.3285374824951
 30
0.0
 10
8.23803724389917
 20
-10.32926820894909
 30
0.0
 10
8.235968830270696
 20
-10.33008201103242
 30
0.0
 10
8.233941106746391
 20
-10.33099245211315
 30
0.0
 10
8.232781438777641
 20
-10.33150955552027
 30
0.0
 10
8.231635334176946
 20
-10.33202496350638
 30
0.0
 10
8.230509574628336
 20
-10.33259801580673
 30
0.0
 10
8.228447942683891
 20
-10.33364748141003
 30
0.0
 10
8.22646769094778
 20
-10.33481901732582
 30
0.0
 10
8.224521347631809
 20
-10.33604650213485
 30
0.0
 10
8.223578693551946
 20
-10.33663989948728
 30
0.0
 10
8.222608912735975
 20
-10.33717904336749
 30
0.0
 10
8.221693385392225
 20
-10.33781313082409
 30
0.0
 10
8.219034965253336
 20
-10.33965774887964
 30
0.0
 10
8.216478270374864
 20
-10.3416481731418
 30
0.0
 10
8.21407755422903
 20
-10.34381153034666
 30
0.0
 10
8.213914793812364
 20
-10.34395394571124
 30
0.0
 10
8.213758815079725
 20
-10.34408618854978
 30
0.0
 10
8.213596054663059
 20
-10.34422860391436
 30
0.0
 10
8.211168211781114
 20
-10.34645299627548
 30
0.0
 10
8.208916692683891
 20
-10.34885879868433
 30
0.0
 10
8.206794025583196
 20
-10.35137988972166
 30
0.0
 10
8.206088730444309
 20
-10.3522208185411
 30
0.0
 10
8.20547159719778
 20
-10.35311939167478
 30
0.0
 10
8.20480021047903
 20
-10.35399083807235
 30
0.0
 10
8.203810084610975
 20
-10.35527596719561
 30
0.0
 10
8.202752141902641
 20
-10.35650853826766
 30
0.0
 10
8.20184339624292
 20
-10.35785809338919
 30
0.0
 10
8.20184339624292
 20
-10.35785809338919
 30
0.0
 10
3.79815687280542
 20
-10.35785809338919
 30
0.0
 10
3.79815687280542
 20
-10.35785809338919
 30
0.0
 10
3.797248127145697
 20
-10.35650853826766
 30
0.0
 10
3.796190184437364
 20
-10.35527596719561
 30
0.0
 10
3.795200058569308
 20
-10.35399083807235
 30
0.0
 10
3.794528671850558
 20
-10.35311939167478
 30
0.0
 10
3.793911538604031
 20
-10.3522208185411
 30
0.0
 10
3.793206243465142
 20
-10.35137988972166
 30
0.0
 10
3.791083576364447
 20
-10.34885879868433
 30
0.0
 10
3.788832057267225
 20
-10.34645299627548
 30
0.0
 10
3.786404214385281
 20
-10.34422860391436
 30
0.0
 10
3.786241453968614
 20
-10.34408618854978
 30
0.0
 10
3.786085475235975
 20
-10.34395394571124
 30
0.0
 10
3.785922714819308
 20
-10.34381153034666
 30
0.0
 10
3.783521998673475
 20
-10.3416481731418
 30
0.0
 10
3.780965303795003
 20
-10.33965774887964
 30
0.0
 10
3.778306883656114
 20
-10.33781313082409
 30
0.0
 10
3.777391356312364
 20
-10.33717904336749
 30
0.0
 10
3.776421575496392
 20
-10.33663989948728
 30
0.0
 10
3.775478921416531
 20
-10.33604650213485
 30
0.0
 10
3.773532578100558
 20
-10.33481901732582
 30
0.0
 10
3.771552326364447
 20
-10.33364748141003
 30
0.0
 10
3.769490694420003
 20
-10.33259801580673
 30
0.0
 10
3.768364934871392
 20
-10.33202496350638
 30
0.0
 10
3.767218830270697
 20
-10.33150955552027
 30
0.0
 10
3.766059162301947
 20
-10.33099245211315
 30
0.0
 10
3.764031438777642
 20
-10.33008201103242
 30
0.0
 10
3.76196302514917
 20
-10.32926820894909
 30
0.0
 10
3.759840358048475
 20
-10.3285374824951
 30
0.0
 10
3.758639999975558
 20
-10.32812549519041
 30
0.0
 10
3.757453205270697
 20
-10.32771520330673
 30
0.0
 10
3.75622572046167
 20
-10.32736255573728
 30
0.0
 10
3.753919947892225
 20
-10.32669455986055
 30
0.0
 10
3.751553140166531
 20
-10.32617915187443
 30
0.0
 10
3.749159205704725
 20
-10.3257315607286
 30
0.0
 10
3.748074136260281
 20
-10.32552811020777
 30
0.0
 10
3.747016193551947
 20
-10.3252670153727
 30
0.0
 10
3.745917560739447
 20
-10.32511103664006
 30
0.0
 10
3.742397866729031
 20
-10.324609192022
 30
0.0
 10
3.738823919246392
 20
-10.32429214829371
 30
0.0
 10
3.735161809871392
 20
-10.32429214829371
 30
0.0
 10
3.731499700496392
 20
-10.32429214829371
 30
0.0
 10
3.727925753013753
 20
-10.324609192022
 30
0.0
 10
3.724406059003336
 20
-10.32511103664006
 30
0.0
 10
3.723307426190836
 20
-10.3252670153727
 30
0.0
 10
3.722249483482503
 20
-10.32552811020777
 30
0.0
 10
3.721164414038058
 20
-10.3257315607286
 30
0.0
 10
3.718770479576253
 20
-10.32617915187443
 30
0.0
 10
3.716403671850558
 20
-10.32669455986055
 30
0.0
 10
3.714091117597086
 20
-10.32736255573728
 30
0.0
 10
3.712870414472086
 20
-10.32771520330673
 30
0.0
 10
3.711683619767225
 20
-10.32812210434839
 30
0.0
 10
3.710490043378336
 20
-10.32853409165308
 30
0.0
 10
3.708360594593614
 20
-10.32926820894909
 30
0.0
 10
3.706285399281114
 20
-10.33008540187443
 30
0.0
 10
3.704250894072781
 20
-10.33099753837617
 30
0.0
 10
3.703098007788058
 20
-10.33151294636228
 30
0.0
 10
3.701958684871392
 20
-10.33202157266436
 30
0.0
 10
3.700846488690836
 20
-10.3325912341227
 30
0.0
 10
3.698764511694308
 20
-10.33364917683103
 30
0.0
 10
3.696770696590142
 20
-10.33482579900985
 30
0.0
 10
3.694810789906114
 20
-10.33606345634492
 30
0.0
 10
3.693881699194308
 20
-10.33664837659232
 30
0.0
 10
3.692925481746392
 20
-10.3371824342095
 30
0.0
 10
3.692030299454725
 20
-10.33780465371905
 30
0.0
 10
3.689310844159586
 20
-10.33968487561575
 30
0.0
 10
3.68670667749292
 20
-10.34170581745603
 30
0.0
 10
3.68426527124292
 20
-10.34391664644909
 30
0.0
 10
3.684197454402642
 20
-10.34397429076332
 30
0.0
 10
3.684129637562364
 20
-10.34402176255152
 30
0.0
 10
3.684068602406114
 20
-10.34407940686575
 30
0.0
 10
3.68157972436792
 20
-10.34634618475204
 30
0.0
 10
3.679280733482503
 20
-10.34881132689614
 30
0.0
 10
3.677110594593614
 20
-10.35138836682669
 30
0.0
 10
3.676412081138753
 20
-10.3522191231201
 30
0.0
 10
3.675801729576253
 20
-10.35311260999075
 30
0.0
 10
3.675137124541531
 20
-10.35397388386228
 30
0.0
 10
3.674140216989447
 20
-10.35526579466957
 30
0.0
 10
3.673082274281114
 20
-10.35650345200464
 30
0.0
 10
3.672166746937364
 20
-10.35785809338919
 30
0.0
 10
3.672166746937364
 20
-10.35785809338919
 30
0.0
 10
3.621053194420003
 20
-10.35785809338919
 30
0.0
 10
3.621053194420003
 20
-10.35785809338919
 30
0.0
 10
3.620978595895697
 20
-10.35770889634058
 30
0.0
 10
3.620876870635281
 20
-10.35757834892305
 30
0.0
 10
3.620795490426947
 20
-10.35742915187443
 30
0.0
 10
3.62048353296167
 20
-10.35681540946992
 30
0.0
 10
3.620069850235975
 20
-10.35626778848468
 30
0.0
 10
3.619744329402642
 20
-10.3556625231852
 30
0.0
 10
3.61792005639917
 20
-10.35231067585447
 30
0.0
 10
3.61596693139917
 20
-10.34905038125811
 30
0.0
 10
3.613776447458197
 20
-10.34595793334145
 30
0.0
 10
3.612691378013753
 20
-10.34442188190916
 30
0.0
 10
3.611457111520697
 20
-10.34302485499943
 30
0.0
 10
3.610283880183892
 20
-10.34156170667044
 30
0.0
 10
3.608649494333197
 20
-10.33951872435707
 30
0.0
 10
3.607015108482503
 20
-10.33748760999075
 30
0.0
 10
3.605217962215142
 20
-10.33558873846298
 30
0.0
 10
3.603766681833197
 20
-10.3340560778727
 30
0.0
 10
3.602220457874864
 20
-10.33264548759492
 30
0.0
 10
3.600674233916531
 20
-10.33121285684405
 30
0.0
 10
3.598897432701253
 20
-10.32956999388832
 30
0.0
 10
3.597100286433892
 20
-10.32797290729978
 30
0.0
 10
3.595208196590142
 20
-10.32647076428763
 30
0.0
 10
3.593533120635281
 20
-10.3251449450602
 30
0.0
 10
3.591810572892225
 20
-10.32390389688311
 30
0.0
 10
3.590047335045003
 20
-10.32269336628416
 30
0.0
 10
3.588026393204725
 20
-10.32130312105846
 30
0.0
 10
3.585951197892225
 20
-10.32001460109318
 30
0.0
 10
3.583821749107503
 20
-10.31878372544214
 30
0.0
 10
3.582017821156114
 20
-10.31774612778589
 30
0.0
 10
3.580220674888753
 20
-10.31673735228676
 30
0.0
 10
3.578342148413058
 20
-10.315820129522
 30
0.0
 10
3.57598890405542
 20
-10.31466385239527
 30
0.0
 10
3.573554279489447
 20
-10.31368050821124
 30
0.0
 10
3.571099309871392
 20
-10.31272429076332
 30
0.0
 10
3.569281818551947
 20
-10.31202238646645
 30
0.0
 10
3.56750501733667
 20
-10.31127640122339
 30
0.0
 10
3.565640054229031
 20
-10.31068809013398
 30
0.0
 10
3.56274427514917
 20
-10.30977256279023
 30
0.0
 10
3.559760334176947
 20
-10.30911304401853
 30
0.0
 10
3.556756048152642
 20
-10.30848065198294
 30
0.0
 10
3.55517591577417
 20
-10.30815004488659
 30
0.0
 10
3.553643255183892
 20
-10.30769906289874
 30
0.0
 10
3.552035996069308
 20
-10.30744814058971
 30
0.0
 10
3.547349852406114
 20
-10.30671571871471
 30
0.0
 10
3.542555201798475
 20
-10.30627660467391
 30
0.0
 10
3.537652044246392
 20
-10.30627660467391
 30
0.0
 10
3.532748886694308
 20
-10.30627660467391
 30
0.0
 10
3.527961017770697
 20
-10.30671571871471
 30
0.0
 10
3.523268092423475
 20
-10.30744814058971
 30
0.0
 10
3.521660833308892
 20
-10.30769906289874
 30
0.0
 10
3.520128172718614
 20
-10.30815004488659
 30
0.0
 10
3.518548040340142
 20
-10.30848065198294
 30
0.0
 10
3.515543754315836
 20
-10.30911304401853
 30
0.0
 10
3.512559813343614
 20
-10.30977256279023
 30
0.0
 10
3.509670815947781
 20
-10.31068809013398
 30
0.0
 10
3.507799071156114
 20
-10.31127640122339
 30
0.0
 10
3.506022269940836
 20
-10.31202238646645
 30
0.0
 10
3.50421156030542
 20
-10.31272429076332
 30
0.0
 10
3.501749809003336
 20
-10.31368050821124
 30
0.0
 10
3.499315184437364
 20
-10.31466554781628
 30
0.0
 10
3.496961940079725
 20
-10.315820129522
 30
0.0
 10
3.495083413604031
 20
-10.31673735228676
 30
0.0
 10
3.49328626733667
 20
-10.31774612778589
 30
0.0
 10
3.491482339385281
 20
-10.31878542086315
 30
0.0
 10
3.489352890600558
 20
-10.32001290567218
 30
0.0
 10
3.487284476972086
 20
-10.32129973021645
 30
0.0
 10
3.485263535131808
 20
-10.32268658460013
 30
0.0
 10
3.483493515600558
 20
-10.32390220146211
 30
0.0
 10
3.481770967857503
 20
-10.32514833590221
 30
0.0
 10
3.480089110218614
 20
-10.32647754597166
 30
0.0
 10
3.478203802058892
 20
-10.32797290729978
 30
0.0
 10
3.476420219159586
 20
-10.3295649076253
 30
0.0
 10
3.474650199628336
 20
-10.33119759805499
 30
0.0
 10
3.473097193985975
 20
-10.33263870591089
 30
0.0
 10
3.471537406659586
 20
-10.33405777329371
 30
0.0
 10
3.470079344593614
 20
-10.33560060641003
 30
0.0
 10
3.468302543378336
 20
-10.33748082830673
 30
0.0
 10
3.466688502579725
 20
-10.33948820677895
 30
0.0
 10
3.465067680097086
 20
-10.34150914861923
 30
0.0
 10
3.463874103708197
 20
-10.34299603284232
 30
0.0
 10
3.462619492163058
 20
-10.34441849106714
 30
0.0
 10
3.461520859350558
 20
-10.34597658297253
 30
0.0
 10
3.459391410565836
 20
-10.34898256441784
 30
0.0
 10
3.457499320722086
 20
-10.35215639254284
 30
0.0
 10
3.455715737822781
 20
-10.35540821003416
 30
0.0
 10
3.455335963517225
 20
-10.35611011433103
 30
0.0
 10
3.454861245635281
 20
-10.35674589720864
 30
0.0
 10
3.454495034697781
 20
-10.35745797403155
 30
0.0
 10
3.454427217857503
 20
-10.35759530313311
 30
0.0
 10
3.454325492597086
 20
-10.35771906886662
 30
0.0
 10
3.454257675756808
 20
-10.35785809338919
 30
0.0
 10
3.454257675756808
 20
-10.35785809338919
 30
0.0
 10
3.408040499107503
 20
-10.35785809338919
 30
0.0
 10
3.408040499107503
 20
-10.35785809338919
 30
0.0
 10
3.407904865426947
 20
-10.35748679618867
 30
0.0
 10
3.407687851538058
 20
-10.35715449367131
 30
0.0
 10
3.407545436173475
 20
-10.3567848918918
 30
0.0
 10
3.405510930965142
 20
-10.35145618366697
 30
0.0
 10
3.403164468291531
 20
-10.3462868450168
 30
0.0
 10
3.400438231312364
 20
-10.34134638820256
 30
0.0
 10
3.40032972436792
 20
-10.34114293768173
 30
0.0
 10
3.400200872371392
 20
-10.34094965968693
 30
0.0
 10
3.40008558374292
 20
-10.3407462091661
 30
0.0
 10
3.394280462215142
 20
-10.33037362344561
 30
0.0
 10
3.387030841989447
 20
-10.32094369180499
 30
0.0
 10
3.378580863690836
 20
-10.31272429076332
 30
0.0
 10
3.378404539906114
 20
-10.31255644408364
 30
0.0
 10
3.378248561173475
 20
-10.31237842487791
 30
0.0
 10
3.378072237388753
 20
-10.31221057819822
 30
0.0
 10
3.37402357202417
 20
-10.30831619614527
 30
0.0
 10
3.369676512562364
 20
-10.30474224866263
 30
0.0
 10
3.365119220895697
 20
-10.30143617769909
 30
0.0
 10
3.36462415796167
 20
-10.30108013928763
 30
0.0
 10
3.364149440079725
 20
-10.30071562377114
 30
0.0
 10
3.363654377145697
 20
-10.30036636704371
 30
0.0
 10
3.359212374107503
 20
-10.29724509696992
 30
0.0
 10
3.354546575496392
 20
-10.29443578436141
 30
0.0
 10
3.349690889732503
 20
-10.29192486585013
 30
0.0
 10
3.34899915796167
 20
-10.29156543659666
 30
0.0
 10
3.348307426190836
 20
-10.29121787529023
 30
0.0
 10
3.347608912735975
 20
-10.29087031398381
 30
0.0
 10
3.342766790340142
 20
-10.28848316120603
 30
0.0
 10
3.337755125843614
 20
-10.28639609794648
 30
0.0
 10
3.332573919246392
 20
-10.28466337767739
 30
0.0
 10
3.331821152319308
 20
-10.28441075994735
 30
0.0
 10
3.33105482202417
 20
-10.28419713690048
 30
0.0
 10
3.330295273413058
 20
-10.2839597779595
 30
0.0
 10
3.325005559871392
 20
-10.28230843789874
 30
0.0
 10
3.319586994333197
 20
-10.28095210109318
 30
0.0
 10
3.314005668378336
 20
-10.28003657374943
 30
0.0
 10
3.31341566186792
 20
-10.27993823933103
 30
0.0
 10
3.312812091989447
 20
-10.27989246296385
 30
0.0
 10
3.312215303795003
 20
-10.27980260565048
 30
0.0
 10
3.306355928795003
 20
-10.27893115925291
 30
0.0
 10
3.300388046850558
 20
-10.2783920153727
 30
0.0
 10
3.294284531225558
 20
-10.27838862453068
 30
0.0
 10
3.294270967857503
 20
-10.27838862453068
 30
0.0
 10
3.29425062280542
 20
-10.27838523368867
 30
0.0
 10
3.294237059437364
 20
-10.27838523368867
 30
0.0
 10
3.294223496069308
 20
-10.27838523368867
 30
0.0
 10
3.294203151017225
 20
-10.27838862453068
 30
0.0
 10
3.29418958764917
 20
-10.27838862453068
 30
0.0
 10
3.288079290340142
 20
-10.2783920153727
 30
0.0
 10
3.282111408395697
 20
-10.27893115925291
 30
0.0
 10
3.276252033395697
 20
-10.27980260565048
 30
0.0
 10
3.275662026885281
 20
-10.27989076754284
 30
0.0
 10
3.275058457006808
 20
-10.27993823933103
 30
0.0
 10
3.274468450496392
 20
-10.28003657374943
 30
0.0
 10
3.268887124541531
 20
-10.28095210109318
 30
0.0
 10
3.263461777319308
 20
-10.28230843789874
 30
0.0
 10
3.258165282093614
 20
-10.28396147338051
 30
0.0
 10
3.257412515166531
 20
-10.28419713690048
 30
0.0
 10
3.25665296655542
 20
-10.28441075994735
 30
0.0
 10
3.255906981312364
 20
-10.28466168225638
 30
0.0
 10
3.250718993031114
 20
-10.28639440252548
 30
0.0
 10
3.245700546850558
 20
-10.28848485662704
 30
0.0
 10
3.240851642770697
 20
-10.29087540024683
 30
0.0
 10
3.240159910999864
 20
-10.29121957071124
 30
0.0
 10
3.239474960913058
 20
-10.29156374117565
 30
0.0
 10
3.238783229142225
 20
-10.29191977958711
 30
0.0
 10
3.233927543378336
 20
-10.2944323935194
 30
0.0
 10
3.229261744767225
 20
-10.29724170612791
 30
0.0
 10
3.224812960045003
 20
-10.30036636704371
 30
0.0
 10
3.224317897110975
 20
-10.30071562377114
 30
0.0
 10
3.223843179229031
 20
-10.30108183470864
 30
0.0
 10
3.223354897979031
 20
-10.3014378731201
 30
0.0
 10
3.218797606312364
 20
-10.30474224866263
 30
0.0
 10
3.214450546850558
 20
-10.30830941446124
 30
0.0
 10
3.210401881485975
 20
-10.31220210109318
 30
0.0
 10
3.210218776017225
 20
-10.31237842487791
 30
0.0
 10
3.210056015600558
 20
-10.31256661660968
 30
0.0
 10
3.209872910131808
 20
-10.31274463581541
 30
0.0
 10
3.201443276885281
 20
-10.320947082647
 30
0.0
 10
3.194200438343614
 20
-10.33035497381454
 30
0.0
 10
3.188408880183892
 20
-10.34070551906193
 30
0.0
 10
3.188286809871392
 20
-10.34092931463485
 30
0.0
 10
3.188144394506808
 20
-10.34114293768173
 30
0.0
 10
3.188015542510281
 20
-10.34136673325464
 30
0.0
 10
3.185296087215142
 20
-10.34629701754284
 30
0.0
 10
3.182963187909586
 20
-10.35145448824596
 30
0.0
 10
3.180928682701253
 20
-10.35676793768173
 30
0.0
 10
3.18078626733667
 20
-10.35714432114527
 30
0.0
 10
3.180569253447781
 20
-10.35748001450464
 30
0.0
 10
3.180426838083197
 20
-10.35785809338919
 30
0.0
 10
3.180426838083197
 20
-10.35785809338919
 30
0.0
 10
3.116909585479031
 20
-10.35785809338919
 30
0.0
 10
3.116909585479031
 20
-10.35785809338919
 30
0.0
 10
3.016995034697781
 20
-10.32585532646211
 30
0.0
 10
2.933661701364447
 20
-10.25863527437878
 30
0.0
 10
2.853719210045003
 20
-10.19319202351072
 30
0.0
 10
2.586290282093614
 20
-9.974275872252038
 30
0.0
 10
2.494022080053683
 20
-9.728595804977733
 30
0.0
 10
1.767530787735975
 20
-9.744882019170442
 30
0.0
 10
1.746209173152642
 20
-9.7453601278944
 30
0.0
 10
1.744974906659586
 20
-9.747065721427386
 30
0.0
 10
1.751973604576253
 20
-9.768119459491622
 30
0.0
 10
1.763746608048475
 20
-9.803552063115754
 30
0.0
 10
1.780704208959934
 20
-9.836132968606206
 30
0.0
 10
1.80633558374292
 20
-9.863780198966449
 30
0.0
 10
1.81018079858667
 20
-9.867933980433463
 30
0.0
 10
1.813263073977295
 20
-9.872793057039365
 30
0.0
 10
1.81840359047035
 20
-9.879567959383115
 30
0.0
 10
1.80517591577417
 20
-9.881685540220788
 30
0.0
 10
1.796844616946045
 20
-9.877531758753776
 30
0.0
 10
1.788296304229031
 20
-9.875463345125302
 30
0.0
 10
1.5860427506266
 20
-9.826530104022872
 30
0.0
 10
1.401797958959934
 20
-9.853660230975997
 30
0.0
 10
1.397311874975559
 20
-9.866291117477733
 30
0.0
 10
1.393520913604031
 20
-9.876967183558463
 30
0.0
 10
1.409003498239447
 20
-9.886236050203427
 30
0.0
 10
1.41625990014917
 20
-9.895698194843185
 30
0.0
 10
1.443278129315836
 20
-9.930951083840581
 30
0.0
 10
1.467807480444309
 20
-9.96752301038138
 30
0.0
 10
1.487040336347086
 20
-10.01311796752114
 30
0.0
 10
1.443274738473822
 20
-10.00261313896211
 30
0.0
 10
1.289991725235975
 20
-9.953069546297177
 30
0.0
 10
1.123358966989447
 20
-9.991299594582769
 30
0.0
 10
1.127960339602295
 20
-10.00083633774683
 30
0.0
 10
1.212860241946045
 20
-10.07402766261662
 30
0.0
 10
1.225118135826253
 20
-10.12109594061141
 30
0.0
 10
0.9987896039252114
 20
-10.06457908134492
 30
0.0
 10
0.5618762195936142
 20
-10.34957765719128
 30
0.0
 10
0.5566509320502114
 20
-10.35785809338919
 30
0.0
 10
0.5566509320502114
 20
-10.35785809338919
 30
0.0
 10
0.3709582508436142
 20
-10.35785809338919
 30
0.0
 10
0.3709582508436142
 20
-10.35785809338919
 30
0.0
 10
0.3707954904269475
 20
-10.35765294744735
 30
0.0
 10
0.370598821590142
 20
-10.35747323282061
 30
0.0
 10
0.3704326703314614
 20
-10.35726978229978
 30
0.0
 10
0.3691882313123642
 20
-10.35574051255152
 30
0.0
 10
0.3678793662950031
 20
-10.35428245048555
 30
0.0
 10
0.366509466121392
 20
-10.35286846936575
 30
0.0
 10
0.3660652658175725
 20
-10.35241240111489
 30
0.0
 10
0.3656108929877114
 20
-10.35197328707409
 30
0.0
 10
0.3651565201578503
 20
-10.35152908677027
 30
0.0
 10
0.3636577679877114
 20
-10.35006424302027
 30
0.0
 10
0.3621352799234753
 20
-10.34864008937443
 30
0.0
 10
0.3605076757568086
 20
-10.34731766098902
 30
0.0
 10
0.3603788237602809
 20
-10.34721254488659
 30
0.0
 10
0.3602364083956975
 20
-10.34712438299423
 30
0.0
 10
0.3601075563991697
 20
-10.3470192668918
 30
0.0
 10
0.3568862564859753
 20
-10.34444222696124
 30
0.0
 10
0.3534242067897947
 20
-10.342187317022
 30
0.0
 10
0.3497654882568086
 20
-10.34022741033798
 30
0.0
 10
0.3490398480658364
 20
-10.33983407266436
 30
0.0
 10
0.3483413346109753
 20
-10.33939665404457
 30
0.0
 10
0.3475953493679197
 20
-10.33903044310707
 30
0.0
 10
0.3462390125623642
 20
-10.33836583807235
 30
0.0
 10
0.3448352039686142
 20
-10.33780973998207
 30
0.0
 10
0.3434280045328503
 20
-10.33723329683971
 30
0.0
 10
0.3420818402533364
 20
-10.33668058959145
 30
0.0
 10
0.3407288942897947
 20
-10.33614992281628
 30
0.0
 10
0.3393420399061142
 20
-10.33568368203936
 30
0.0
 10
0.338097600887017
 20
-10.33526660847166
 30
0.0
 10
0.336846380183892
 20
-10.33489022500811
 30
0.0
 10
0.3355680327446559
 20
-10.33454605454371
 30
0.0
 10
0.3338081857394475
 20
-10.33406625039874
 30
0.0
 10
0.3320110394720864
 20
-10.33368478067218
 30
0.0
 10
0.3301969389946559
 20
-10.33335078273381
 30
0.0
 10
0.3291491688123642
 20
-10.33315920016003
 30
0.0
 10
0.3281217436821559
 20
-10.3329320137451
 30
0.0
 10
0.3270604101318086
 20
-10.33279129380152
 30
0.0
 10
0.3241137684217392
 20
-10.33239117444388
 30
0.0
 10
0.3211196549234753
 20
-10.33213347045082
 30
0.0
 10
0.3180611154269475
 20
-10.33213347045082
 30
0.0
 10
0.3180577245849336
 20
-10.33213347045082
 30
0.0
 10
0.3180577245849336
 20
-10.33213347045082
 30
0.0
 10
0.3180577245849336
 20
-10.33213347045082
 30
0.0
 10
0.3145346397325031
 20
-10.33213347045082
 30
0.0
 10
0.3110725900363225
 20
-10.33240134696992
 30
0.0
 10
0.3076919205484753
 20
-10.33291675495603
 30
0.0
 10
0.2840374066595864
 20
-10.33653139254284
 30
0.0
 10
0.2643874771891003
 20
-10.35232593464353
 30
0.0
 10
0.2553474923800725
 20
-10.37370010727808
 30
0.0
 10
0.2519057877359753
 20
-10.38184151895343
 30
0.0
 10
0.2500001345241697
 20
-10.3907933418701
 30
0.0
 10
0.2500001345241697
 20
-10.40018936509058
 30
0.0
 10
0.2500001345241697
 20
-10.40019106051159
 30
0.0
 10
0.2500001345241697
 20
-10.40019106051159
 30
0.0
 10
0.2500001345241697
 20
-10.40019106051159
 30
0.0
 10
0.2500001345241697
 20
-10.4001927559326
 30
0.0
 10
0.2500001345241697
 20
-10.4001944513536
 30
0.0
 10
0.2500001345241697
 20
-10.4001944513536
 30
0.0
 10
0.2500001345241697
 20
-10.40959047457409
 30
0.0
 10
0.2519057877359753
 20
-10.41854229749075
 30
0.0
 10
0.2553474923800725
 20
-10.4266837091661
 30
0.0
 10
0.2643874771891003
 20
-10.44805788180065
 30
0.0
 10
0.2840374066595864
 20
-10.46385072848034
 30
0.0
 10
0.3076919205484753
 20
-10.46746536606714
 30
0.0
 10
0.3110725900363225
 20
-10.46798246947426
 30
0.0
 10
0.3145346397325031
 20
-10.46825034599336
 30
0.0
 10
0.3180577245849336
 20
-10.46825034599336
 30
0.0
 10
0.3180577245849336
 20
-10.46825034599336
 30
0.0
 10
0.3180611154269475
 20
-10.46825034599336
 30
0.0
 10
0.3180611154269475
 20
-10.46825034599336
 30
0.0
 10
0.3211196549234753
 20
-10.46825034599336
 30
0.0
 10
0.3241137684217392
 20
-10.4679909465793
 30
0.0
 10
0.3270604101318086
 20
-10.46759421806367
 30
0.0
 10
0.3281217436821559
 20
-10.46745180269909
 30
0.0
 10
0.3291491688123642
 20
-10.46722461628416
 30
0.0
 10
0.3301969389946559
 20
-10.46703472913138
 30
0.0
 10
0.3320110394720864
 20
-10.466699035772
 30
0.0
 10
0.3338081857394475
 20
-10.46631587062443
 30
0.0
 10
0.3355680327446559
 20
-10.46583776190048
 30
0.0
 10
0.336846380183892
 20
-10.46549528685707
 30
0.0
 10
0.338097600887017
 20
-10.46511551255152
 30
0.0
 10
0.3393420399061142
 20
-10.46470182982582
 30
0.0
 10
0.3407288942897947
 20
-10.46423389362791
 30
0.0
 10
0.3420818402533364
 20
-10.46370492227374
 30
0.0
 10
0.3434280045328503
 20
-10.46314882418346
 30
0.0
 10
0.3448352039686142
 20
-10.46257577188311
 30
0.0
 10
0.3462390125623642
 20
-10.46201628295082
 30
0.0
 10
0.3475953493679197
 20
-10.4613516779161
 30
0.0
 10
0.3483413346109753
 20
-10.4609854669786
 30
0.0
 10
0.3490398480658364
 20
-10.46055143920082
 30
0.0
 10
0.3497654882568086
 20
-10.46015810152721
 30
0.0
 10
0.3534242067897947
 20
-10.45819480400117
 30
0.0
 10
0.3568862564859753
 20
-10.45594328490395
 30
0.0
 10
0.3601075563991697
 20
-10.45336454955239
 30
0.0
 10
0.3602364083956975
 20
-10.45326112887096
 30
0.0
 10
0.3603788237602809
 20
-10.45316957613659
 30
0.0
 10
0.3605076757568086
 20
-10.45306446003416
 30
0.0
 10
0.3621352799234753
 20
-10.45174203164874
 30
0.0
 10
0.3636577679877114
 20
-10.45031787800291
 30
0.0
 10
0.3651565201578503
 20
-10.44885303425291
 30
0.0
 10
0.3656108929877114
 20
-10.44840883394909
 30
0.0
 10
0.3660652658175725
 20
-10.4479714153293
 30
0.0
 10
0.366509466121392
 20
-10.44751534707843
 30
0.0
 10
0.3678793662950031
 20
-10.44609967053763
 30
0.0
 10
0.3691882313123642
 20
-10.44464499931367
 30
0.0
 10
0.3704326703314614
 20
-10.44311572956541
 30
0.0
 10
0.370598821590142
 20
-10.44291227904457
 30
0.0
 10
0.3707954904269475
 20
-10.44273256441784
 30
0.0
 10
0.3709582508436142
 20
-10.44252572305499
 30
0.0
 10
0.3709582508436142
 20
-10.44252572305499
 30
0.0
 10
0.5566509320502114
 20
-10.44252572305499
 30
0.0
 10
0.5566509320502114
 20
-10.44252572305499
 30
0.0
 10
0.5618762195936142
 20
-10.45080615925291
 30
0.0
 10
0.9987896039252114
 20
-10.73580473509926
 30
0.0
 10
1.225118135826253
 20
-10.67928787583277
 30
0.0
 10
1.212860241946045
 20
-10.72635615382756
 30
0.0
 10
1.127960339602295
 20
-10.79954747869735
 30
0.0
 10
1.123358966989447
 20
-10.80908422186141
 30
0.0
 10
1.289991725235975
 20
-10.847314270147
 30
0.0
 10
1.443274738473822
 20
-10.79777067748207
 30
0.0
 10
1.487040336347086
 20
-10.78726584892305
 30
0.0
 10
1.467807480444309
 20
-10.8328608060628
 30
0.0
 10
1.443278129315836
 20
-10.8694327326036
 30
0.0
 10
1.41625990014917
 20
-10.904685621601
 30
0.0
 10
1.409003498239447
 20
-10.91414776624075
 30
0.0
 10
1.393520913604031
 20
-10.92341663288572
 30
0.0
 10
1.397311874975559
 20
-10.93409269896645
 30
0.0
 10
1.401797958959934
 20
-10.94672358546818
 30
0.0
 10
1.5860427506266
 20
-10.97385371242131
 30
0.0
 10
1.788296304229031
 20
-10.92492047131888
 30
0.0
 10
1.796844616946045
 20
-10.92285205769041
 30
0.0
 10
1.80517591577417
 20
-10.91869827622339
 30
0.0
 10
1.81840359047035
 20
-10.92081585706107
 30
0.0
 10
1.813263073977295
 20
-10.92759075940482
 30
0.0
 10
1.81018079858667
 20
-10.93244983601072
 30
0.0
 10
1.80633558374292
 20
-10.93660361747773
 30
0.0
 10
1.780704208959934
 20
-10.96425084783798
 30
0.0
 10
1.763746608048475
 20
-10.99683175332843
 30
0.0
 10
1.751973604576253
 20
-11.03226435695256
 30
0.0
 10
1.744974906659586
 20
-11.0533180950168
 30
0.0
 10
1.746209173152642
 20
-11.05502368854978
 30
0.0
 10
1.767530787735975
 20
-11.05550179727374
 30
0.0
 10
2.494022080053683
 20
-11.07178801146645
 30
0.0
 10
2.586290282093614
 20
-10.82610794419214
 30
0.0
 10
2.853719210045003
 20
-10.60719179293346
 30
0.0
 10
2.933661701364447
 20
-10.54174854206541
 30
0.0
 10
3.016995034697781
 20
-10.47452848998207
 30
0.0
 10
3.116909585479031
 20
-10.44252572305499
 30
0.0
 10
3.116909585479031
 20
-10.44252572305499
 30
0.0
 10
3.180426838083197
 20
-10.44252572305499
 30
0.0
 10
3.180426838083197
 20
-10.44252572305499
 30
0.0
 10
3.180569253447781
 20
-10.44290210651853
 30
0.0
 10
3.18078626733667
 20
-10.44324119071992
 30
0.0
 10
3.180928682701253
 20
-10.44361587876246
 30
0.0
 10
3.182963187909586
 20
-10.44893102361923
 30
0.0
 10
3.185296087215142
 20
-10.45408849432235
 30
0.0
 10
3.188015542510281
 20
-10.45901538776853
 30
0.0
 10
3.188144394506808
 20
-10.45924257418346
 30
0.0
 10
3.188286809871392
 20
-10.45945450180933
 30
0.0
 10
3.188408880183892
 20
-10.45967999280325
 30
0.0
 10
3.194200438343614
 20
-10.47002884262964
 30
0.0
 10
3.201443276885281
 20
-10.47943673379718
 30
0.0
 10
3.209872910131808
 20
-10.48764087604978
 30
0.0
 10
3.210056015600558
 20
-10.4878171998345
 30
0.0
 10
3.210218776017225
 20
-10.48800369614527
 30
0.0
 10
3.210401881485975
 20
-10.48818001992999
 30
0.0
 10
3.214457328534586
 20
-10.49207609740395
 30
0.0
 10
3.218804387996392
 20
-10.49564665404457
 30
0.0
 10
3.223361679663058
 20
-10.49895272500811
 30
0.0
 10
3.223849960913058
 20
-10.49930537257756
 30
0.0
 10
3.224317897110975
 20
-10.49966819267305
 30
0.0
 10
3.224806178360975
 20
-10.50001236313746
 30
0.0
 10
3.229254963083197
 20
-10.50313871947426
 30
0.0
 10
3.233927543378336
 20
-10.50594972750378
 30
0.0
 10
3.238783229142225
 20
-10.50846403685707
 30
0.0
 10
3.239474960913058
 20
-10.50882007526853
 30
0.0
 10
3.240159910999864
 20
-10.50916594115395
 30
0.0
 10
3.240851642770697
 20
-10.50950841619735
 30
0.0
 10
3.245700546850558
 20
-10.51189895981714
 30
0.0
 10
3.250718993031114
 20
-10.5139877184977
 30
0.0
 10
3.255906981312364
 20
-10.5157221341878
 30
0.0
 10
3.25665296655542
 20
-10.51597305649683
 30
0.0
 10
3.257412515166531
 20
-10.5161849841227
 30
0.0
 10
3.258165282093614
 20
-10.51642234306367
 30
0.0
 10
3.263461777319308
 20
-10.51807537854544
 30
0.0
 10
3.268887124541531
 20
-10.51943001992999
 30
0.0
 10
3.274468450496392
 20
-10.52034893811575
 30
0.0
 10
3.275058457006808
 20
-10.52044388169214
 30
0.0
 10
3.275662026885281
 20
-10.52049135348034
 30
0.0
 10
3.276252033395697
 20
-10.5205795153727
 30
0.0
 10
3.282111408395697
 20
-10.52145435261228
 30
0.0
 10
3.288079290340142
 20
-10.52199349649249
 30
0.0
 10
3.29418958764917
 20
-10.5219951919135
 30
0.0
 10
3.294203151017225
 20
-10.5219951919135
 30
0.0
 10
3.294223496069308
 20
-10.52199858275551
 30
0.0
 10
3.294237059437364
 20
-10.52199858275551
 30
0.0
 10
3.29425062280542
 20
-10.52199858275551
 30
0.0
 10
3.294270967857503
 20
-10.5219951919135
 30
0.0
 10
3.294284531225558
 20
-10.5219951919135
 30
0.0
 10
3.300388046850558
 20
-10.52199349649249
 30
0.0
 10
3.306355928795003
 20
-10.52145435261228
 30
0.0
 10
3.312215303795003
 20
-10.5205795153727
 30
0.0
 10
3.312812091989447
 20
-10.52049135348034
 30
0.0
 10
3.31341566186792
 20
-10.52044557711315
 30
0.0
 10
3.314005668378336
 20
-10.52034893811575
 30
0.0
 10
3.319586994333197
 20
-10.519431715351
 30
0.0
 10
3.325005559871392
 20
-10.51807707396645
 30
0.0
 10
3.330295273413058
 20
-10.51642403848468
 30
0.0
 10
3.33105482202417
 20
-10.51618667954371
 30
0.0
 10
3.331821152319308
 20
-10.51597136107582
 30
0.0
 10
3.332573919246392
 20
-10.5157204387668
 30
0.0
 10
3.337755125843614
 20
-10.5139877184977
 30
0.0
 10
3.342766790340142
 20
-10.51190235065916
 30
0.0
 10
3.347608912735975
 20
-10.50951180703936
 30
0.0
 10
3.348307426190836
 20
-10.50916594115395
 30
0.0
 10
3.34899915796167
 20
-10.50881668442652
 30
0.0
 10
3.349690889732503
 20
-10.50845895059405
 30
0.0
 10
3.354546575496392
 20
-10.50594633666176
 30
0.0
 10
3.359212374107503
 20
-10.50313702405325
 30
0.0
 10
3.363661158829725
 20
-10.50001236313746
 30
0.0
 10
3.364149440079725
 20
-10.49966649725204
 30
0.0
 10
3.36462415796167
 20
-10.49930537257756
 30
0.0
 10
3.36511243921167
 20
-10.49895272500811
 30
0.0
 10
3.369669730878336
 20
-10.49564495862357
 30
0.0
 10
3.374016790340142
 20
-10.49207101114093
 30
0.0
 10
3.378072237388753
 20
-10.48817323824596
 30
0.0
 10
3.378248561173475
 20
-10.48800708698728
 30
0.0
 10
3.378404539906114
 20
-10.48782737236055
 30
0.0
 10
3.378580863690836
 20
-10.48765952568086
 30
0.0
 10
3.387030841989447
 20
-10.4794418200602
 30
0.0
 10
3.394280462215142
 20
-10.47001188841957
 30
0.0
 10
3.40008558374292
 20
-10.45963760727808
 30
0.0
 10
3.400200872371392
 20
-10.45943246133624
 30
0.0
 10
3.40032972436792
 20
-10.45924257418346
 30
0.0
 10
3.400438231312364
 20
-10.45903573282061
 30
0.0
 10
3.403164468291531
 20
-10.45409527600638
 30
0.0
 10
3.405510930965142
 20
-10.44892763277721
 30
0.0
 10
3.407545436173475
 20
-10.44359892455239
 30
0.0
 10
3.407687851538058
 20
-10.44322762735186
 30
0.0
 10
3.407904865426947
 20
-10.44289871567652
 30
0.0
 10
3.408040499107503
 20
-10.44252572305499
 30
0.0
 10
3.408040499107503
 20
-10.44252572305499
 30
0.0
 10
3.454257675756808
 20
-10.44252572305499
 30
0.0
 10
3.454257675756808
 20
-10.44252572305499
 30
0.0
 10
3.454325492597086
 20
-10.44266474757756
 30
0.0
 10
3.454427217857503
 20
-10.44278681789006
 30
0.0
 10
3.454495034697781
 20
-10.44292584241263
 30
0.0
 10
3.454861245635281
 20
-10.44363791923555
 30
0.0
 10
3.455335963517225
 20
-10.44427539753416
 30
0.0
 10
3.455715737822781
 20
-10.44497730183103
 30
0.0
 10
3.457499320722086
 20
-10.44822742390135
 30
0.0
 10
3.459391410565836
 20
-10.45139955660534
 30
0.0
 10
3.461520859350558
 20
-10.45440723347166
 30
0.0
 10
3.462619492163058
 20
-10.45596702079805
 30
0.0
 10
3.463874103708197
 20
-10.45738778360186
 30
0.0
 10
3.465067680097086
 20
-10.45887466782496
 30
0.0
 10
3.466688502579725
 20
-10.46089391424423
 30
0.0
 10
3.468302543378336
 20
-10.46290468355846
 30
0.0
 10
3.470079344593614
 20
-10.46478321003416
 30
0.0
 10
3.471537406659586
 20
-10.46632604315048
 30
0.0
 10
3.473097193985975
 20
-10.46774511053329
 30
0.0
 10
3.474650199628336
 20
-10.46918452296818
 30
0.0
 10
3.476420219159586
 20
-10.47081890881888
 30
0.0
 10
3.478203802058892
 20
-10.47240921372339
 30
0.0
 10
3.480089110218614
 20
-10.47390457505152
 30
0.0
 10
3.481770967857503
 20
-10.47523717596298
 30
0.0
 10
3.483500297284586
 20
-10.47648500582409
 30
0.0
 10
3.485270316815836
 20
-10.47769892726506
 30
0.0
 10
3.487284476972086
 20
-10.47908239080673
 30
0.0
 10
3.489352890600558
 20
-10.48036751992999
 30
0.0
 10
3.491475557701253
 20
-10.48159330931801
 30
0.0
 10
3.493279485652642
 20
-10.48263260239527
 30
0.0
 10
3.495083413604031
 20
-10.48364476873641
 30
0.0
 10
3.496961940079725
 20
-10.48456538234318
 30
0.0
 10
3.499315184437364
 20
-10.48571826862791
 30
0.0
 10
3.501749809003336
 20
-10.48670500365395
 30
0.0
 10
3.50421156030542
 20
-10.48765952568086
 30
0.0
 10
3.506022269940836
 20
-10.48836142997773
 30
0.0
 10
3.507799071156114
 20
-10.48910571979978
 30
0.0
 10
3.509670815947781
 20
-10.4896957263102
 30
0.0
 10
3.512559813343614
 20
-10.49061125365395
 30
0.0
 10
3.515543754315836
 20
-10.49127246784666
 30
0.0
 10
3.518548040340142
 20
-10.49190316446124
 30
0.0
 10
3.520128172718614
 20
-10.4922354669786
 30
0.0
 10
3.521660833308892
 20
-10.49268644896645
 30
0.0
 10
3.523268092423475
 20
-10.49293567585447
 30
0.0
 10
3.527961017770697
 20
-10.49366640230846
 30
0.0
 10
3.532748886694308
 20
-10.49410721177027
 30
0.0
 10
3.537652044246392
 20
-10.49410721177027
 30
0.0
 10
3.542555201798475
 20
-10.49410721177027
 30
0.0
 10
3.547349852406114
 20
-10.49366640230846
 30
0.0
 10
3.552035996069308
 20
-10.49293567585447
 30
0.0
 10
3.553643255183892
 20
-10.49268644896645
 30
0.0
 10
3.55517591577417
 20
-10.4922354669786
 30
0.0
 10
3.556756048152642
 20
-10.49190316446124
 30
0.0
 10
3.559760334176947
 20
-10.49127077242565
 30
0.0
 10
3.56274427514917
 20
-10.49061125365395
 30
0.0
 10
3.565640054229031
 20
-10.4896957263102
 30
0.0
 10
3.56750501733667
 20
-10.48910571979978
 30
0.0
 10
3.569281818551947
 20
-10.48836142997773
 30
0.0
 10
3.571099309871392
 20
-10.48765783025985
 30
0.0
 10
3.573554279489447
 20
-10.48670330823294
 30
0.0
 10
3.57598890405542
 20
-10.48571826862791
 30
0.0
 10
3.578342148413058
 20
-10.48456538234318
 30
0.0
 10
3.580220674888753
 20
-10.48364646415742
 30
0.0
 10
3.582024602840142
 20
-10.48263599323728
 30
0.0
 10
3.583828530791531
 20
-10.48159500473902
 30
0.0
 10
3.585957979576253
 20
-10.48036751992999
 30
0.0
 10
3.588026393204725
 20
-10.47908239080673
 30
0.0
 10
3.590047335045003
 20
-10.47769553642305
 30
0.0
 10
3.591810572892225
 20
-10.47648331040308
 30
0.0
 10
3.593533120635281
 20
-10.47523717596298
 30
0.0
 10
3.595208196590142
 20
-10.47391135673555
 30
0.0
 10
3.597100286433892
 20
-10.47240921372339
 30
0.0
 10
3.598897432701253
 20
-10.47081212713485
 30
0.0
 10
3.600674233916531
 20
-10.46917095960013
 30
0.0
 10
3.602220457874864
 20
-10.46774002427027
 30
0.0
 10
3.603766681833197
 20
-10.46632943399249
 30
0.0
 10
3.605217962215142
 20
-10.46479507798121
 30
0.0
 10
3.607015108482503
 20
-10.46289620645343
 30
0.0
 10
3.608649494333197
 20
-10.46086509208711
 30
0.0
 10
3.610283880183892
 20
-10.45882210977374
 30
0.0
 10
3.611457111520697
 20
-10.45735726602374
 30
0.0
 10
3.612691378013753
 20
-10.45596023911402
 30
0.0
 10
3.613776447458197
 20
-10.45442757852374
 30
0.0
 10
3.61596693139917
 20
-10.45133343518607
 30
0.0
 10
3.61792005639917
 20
-10.44807314058971
 30
0.0
 10
3.619744329402642
 20
-10.44472298867999
 30
0.0
 10
3.620069850235975
 20
-10.4441160279595
 30
0.0
 10
3.62048353296167
 20
-10.44356840697426
 30
0.0
 10
3.620795490426947
 20
-10.44295466456975
 30
0.0
 10
3.620876870635281
 20
-10.44280716294214
 30
0.0
 10
3.620978595895697
 20
-10.4426749201036
 30
0.0
 10
3.621053194420003
 20
-10.44252572305499
 30
0.0
 10
3.621053194420003
 20
-10.44252572305499
 30
0.0
 10
3.672166746937364
 20
-10.44252572305499
 30
0.0
 10
3.672166746937364
 20
-10.44252572305499
 30
0.0
 10
3.673082274281114
 20
-10.44388375528155
 30
0.0
 10
3.674146998673475
 20
-10.44512480345864
 30
0.0
 10
3.675143906225558
 20
-10.44641840968693
 30
0.0
 10
3.675801729576253
 20
-10.44727459729544
 30
0.0
 10
3.676412081138753
 20
-10.44816469332409
 30
0.0
 10
3.677110594593614
 20
-10.44899205877548
 30
0.0
 10
3.679280733482503
 20
-10.45157079412704
 30
0.0
 10
3.681572942683892
 20
-10.45403593627114
 30
0.0
 10
3.684068602406114
 20
-10.45630610499943
 30
0.0
 10
3.684129637562364
 20
-10.45636374931367
 30
0.0
 10
3.684197454402642
 20
-10.45640783025985
 30
0.0
 10
3.68426527124292
 20
-10.45646547457409
 30
0.0
 10
3.68670667749292
 20
-10.45867630356714
 30
0.0
 10
3.689317625843614
 20
-10.46070063624943
 30
0.0
 10
3.692030299454725
 20
-10.46258255356714
 30
0.0
 10
3.692925481746392
 20
-10.46319968681367
 30
0.0
 10
3.693874917510281
 20
-10.46372865816784
 30
0.0
 10
3.694797226538058
 20
-10.46431188299423
 30
0.0
 10
3.696763914906114
 20
-10.46555293117131
 30
0.0
 10
3.698757730010281
 20
-10.46673294419214
 30
0.0
 10
3.700846488690836
 20
-10.46779258232148
 30
0.0
 10
3.701958684871392
 20
-10.46836054835881
 30
0.0
 10
3.703098007788058
 20
-10.46887256550291
 30
0.0
 10
3.704250894072781
 20
-10.46938627806801
 30
0.0
 10
3.706285399281114
 20
-10.47029841456975
 30
0.0
 10
3.708360594593614
 20
-10.4711173029161
 30
0.0
 10
3.710490043378336
 20
-10.4718497247911
 30
0.0
 10
3.711683619767225
 20
-10.47226171209579
 30
0.0
 10
3.712870414472086
 20
-10.47266691771645
 30
0.0
 10
3.714091117597086
 20
-10.47301956528589
 30
0.0
 10
3.716403671850558
 20
-10.47368756116263
 30
0.0
 10
3.718770479576253
 20
-10.47420296914874
 30
0.0
 10
3.721164414038058
 20
-10.47465225571558
 30
0.0
 10
3.722249483482503
 20
-10.47485401081541
 30
0.0
 10
3.723307426190836
 20
-10.47511849649249
 30
0.0
 10
3.724406059003336
 20
-10.47527447522513
 30
0.0
 10
3.727925753013753
 20
-10.47577462442218
 30
0.0
 10
3.731499700496392
 20
-10.47609166815048
 30
0.0
 10
3.735161809871392
 20
-10.47609166815048
 30
0.0
 10
3.738823919246392
 20
-10.47609166815048
 30
0.0
 10
3.742397866729031
 20
-10.47577462442218
 30
0.0
 10
3.745917560739447
 20
-10.47527447522513
 30
0.0
 10
3.747016193551947
 20
-10.47511849649249
 30
0.0
 10
3.748074136260281
 20
-10.47485401081541
 30
0.0
 10
3.749159205704725
 20
-10.47465225571558
 30
0.0
 10
3.751553140166531
 20
-10.47420296914874
 30
0.0
 10
3.753919947892225
 20
-10.47368925658364
 30
0.0
 10
3.75622572046167
 20
-10.4730212607069
 30
0.0
 10
3.757453205270697
 20
-10.47266691771645
 30
0.0
 10
3.758639999975558
 20
-10.47226001667478
 30
0.0
 10
3.759840358048475
 20
-10.47184633394909
 30
0.0
 10
3.76196302514917
 20
-10.47111391207409
 30
0.0
 10
3.764031438777642
 20
-10.47030010999075
 30
0.0
 10
3.766059162301947
 20
-10.46939136433103
 30
0.0
 10
3.767218830270697
 20
-10.46887426092391
 30
0.0
 10
3.768364934871392
 20
-10.4683588529378
 30
0.0
 10
3.769490694420003
 20
-10.46778749605846
 30
0.0
 10
3.771559108048475
 20
-10.46673294419214
 30
0.0
 10
3.773539359784586
 20
-10.46556140827635
 30
0.0
 10
3.775492484784586
 20
-10.4643288372043
 30
0.0
 10
3.77642835718042
 20
-10.46373883069388
 30
0.0
 10
3.777391356312364
 20
-10.46320307765568
 30
0.0
 10
3.778300101972086
 20
-10.46257407646211
 30
0.0
 10
3.780965303795003
 20
-10.46072606756454
 30
0.0
 10
3.783521998673475
 20
-10.45873733872339
 30
0.0
 10
3.785929496503336
 20
-10.45657059067652
 30
0.0
 10
3.786085475235975
 20
-10.45643156615395
 30
0.0
 10
3.786248235652642
 20
-10.45629932331541
 30
0.0
 10
3.786397432701253
 20
-10.45615690795082
 30
0.0
 10
3.788832057267225
 20
-10.4539291247477
 30
0.0
 10
3.791083576364447
 20
-10.45152162691784
 30
0.0
 10
3.793206243465142
 20
-10.4489988404595
 30
0.0
 10
3.793911538604031
 20
-10.44816469332409
 30
0.0
 10
3.794528671850558
 20
-10.44726612019041
 30
0.0
 10
3.795193276885281
 20
-10.44640145547686
 30
0.0
 10
3.796183402753336
 20
-10.44511293551159
 30
0.0
 10
3.797248127145697
 20
-10.44387866901853
 30
0.0
 10
3.79815687280542
 20
-10.44252572305499
 30
0.0
 10
3.79815687280542
 20
-10.44252572305499
 30
0.0
 10
8.20184339624292
 20
-10.44252572305499
 30
0.0
 10
8.20184339624292
 20
-10.44252572305499
 30
0.0
 10
8.202752141902641
 20
-10.44387866901853
 30
0.0
 10
8.203816866295004
 20
-10.44511293551159
 30
0.0
 10
8.204806992163059
 20
-10.44640145547686
 30
0.0
 10
8.20547159719778
 20
-10.44726612019041
 30
0.0
 10
8.206088730444309
 20
-10.44816469332409
 30
0.0
 10
8.206794025583196
 20
-10.4489988404595
 30
0.0
 10
8.208916692683891
 20
-10.45152162691784
 30
0.0
 10
8.211168211781114
 20
-10.4539291247477
 30
0.0
 10
8.213602836347086
 20
-10.45615690795082
 30
0.0
 10
8.213752033395696
 20
-10.45629932331541
 30
0.0
 10
8.213914793812364
 20
-10.45643156615395
 30
0.0
 10
8.214070772545004
 20
-10.45657059067652
 30
0.0
 10
8.216478270374864
 20
-10.45873733872339
 30
0.0
 10
8.219034965253336
 20
-10.46072606756454
 30
0.0
 10
8.221700167076254
 20
-10.46257407646211
 30
0.0
 10
8.222608912735975
 20
-10.46320307765568
 30
0.0
 10
8.22357191186792
 20
-10.46373883069388
 30
0.0
 10
8.224507784263754
 20
-10.4643288372043
 30
0.0
 10
8.226460909263754
 20
-10.46556140827635
 30
0.0
 10
8.228441160999864
 20
-10.46673294419214
 30
0.0
 10
8.230509574628336
 20
-10.46778749605846
 30
0.0
 10
8.231635334176946
 20
-10.4683588529378
 30
0.0
 10
8.232781438777641
 20
-10.46887426092391
 30
0.0
 10
8.233941106746391
 20
-10.46939136433103
 30
0.0
 10
8.235968830270696
 20
-10.47030010999075
 30
0.0
 10
8.23803724389917
 20
-10.47111391207409
 30
0.0
 10
8.240159910999864
 20
-10.47184633394909
 30
0.0
 10
8.24136026907278
 20
-10.47226001667478
 30
0.0
 10
8.242547063777641
 20
-10.47266691771645
 30
0.0
 10
8.24377454858667
 20
-10.4730212607069
 30
0.0
 10
8.246080321156114
 20
-10.47368925658364
 30
0.0
 10
8.248447128881809
 20
-10.47420296914874
 30
0.0
 10
8.250841063343614
 20
-10.47465225571558
 30
0.0
 10
8.251926132788059
 20
-10.47485401081541
 30
0.0
 10
8.252984075496391
 20
-10.47511849649249
 30
0.0
 10
8.254082708308891
 20
-10.47527447522513
 30
0.0
 10
8.257602402319309
 20
-10.47577462442218
 30
0.0
 10
8.261176349801946
 20
-10.47609166815048
 30
0.0
 10
8.264838459176946
 20
-10.47609166815048
 30
0.0
 10
8.268500568551946
 20
-10.47609166815048
 30
0.0
 10
8.272074516034586
 20
-10.47577462442218
 30
0.0
 10
8.275594210045004
 20
-10.47527447522513
 30
0.0
 10
8.276692842857504
 20
-10.47511849649249
 30
0.0
 10
8.277744003881809
 20
-10.47485740165742
 30
0.0
 10
8.278822291642225
 20
-10.47465395113659
 30
0.0
 10
8.281223007788059
 20
-10.47420635999075
 30
0.0
 10
8.28359659719778
 20
-10.47368925658364
 30
0.0
 10
8.28591593313528
 20
-10.47301956528589
 30
0.0
 10
8.287123072892225
 20
-10.47266691771645
 30
0.0
 10
8.288303085913059
 20
-10.4722634075168
 30
0.0
 10
8.289496662301946
 20
-10.47185311563311
 30
0.0
 10
8.291632892770696
 20
-10.4711173029161
 30
0.0
 10
8.293714869767225
 20
-10.47029671914874
 30
0.0
 10
8.295762938343614
 20
-10.46937949638398
 30
0.0
 10
8.29690226126028
 20
-10.46886917466089
 30
0.0
 10
8.29803480249292
 20
-10.46836393920082
 30
0.0
 10
8.299140216989446
 20
-10.46779936400551
 30
0.0
 10
8.301242539038059
 20
-10.46673294419214
 30
0.0
 10
8.30324991751028
 20
-10.46554275864527
 30
0.0
 10
8.305230169246391
 20
-10.46429153794214
 30
0.0
 10
8.306138914906114
 20
-10.4637184856418
 30
0.0
 10
8.307074787301946
 20
-10.46319968681367
 30
0.0
 10
8.307956406225559
 20
-10.46258933525117
 30
0.0
 10
8.310702988256809
 20
-10.46068707288138
 30
0.0
 10
8.313341063343614
 20
-10.45864917683103
 30
0.0
 10
8.315802814645696
 20
-10.45641122110186
 30
0.0
 10
8.315843504749864
 20
-10.45637731268173
 30
0.0
 10
8.31588419485403
 20
-10.45635018594561
 30
0.0
 10
8.315924884958196
 20
-10.45631627752548
 30
0.0
 10
8.31842054468042
 20
-10.45404102253416
 30
0.0
 10
8.320719535565836
 20
-10.45157079412704
 30
0.0
 10
8.322896456138754
 20
-10.44898527709145
 30
0.0
 10
8.323588187909586
 20
-10.44816469332409
 30
0.0
 10
8.324191757788059
 20
-10.44727968355846
 30
0.0
 10
8.324849581138754
 20
-10.44643027763398
 30
0.0
 10
8.325846488690836
 20
-10.44513328056367
 30
0.0
 10
8.326917994767225
 20
-10.44388884154457
 30
0.0
 10
8.327833522110975
 20
-10.44252572305499
 30
0.0
 10
8.327833522110975
 20
-10.44252572305499
 30
0.0
 10
8.378947074628336
 20
-10.44252572305499
 30
0.0
 10
8.378947074628336
 20
-10.44252572305499
 30
0.0
 10
8.379021673152641
 20
-10.4426749201036
 30
0.0
 10
8.379123398413059
 20
-10.44280716294214
 30
0.0
 10
8.379204778621391
 20
-10.44295466456975
 30
0.0
 10
8.37951673608667
 20
-10.44356840697426
 30
0.0
 10
8.379930418812364
 20
-10.4441160279595
 30
0.0
 10
8.380255939645696
 20
-10.44472298867999
 30
0.0
 10
8.38208021264917
 20
-10.44807314058971
 30
0.0
 10
8.38403333764917
 20
-10.45133343518607
 30
0.0
 10
8.386223821590141
 20
-10.45442757852374
 30
0.0
 10
8.387308891034586
 20
-10.45596023911402
 30
0.0
 10
8.388543157527641
 20
-10.45735726602374
 30
0.0
 10
8.389716388864446
 20
-10.45882210977374
 30
0.0
 10
8.391350774715141
 20
-10.46086509208711
 30
0.0
 10
8.392985160565836
 20
-10.46289620645343
 30
0.0
 10
8.394782306833196
 20
-10.46479507798121
 30
0.0
 10
8.396233587215141
 20
-10.46632943399249
 30
0.0
 10
8.397779811173475
 20
-10.46774002427027
 30
0.0
 10
8.399326035131809
 20
-10.46917095960013
 30
0.0
 10
8.401102836347086
 20
-10.47081212713485
 30
0.0
 10
8.402899982614446
 20
-10.47240921372339
 30
0.0
 10
8.404792072458196
 20
-10.47391135673555
 30
0.0
 10
8.406467148413059
 20
-10.47523717596298
 30
0.0
 10
8.408189696156114
 20
-10.47648331040308
 30
0.0
 10
8.409952934003336
 20
-10.47769553642305
 30
0.0
 10
8.411973875843614
 20
-10.47908239080673
 30
0.0
 10
8.414042289472086
 20
-10.48036751992999
 30
0.0
 10
8.416171738256809
 20
-10.48159500473902
 30
0.0
 10
8.417975666208196
 20
-10.48263599323728
 30
0.0
 10
8.419779594159586
 20
-10.48364646415742
 30
0.0
 10
8.42165812063528
 20
-10.48456538234318
 30
0.0
 10
8.42401136499292
 20
-10.48571826862791
 30
0.0
 10
8.426445989558891
 20
-10.48670330823294
 30
0.0
 10
8.428900959176946
 20
-10.48765783025985
 30
0.0
 10
8.430718450496391
 20
-10.48836142997773
 30
0.0
 10
8.43249525171167
 20
-10.48910571979978
 30
0.0
 10
8.434360214819309
 20
-10.4896957263102
 30
0.0
 10
8.43725599389917
 20
-10.49061125365395
 30
0.0
 10
8.440239934871391
 20
-10.49127077242565
 30
0.0
 10
8.443244220895696
 20
-10.49190316446124
 30
0.0
 10
8.44482435327417
 20
-10.4922354669786
 30
0.0
 10
8.446357013864446
 20
-10.49268644896645
 30
0.0
 10
8.44796427297903
 20
-10.49293567585447
 30
0.0
 10
8.452650416642225
 20
-10.49366640230846
 30
0.0
 10
8.457445067249864
 20
-10.49410721177027
 30
0.0
 10
8.462348224801946
 20
-10.49410721177027
 30
0.0
 10
8.46725138235403
 20
-10.49410721177027
 30
0.0
 10
8.47204603296167
 20
-10.49366640230846
 30
0.0
 10
8.476732176624864
 20
-10.49293398043346
 30
0.0
 10
8.478339435739446
 20
-10.49268475354544
 30
0.0
 10
8.479865314645696
 20
-10.4922354669786
 30
0.0
 10
8.48144544702417
 20
-10.49190316446124
 30
0.0
 10
8.484456514732504
 20
-10.49127246784666
 30
0.0
 10
8.487440455704725
 20
-10.49061125365395
 30
0.0
 10
8.490329453100559
 20
-10.4896957263102
 30
0.0
 10
8.492201197892225
 20
-10.48910571979978
 30
0.0
 10
8.493977999107504
 20
-10.48836142997773
 30
0.0
 10
8.49578870874292
 20
-10.48765783025985
 30
0.0
 10
8.498250460045004
 20
-10.48670330823294
 30
0.0
 10
8.500685084610975
 20
-10.48571826862791
 30
0.0
 10
8.503038328968614
 20
-10.48456538234318
 30
0.0
 10
8.504916855444309
 20
-10.48364476873641
 30
0.0
 10
8.506720783395696
 20
-10.48263260239527
 30
0.0
 10
8.508524711347086
 20
-10.48159330931801
 30
0.0
 10
8.51064737844778
 20
-10.48036751992999
 30
0.0
 10
8.512715792076254
 20
-10.47908239080673
 30
0.0
 10
8.514729952232504
 20
-10.47769892726506
 30
0.0
 10
8.516499971763754
 20
-10.47648500582409
 30
0.0
 10
8.518229301190836
 20
-10.47523717596298
 30
0.0
 10
8.519911158829725
 20
-10.47390457505152
 30
0.0
 10
8.521796466989446
 20
-10.47240921372339
 30
0.0
 10
8.52358683157278
 20
-10.47081721339787
 30
0.0
 10
8.525350069420004
 20
-10.46918282754718
 30
0.0
 10
8.526909856746391
 20
-10.46774341511228
 30
0.0
 10
8.528462862388754
 20
-10.46632773857148
 30
0.0
 10
8.529914142770696
 20
-10.46478660087617
 30
0.0
 10
8.531690943985975
 20
-10.46290807440048
 30
0.0
 10
8.533311766468614
 20
-10.46089730508624
 30
0.0
 10
8.534932588951254
 20
-10.45887636324596
 30
0.0
 10
8.536126165340141
 20
-10.45738778360186
 30
0.0
 10
8.53738077688528
 20
-10.45596362995603
 30
0.0
 10
8.53847940969778
 20
-10.45440384262964
 30
0.0
 10
8.540608858482504
 20
-10.45139955660534
 30
0.0
 10
8.542500948326254
 20
-10.44822911932235
 30
0.0
 10
8.54427774954153
 20
-10.44498408351506
 30
0.0
 10
8.544664305531114
 20
-10.44427878837617
 30
0.0
 10
8.545139023413059
 20
-10.44364131007756
 30
0.0
 10
8.545505234350559
 20
-10.44292584241263
 30
0.0
 10
8.545573051190836
 20
-10.44278681789006
 30
0.0
 10
8.545674776451254
 20
-10.44266474757756
 30
0.0
 10
8.54574259329153
 20
-10.44252572305499
 30
0.0
 10
8.54574259329153
 20
-10.44252572305499
 30
0.0
 10
8.591959769940836
 20
-10.44252572305499
 30
0.0
 10
8.591959769940836
 20
-10.44252572305499
 30
0.0
 10
8.592095403621391
 20
-10.44289871567652
 30
0.0
 10
8.59231241751028
 20
-10.44322762735186
 30
0.0
 10
8.592454832874864
 20
-10.44359892455239
 30
0.0
 10
8.594489338083196
 20
-10.44892763277721
 30
0.0
 10
8.596835800756809
 20
-10.45409527600638
 30
0.0
 10
8.599562037735975
 20
-10.45903573282061
 30
0.0
 10
8.599677326364446
 20
-10.45924257418346
 30
0.0
 10
8.599799396676946
 20
-10.45943585217825
 30
0.0
 10
8.59991468530542
 20
-10.4596409981201
 30
0.0
 10
8.605719806833196
 20
-10.47001358384058
 30
0.0
 10
8.61297620874292
 20
-10.4794418200602
 30
0.0
 10
8.621419405357504
 20
-10.48765952568086
 30
0.0
 10
8.621595729142225
 20
-10.48782737236055
 30
0.0
 10
8.621751707874864
 20
-10.48800708698728
 30
0.0
 10
8.621928031659586
 20
-10.48817323824596
 30
0.0
 10
8.625983478708196
 20
-10.49207101114093
 30
0.0
 10
8.630330538170004
 20
-10.49564495862357
 30
0.0
 10
8.63488782983667
 20
-10.49895272500811
 30
0.0
 10
8.63537611108667
 20
-10.49930537257756
 30
0.0
 10
8.635850828968614
 20
-10.49966649725204
 30
0.0
 10
8.636339110218614
 20
-10.50001236313746
 30
0.0
 10
8.640787894940836
 20
-10.50313702405325
 30
0.0
 10
8.645453693551946
 20
-10.50594633666176
 30
0.0
 10
8.650309379315836
 20
-10.50845895059405
 30
0.0
 10
8.65100111108667
 20
-10.50881668442652
 30
0.0
 10
8.651692842857504
 20
-10.50916594115395
 30
0.0
 10
8.652391356312364
 20
-10.50951180703936
 30
0.0
 10
8.657233478708196
 20
-10.51190065523815
 30
0.0
 10
8.662245143204725
 20
-10.5139877184977
 30
0.0
 10
8.667426349801946
 20
-10.5157204387668
 30
0.0
 10
8.66817911672903
 20
-10.51597136107582
 30
0.0
 10
8.66894544702417
 20
-10.51618667954371
 30
0.0
 10
8.66970499563528
 20
-10.51642573390568
 30
0.0
 10
8.674994709176946
 20
-10.51807707396645
 30
0.0
 10
8.680413274715141
 20
-10.519431715351
 30
0.0
 10
8.685994600670004
 20
-10.52034893811575
 30
0.0
 10
8.68658460718042
 20
-10.52044557711315
 30
0.0
 10
8.687188177058891
 20
-10.52049135348034
 30
0.0
 10
8.687784965253336
 20
-10.5205795153727
 30
0.0
 10
8.693644340253336
 20
-10.52145435261228
 30
0.0
 10
8.69961222219778
 20
-10.52199349649249
 30
0.0
 10
8.70571573782278
 20
-10.5219951919135
 30
0.0
 10
8.705729301190836
 20
-10.5219951919135
 30
0.0
 10
8.70574964624292
 20
-10.52199858275551
 30
0.0
 10
8.705763209610975
 20
-10.52199858275551
 30
0.0
 10
8.70577677297903
 20
-10.52199858275551
 30
0.0
 10
8.705797118031114
 20
-10.5219951919135
 30
0.0
 10
8.70581068139917
 20
-10.5219951919135
 30
0.0
 10
8.711920978708196
 20
-10.52199349649249
 30
0.0
 10
8.717888860652641
 20
-10.52145435261228
 30
0.0
 10
8.723748235652641
 20
-10.5205795153727
 30
0.0
 10
8.724338242163059
 20
-10.52049135348034
 30
0.0
 10
8.72494181204153
 20
-10.52044388169214
 30
0.0
 10
8.725531818551946
 20
-10.52034893811575
 30
0.0
 10
8.731113144506809
 20
-10.51943001992999
 30
0.0
 10
8.73653849172903
 20
-10.51807537854544
 30
0.0
 10
8.741834986954725
 20
-10.51642234306367
 30
0.0
 10
8.742587753881809
 20
-10.5161849841227
 30
0.0
 10
8.74334730249292
 20
-10.51597305649683
 30
0.0
 10
8.744093287735975
 20
-10.5157221341878
 30
0.0
 10
8.749281276017225
 20
-10.5139877184977
 30
0.0
 10
8.75429972219778
 20
-10.51189895981714
 30
0.0
 10
8.759148626277641
 20
-10.50950841619735
 30
0.0
 10
8.759840358048475
 20
-10.50916594115395
 30
0.0
 10
8.76052530813528
 20
-10.50882007526853
 30
0.0
 10
8.761217039906114
 20
-10.50846403685707
 30
0.0
 10
8.766072725670004
 20
-10.50594972750378
 30
0.0
 10
8.770745305965141
 20
-10.50313871947426
 30
0.0
 10
8.775194090687364
 20
-10.50001236313746
 30
0.0
 10
8.775682371937364
 20
-10.49966819267305
 30
0.0
 10
8.77615030813528
 20
-10.49930537257756
 30
0.0
 10
8.77663858938528
 20
-10.49895272500811
 30
0.0
 10
8.781195881051946
 20
-10.49564665404457
 30
0.0
 10
8.785542940513754
 20
-10.49207609740395
 30
0.0
 10
8.789598387562364
 20
-10.48818001992999
 30
0.0
 10
8.789781493031114
 20
-10.48800369614527
 30
0.0
 10
8.78994425344778
 20
-10.4878171998345
 30
0.0
 10
8.79012735891653
 20
-10.48764087604978
 30
0.0
 10
8.798556992163059
 20
-10.47943673379718
 30
0.0
 10
8.805799830704725
 20
-10.47002884262964
 30
0.0
 10
8.811591388864446
 20
-10.45967999280325
 30
0.0
 10
8.811713459176946
 20
-10.45945450180933
 30
0.0
 10
8.81185587454153
 20
-10.45924257418346
 30
0.0
 10
8.811984726538059
 20
-10.45901538776853
 30
0.0
 10
8.814704181833196
 20
-10.45408849432235
 30
0.0
 10
8.817037081138754
 20
-10.44893102361923
 30
0.0
 10
8.819071586347086
 20
-10.44361587876246
 30
0.0
 10
8.81921400171167
 20
-10.44324119071992
 30
0.0
 10
8.819431015600559
 20
-10.44290210651853
 30
0.0
 10
8.819573430965141
 20
-10.44252572305499
 30
0.0
 10
8.819573430965141
 20
-10.44252572305499
 30
0.0
 10
8.883090683569309
 20
-10.44252572305499
 30
0.0
 10
8.883090683569309
 20
-10.44252572305499
 30
0.0
 10
8.983005234350559
 20
-10.47452848998207
 30
0.0
 10
9.066338567683891
 20
-10.54174854206541
 30
0.0
 10
9.146274277319309
 20
-10.60719179293346
 30
0.0
 10
9.413709986954725
 20
-10.82610794419214
 30
0.0
 10
9.505974798152641
 20
-11.07178801146645
 30
0.0
 10
10.23246948131236
 20
-11.05550179727374
 30
0.0
 10
10.2537910958957
 20
-11.05502368854978
 30
0.0
 10
10.25502536238875
 20
-11.0533180950168
 30
0.0
 10
10.24802666447209
 20
-11.03226435695256
 30
0.0
 10
10.23625366099986
 20
-10.99683175332843
 30
0.0
 10
10.21929266924639
 20
-10.96425084783798
 30
0.0
 10
10.19366468530542
 20
-10.93660361747773
 30
0.0
 10
10.18981947046167
 20
-10.93244983601072
 30
0.0
 10
10.18673380422903
 20
-10.92759075940482
 30
0.0
 10
10.18159328773597
 20
-10.92081585706107
 30
0.0
 10
10.19482435327417
 20
-10.91869827622339
 30
0.0
 10
10.20315226126028
 20
-10.92285205769041
 30
0.0
 10
10.21170396481931
 20
-10.92492047131888
 30
0.0
 10
10.41395412757972
 20
-10.97385371242131
 30
0.0
 10
10.59819891924639
 20
-10.94672358546818
 30
0.0
 10
10.60268839407278
 20
-10.93409269896645
 30
0.0
 10
10.60647935544431
 20
-10.92341663288572
 30
0.0
 10
10.59099677080889
 20
-10.91414776624075
 30
0.0
 10
10.58374036889917
 20
-10.904685621601
 30
0.0
 10
10.5567221397325
 20
-10.8694327326036
 30
0.0
 10
10.53219278860403
 20
-10.8328608060628
 30
0.0
 10
10.51295993270125
 20
-10.78726584892305
 30
0.0
 10
10.5567221397325
 20
-10.79777067748207
 30
0.0
 10
10.71000854381236
 20
-10.847314270147
 30
0.0
 10
10.87664130205889
 20
-10.80908422186141
 30
0.0
 10
10.87203653860403
 20
-10.79954747869735
 30
0.0
 10
10.78713663626028
 20
-10.72635615382756
 30
0.0
 10
10.77488213322209
 20
-10.67928787583277
 30
0.0
 10
11.00120727428111
 20
-10.73580473509926
 30
0.0
 10
11.43812404945472
 20
-10.45080615925291
 30
0.0
 10
11.44334594615611
 20
-10.44252572305499
 30
0.0
 10
11.44334594615611
 20
-10.44252572305499
 30
0.0
 10
11.62904201820472
 20
-10.44252572305499
 30
0.0
 10
11.62904201820472
 20
-10.44252572305499
 30
0.0
 10
11.62921156030542
 20
-10.44273595525985
 30
0.0
 10
11.62940822914222
 20
-10.4429190607286
 30
0.0
 10
11.62957777124292
 20
-10.44312590209145
 30
0.0
 10
11.63081881942
 20
-10.44464839015568
 30
0.0
 10
11.63212090275334
 20
-10.44609967053763
 30
0.0
 10
11.63348402124292
 20
-10.4475085653944
 30
0.0
 10
11.63393161238875
 20
-10.44796971990829
 30
0.0
 10
11.63439276690264
 20
-10.44841392021211
 30
0.0
 10
11.63485392141653
 20
-10.44886320677895
 30
0.0
 10
11.63635267358667
 20
-10.45032465968693
 30
0.0
 10
11.63786498912486
 20
-10.45174372706975
 30
0.0
 10
11.6394858116075
 20
-10.45306106919214
 30
0.0
 10
11.63962822697209
 20
-10.45317635782061
 30
0.0
 10
11.6397774240207
 20
-10.453271301397
 30
0.0
 10
11.63991983938528
 20
-10.45338489460447
 30
0.0
 10
11.64312757593042
 20
-10.45594837116697
 30
0.0
 10
11.64657267141653
 20
-10.45818802231714
 30
0.0
 10
11.65021443573945
 20
-10.46014284273815
 30
0.0
 10
11.65094685761445
 20
-10.46054126667478
 30
0.0
 10
11.65165215275334
 20
-10.46098207613659
 30
0.0
 10
11.65240491968042
 20
-10.46135506875811
 30
0.0
 10
11.65376125648597
 20
-10.46201797837183
 30
0.0
 10
11.65516506507972
 20
-10.46257577188311
 30
0.0
 10
11.65656887367347
 20
-10.46314882418346
 30
0.0
 10
11.657918428795
 20
-10.46370322685273
 30
0.0
 10
11.65927476560056
 20
-10.46423389362791
 30
0.0
 10
11.66065822914222
 20
-10.46470182982582
 30
0.0
 10
11.66190605900334
 20
-10.46511720797253
 30
0.0
 10
11.66315388886445
 20
-10.46549528685707
 30
0.0
 10
11.66442884546167
 20
-10.46583776190048
 30
0.0
 10
11.66619208330889
 20
-10.46631587062443
 30
0.0
 10
11.66798922957625
 20
-10.466699035772
 30
0.0
 10
11.6698067208957
 20
-10.46703472913138
 30
0.0
 10
11.67085110023597
 20
-10.46722461628416
 30
0.0
 10
11.67187513452417
 20
-10.46745180269909
 30
0.0
 10
11.67293985891653
 20
-10.46759421806367
 30
0.0
 10
11.67588989146861
 20
-10.4679909465793
 30
0.0
 10
11.67888061412486
 20
-10.46825034599336
 30
0.0
 10
11.68193915362139
 20
-10.46825034599336
 30
0.0
 10
11.69427503686792
 20
-10.46825034599336
 30
0.0
 10
11.70583780813528
 20
-10.46496970634492
 30
0.0
 10
11.71582044702417
 20
-10.45923240165742
 30
0.0
 10
11.73244235457625
 20
-10.44967361802027
 30
0.0
 10
11.74464938582625
 20
-10.43329246025117
 30
0.0
 10
11.7486166709825
 20
-10.41391040729978
 30
0.0
 10
11.74952541664222
 20
-10.40947857678763
 30
0.0
 10
11.75000013452417
 20
-10.40489076754284
 30
0.0
 10
11.75000013452417
 20
-10.4001944513536
 30
0.0
 10
11.75000013452417
 20
-10.4001944513536
 30
0.0
 10
11.75000013452417
 20
-10.4001927559326
 30
0.0
 10
11.75000013452417
 20
-10.40019106051159
 30
0.0
 10
11.75000013452417
 20
-10.40019106051159
 30
0.0
 10
11.75000013452417
 20
-10.40019106051159
 30
0.0
 10
11.75000013452417
 20
-10.40018936509058
 30
0.0
  0
SPLINE
  5
43
330
1F
100
AcDbEntity
  8
Layer 1
370
     0
100
AcDbSpline
210
0.0
220
0.0
230
1.0
 70
    11
 71
     3
 72
   209
 73
   205
 74
     0
 42
0.0000000001
 43
0.0000000001
 12
1.0
 22
0.0
 32
0.0
 13
1.0
 23
0.0
 33
0.0
 40
0.0
 40
0.0
 40
0.0
 40
0.0
 40
1.0
 40
1.0
 40
1.0
 40
2.0
 40
2.0
 40
2.0
 40
3.0
 40
3.0
 40
3.0
 40
4.0
 40
4.0
 40
4.0
 40
5.0
 40
5.0
 40
5.0
 40
6.0
 40
6.0
 40
6.0
 40
7.0
 40
7.0
 40
7.0
 40
8.0
 40
8.0
 40
8.0
 40
9.0
 40
9.0
 40
9.0
 40
10.0
 40
10.0
 40
10.0
 40
11.0
 40
11.0
 40
11.0
 40
12.0
 40
12.0
 40
12.0
 40
13.0
 40
13.0
 40
13.0
 40
14.0
 40
14.0
 40
14.0
 40
15.0
 40
15.0
 40
15.0
 40
16.0
 40
16.0
 40
16.0
 40
17.0
 40
17.0
 40
17.0
 40
18.0
 40
18.0
 40
18.0
 40
19.0
 40
19.0
 40
19.0
 40
20.0
 40
20.0
 40
20.0
 40
21.0
 40
21.0
 40
21.0
 40
22.0
 40
22.0
 40
22.0
 40
23.0
 40
23.0
 40
23.0
 40
24.0
 40
24.0
 40
24.0
 40
25.0
 40
25.0
 40
25.0
 40
26.0
 40
26.0
 40
26.0
 40
27.0
 40
27.0
 40
27.0
 40
28.0
 40
28.0
 40
28.0
 40
29.0
 40
29.0
 40
29.0
 40
30.0
 40
30.0
 40
30.0
 40
31.0
 40
31.0
 40
31.0
 40
32.0
 40
32.0
 40
32.0
 40
33.0
 40
33.0
 40
33.0
 40
34.0
 40
34.0
 40
34.0
 40
35.0
 40
35.0
 40
35.0
 40
36.0
 40
36.0
 40
36.0
 40
37.0
 40
37.0
 40
37.0
 40
38.0
 40
38.0
 40
38.0
 40
39.0
 40
39.0
 40
39.0
 40
40.0
 40
40.0
 40
40.0
 40
41.0
 40
41.0
 40
41.0
 40
42.0
 40
42.0
 40
42.0
 40
43.0
 40
43.0
 40
43.0
 40
44.0
 40
44.0
 40
44.0
 40
45.0
 40
45.0
 40
45.0
 40
46.0
 40
46.0
 40
46.0
 40
47.0
 40
47.0
 40
47.0
 40
48.0
 40
48.0
 40
48.0
 40
49.0
 40
49.0
 40
49.0
 40
50.0
 40
50.0
 40
50.0
 40
51.0
 40
51.0
 40
51.0
 40
52.0
 40
52.0
 40
52.0
 40
53.0
 40
53.0
 40
53.0
 40
54.0
 40
54.0
 40
54.0
 40
55.0
 40
55.0
 40
55.0
 40
56.0
 40
56.0
 40
56.0
 40
57.0
 40
57.0
 40
57.0
 40
58.0
 40
58.0
 40
58.0
 40
59.0
 40
59.0
 40
59.0
 40
60.0
 40
60.0
 40
60.0
 40
61.0
 40
61.0
 40
61.0
 40
62.0
 40
62.0
 40
62.0
 40
63.0
 40
63.0
 40
63.0
 40
64.0
 40
64.0
 40
64.0
 40
65.0
 40
65.0
 40
65.0
 40
66.0
 40
66.0
 40
66.0
 40
67.0
 40
67.0
 40
67.0
 40
68.0
 40
68.0
 40
68.0
 40
68.0
 10
11.68700275204062
 20
-4.491956800085593
 30
0.0
 10
11.63522356029272
 20
-4.422961520184319
 30
0.0
 10
11.55549054244683
 20
-4.340970431714469
 30
0.0
 10
11.46668443359979
 20
-4.271709896529046
 30
0.0
 10
11.37650443840928
 20
-4.20325702967663
 30
0.0
 10
11.27587746587409
 20
-4.148342384441826
 30
0.0
 10
11.17038747979632
 20
-4.125795685289808
 30
0.0
 10
11.06272784152265
 20
-4.102687869190655
 30
0.0
 10
10.94964067205036
 20
-4.114126153142075
 30
0.0
 10
10.84487843764959
 20
-4.142772023474865
 30
0.0
 10
10.73930003314379
 20
-4.170059310653717
 30
0.0
 10
10.64123719502201
 20
-4.213187099288082
 30
0.0
 10
10.63580966382339
 20
-4.247733199338831
 30
0.0
 10
10.63175601896834
 20
-4.281466529993091
 30
0.0
 10
10.7195351137665
 20
-4.305244285720227
 30
0.0
 10
10.82397088012522
 20
-4.322882061761346
 30
0.0
 10
10.92840664648399
 20
-4.340519837802339
 30
0.0
 10
11.04949228298574
 20
-4.352017634157164
 30
0.0
 10
11.15566241081771
 20
-4.353871020437459
 30
0.0
 10
11.26265551017228
 20
-4.357098293061098
 30
0.0
 10
11.35498475330612
 20
-4.35422639450399
 30
0.0
 10
11.32932300491982
 20
-4.363841898554154
 30
0.0
 10
11.30366125653351
 20
-4.373457402604294
 30
0.0
 10
11.1594439989711
 20
-4.397736762875057
 30
0.0
 10
11.01106427387296
 20
-4.393125401781528
 30
0.0
 10
10.86350752029739
 20
-4.38988112561396
 30
0.0
 10
10.71398515705217
 20
-4.358300443611698
 30
0.0
 10
10.57426363648508
 20
-4.324614722880091
 30
0.0
 10
10.51201026172233
 20
-4.309734921652484
 30
0.0
 10
10.45113077330312
 20
-4.294044051382899
 30
0.0
 10
10.38672134917958
 20
-4.278603133207879
 30
0.0
 10
10.42517656396252
 20
-4.268807391592923
 30
0.0
 10
10.46476081405747
 20
-4.25466214345973
 30
0.0
 10
10.5032908444334
 20
-4.235606271861292
 30
0.0
 10
10.6262876792645
 20
-4.172232363558489
 30
0.0
 10
10.74282996884813
 20
-4.057353020563798
 30
0.0
 10
10.80994635715345
 20
-3.927411938422235
 30
0.0
 10
10.87568885911524
 20
-3.798273423550629
 30
0.0
 10
10.89061116920261
 20
-3.654882538219668
 30
0.0
 10
10.88701321932285
 20
-3.511359025246545
 30
0.0
 10
10.88124561724716
 20
-3.367274395326136
 30
0.0
 10
10.85778072672696
 20
-3.224420821980996
 30
0.0
 10
10.84462678520054
 20
-3.199000523917372
 30
0.0
 10
10.83009895733064
 20
-3.174389594541405
 30
0.0
 10
10.82531756079857
 20
-3.269384993351726
 30
0.0
 10
10.75476645663452
 20
-3.349747142320186
 30
0.0
 10
10.68420174963535
 20
-3.430109291288785
 30
0.0
 10
10.54785373216914
 20
-3.495834789706666
 30
0.0
 10
10.45877556662044
 20
-3.576062610678769
 30
0.0
 10
10.37107128741521
 20
-3.655484463672059
 30
0.0
 10
10.33200394505348
 20
-3.748599270532079
 30
0.0
 10
10.30709715401437
 20
-3.840724471139639
 30
0.0
 10
10.28300653308027
 20
-3.934220157381863
 30
0.0
 10
10.27308326488638
 20
-4.026726237371778
 30
0.0
 10
10.28754307858086
 20
-4.060597296731367
 30
0.0
 10
10.30200289227534
 20
-4.094463255027904
 30
0.0
 10
10.33922705048316
 20
-4.066960022842068
 30
0.0
 10
10.39100624223106
 20
-4.023495564039282
 30
0.0
 10
10.44278543397897
 20
-3.980031105236662
 30
0.0
 10
10.51047994277537
 20
-3.919797751483934
 30
0.0
 10
10.57314140259061
 20
-3.838565021069952
 30
0.0
 10
10.63581646524095
 20
-3.757328889947265
 30
0.0
 10
10.69483916667117
 20
-3.654284013475957
 30
0.0
 10
10.70868685278687
 20
-3.659012699022064
 30
0.0
 10
10.72253453890254
 20
-3.663744785277004
 30
0.0
 10
10.68906476317794
 20
-3.775685915893367
 30
0.0
 10
10.6301032745056
 20
-3.869474063090037
 30
0.0
 10
10.56979510515991
 20
-3.964066477911021
 30
0.0
 10
10.48264174077561
 20
-4.041313577645206
 30
0.0
 10
10.40408536816451
 20
-4.09874304701624
 30
0.0
 10
10.32415510920989
 20
-4.156980184720283
 30
0.0
 10
10.25497789138934
 20
-4.195962509362819
 30
0.0
 10
10.19358149523694
 20
-4.213763519424813
 30
0.0
 10
10.18701132589129
 20
-4.215502981961233
 30
0.0
 10
10.17446271052611
 20
-4.217046903743292
 30
0.0
 10
10.17446271052611
 20
-4.217046903743292
 30
0.0
 10
10.17446271052611
 20
-4.217046903743292
 30
0.0
 10
2.171479539784261
 20
-4.217046903743292
 30
0.0
 10
2.171479539784261
 20
-4.217046903743292
 30
0.0
 10
2.171479539784261
 20
-4.217046903743292
 30
0.0
 10
2.121111642176275
 20
-4.217046903743292
 30
0.0
 10
2.121111642176275
 20
-4.217046903743292
 30
0.0
 10
2.121111642176275
 20
-4.217046903743292
 30
0.0
 10
1.825539039341114
 20
-4.217046903743292
 30
0.0
 10
1.825539039341114
 20
-4.217046903743292
 30
0.0
 10
1.825539039341114
 20
-4.217046903743292
 30
0.0
 10
1.813000626102217
 20
-4.215502981961233
 30
0.0
 10
1.806423655339005
 20
-4.213763519424813
 30
0.0
 10
1.745027259186574
 20
-4.195962509362819
 30
0.0
 10
1.67585684278356
 20
-4.156980184720283
 30
0.0
 10
1.59591978241143
 20
-4.09874304701624
 30
0.0
 10
1.51736000909164
 20
-4.041313577645206
 30
0.0
 10
1.43021004541601
 20
-3.964066477911021
 30
0.0
 10
1.369898475361651
 20
-3.869474063090037
 30
0.0
 10
1.310943788106846
 20
-3.775685915893367
 30
0.0
 10
1.277467210964687
 20
-3.663744785277004
 30
0.0
 10
1.291314897080383
 20
-3.659012699022064
 30
0.0
 10
1.305169384613615
 20
-3.654284013475957
 30
0.0
 10
1.364181883917455
 20
-3.757328889947265
 30
0.0
 10
1.42685694656777
 20
-3.838565021069952
 30
0.0
 10
1.489528608509419
 20
-3.919797751483934
 30
0.0
 10
1.557216315888253
 20
-3.980031105236662
 30
0.0
 10
1.60899550763616
 20
-4.023495564039282
 30
0.0
 10
1.660771298675223
 20
-4.066960022842068
 30
0.0
 10
1.6980022583006
 20
-4.094463255027904
 30
0.0
 10
1.712465472703924
 20
-4.060597296731367
 30
0.0
 10
1.726918484980868
 20
-4.026726237371778
 30
0.0
 10
1.716995216786952
 20
-3.934220157381863
 30
0.0
 10
1.692901195144032
 20
-3.840724471139639
 30
0.0
 10
1.668001205522463
 20
-3.748599270532079
 30
0.0
 10
1.628937263869552
 20
-3.655484463672059
 30
0.0
 10
1.541222782537968
 20
-3.576062610678769
 30
0.0
 10
1.452148017698113
 20
-3.495834789706666
 30
0.0
 10
1.315800000231876
 20
-3.430109291288785
 30
0.0
 10
1.245235293232731
 20
-3.349747142320186
 30
0.0
 10
1.17468078835984
 20
-3.269384993351726
 30
0.0
 10
1.169909593954142
 20
-3.174389594541405
 30
0.0
 10
1.155381766084247
 20
-3.199000523917372
 30
0.0
 10
1.142221023140286
 20
-3.224420821980996
 30
0.0
 10
1.118752731911248
 20
-3.367274395326136
 30
0.0
 10
1.112981729126861
 20
-3.511359025246545
 30
0.0
 10
1.109393981373336
 20
-3.654882538219668
 30
0.0
 10
1.12431289075198
 20
-3.798273423550629
 30
0.0
 10
1.190058793422496
 20
-3.927411938422235
 30
0.0
 10
1.257171781019098
 20
-4.057353020563798
 30
0.0
 10
1.373720872020284
 20
-4.172232363558489
 30
0.0
 10
1.496710905433853
 20
-4.235606271861292
 30
0.0
 10
1.535240935809775
 20
-4.25466214345973
 30
0.0
 10
1.574825185904703
 20
-4.268807391592923
 30
0.0
 10
1.613290602813903
 20
-4.278603133207879
 30
0.0
 10
1.548867575855259
 20
-4.294044051382899
 30
0.0
 10
1.487988087436052
 20
-4.309734921652484
 30
0.0
 10
1.425738113382168
 20
-4.324614722880091
 30
0.0
 10
1.286023394232618
 20
-4.358300443611698
 30
0.0
 10
1.136494229569861
 20
-4.38988112561396
 30
0.0
 10
0.9889340752854423
 20
-4.393125401781528
 30
0.0
 10
0.8405645523136576
 20
-4.397736762875057
 30
0.0
 10
0.6963404933337137
 20
-4.373457402604294
 30
0.0
 10
0.6706821456561253
 20
-4.363841898554154
 30
0.0
 10
0.6450135958522828
 20
-4.35422639450399
 30
0.0
 10
0.7373462396949687
 20
-4.357098293061098
 30
0.0
 10
0.8443359383406661
 20
-4.353871020437459
 30
0.0
 10
0.9505128675901788
 20
-4.352017634157164
 30
0.0
 10
1.071598504091955
 20
-4.340519837802339
 30
0.0
 10
1.176034270450701
 20
-4.322882061761346
 30
0.0
 10
1.280466636100755
 20
-4.305244285720227
 30
0.0
 10
1.368245730898909
 20
-4.281466529993091
 30
0.0
 10
1.364192086043835
 20
-4.247733199338831
 30
0.0
 10
1.35876455484524
 20
-4.213187099288082
 30
0.0
 10
1.260701716723436
 20
-4.170059310653717
 30
0.0
 10
1.155123312217635
 20
-4.142772023474865
 30
0.0
 10
1.050364478525555
 20
-4.114126153142075
 30
0.0
 10
0.9372739083445998
 20
-4.102687869190655
 30
0.0
 10
0.8296074686533705
 20
-4.125795685289808
 30
0.0
 10
0.7241242839931551
 20
-4.148342384441826
 30
0.0
 10
0.6234973114579689
 20
-4.20325702967663
 30
0.0
 10
0.5333207169761509
 20
-4.271709896529046
 30
0.0
 10
0.4445112074204189
 20
-4.340970431714469
 30
0.0
 10
0.3647747888656896
 20
-4.422961520184319
 30
0.0
 10
0.3129989978266268
 20
-4.491956800085593
 30
0.0
 10
0.2617707208996257
 20
-4.563123432537294
 30
0.0
 10
0.2393090394668131
 20
-4.619922070431256
 30
0.0
 10
0.2548468778417777
 20
-4.621717644662365
 30
0.0
 10
0.2703813155079236
 20
-4.623511518539114
 30
0.0
 10
0.3233473546168473
 20
-4.568120774076356
 30
0.0
 10
0.4510915788923234
 20
-4.573459886846901
 30
0.0
 10
0.5774687182418144
 20
-4.577994731992981
 30
0.0
 10
0.7786240427578832
 20
-4.643252632954955
 30
0.0
 10
0.9577495758549806
 20
-4.636510727816408
 30
0.0
 10
1.135501222608708
 20
-4.62896115434469
 30
0.0
 10
1.292579960743195
 20
-4.550221143459945
 30
0.0
 10
1.401593081107775
 20
-4.487348839700896
 30
0.0
 10
1.509232315128833
 20
-4.423670567963048
 30
0.0
 10
1.570166214888382
 20
-4.376669372038527
 30
0.0
 10
1.703912690144686
 20
-4.346838354698926
 30
0.0
 10
1.73954191593897
 20
-4.33889429900978
 30
0.0
 10
1.825539039341114
 20
-4.328423516703651
 30
0.0
 10
1.825539039341114
 20
-4.328423516703651
 30
0.0
 10
1.825539039341114
 20
-4.328423516703651
 30
0.0
 10
2.121033425874606
 20
-4.328423516703651
 30
0.0
 10
2.121033425874606
 20
-4.328423516703651
 30
0.0
 10
2.121033425874606
 20
-4.328423516703651
 30
0.0
 10
2.171554355377237
 20
-4.328423516703651
 30
0.0
 10
2.171554355377237
 20
-4.328423516703651
 30
0.0
 10
2.171554355377237
 20
-4.328423516703651
 30
0.0
 10
10.17446271052611
 20
-4.328423516703651
 30
0.0
 10
10.17446271052611
 20
-4.328423516703651
 30
0.0
 10
10.17446271052611
 20
-4.328423516703651
 30
0.0
 10
10.26046663534582
 20
-4.33889429900978
 30
0.0
 10
10.29608565901372
 20
-4.346838354698926
 30
0.0
 10
10.42983553497884
 20
-4.376669372038527
 30
0.0
 10
10.49076943473842
 20
-4.423670567963048
 30
0.0
 10
10.59840866875948
 20
-4.487348839700896
 30
0.0
 10
10.70742178912406
 20
-4.550221143459945
 30
0.0
 10
10.86450052725852
 20
-4.62896115434469
 30
0.0
 10
11.04224877330343
 20
-4.636510727816408
 30
0.0
 10
11.22137770710934
 20
-4.643252632954955
 30
0.0
 10
11.4225364323341
 20
-4.577994731992981
 30
0.0
 10
11.54891357168362
 20
-4.573459886846901
 30
0.0
 10
11.67665779595909
 20
-4.568120774076356
 30
0.0
 10
11.72962723577686
 20
-4.623511518539114
 30
0.0
 10
11.74514807060791
 20
-4.621717644662365
 30
0.0
 10
11.7606961111091
 20
-4.619922070431256
 30
0.0
 10
11.73823102896762
 20
-4.563123432537294
 30
0.0
 10
11.68700275204062
 20
-4.491956800085593
 30
0.0
  0
SPLINE
  5
44
330
1F
100
AcDbEntity
  8
Layer 1
370
     0
100
AcDbSpline
210
0.0
220
0.0
230
1.0
 70
    11
 71
     3
 72
   167
 73
   163
 74
     0
 42
0.0000000001
 43
0.0000000001
 12
1.0
 22
0.0
 32
0.0
 13
1.0
 23
0.0
 33
0.0
 40
0.0
 40
0.0
 40
0.0
 40
0.0
 40
1.0
 40
1.0
 40
1.0
 40
2.0
 40
2.0
 40
2.0
 40
3.0
 40
3.0
 40
3.0
 40
4.0
 40
4.0
 40
4.0
 40
5.0
 40
5.0
 40
5.0
 40
6.0
 40
6.0
 40
6.0
 40
7.0
 40
7.0
 40
7.0
 40
8.0
 40
8.0
 40
8.0
 40
9.0
 40
9.0
 40
9.0
 40
10.0
 40
10.0
 40
10.0
 40
11.0
 40
11.0
 40
11.0
 40
12.0
 40
12.0
 40
12.0
 40
13.0
 40
13.0
 40
13.0
 40
14.0
 40
14.0
 40
14.0
 40
15.0
 40
15.0
 40
15.0
 40
16.0
 40
16.0
 40
16.0
 40
17.0
 40
17.0
 40
17.0
 40
18.0
 40
18.0
 40
18.0
 40
19.0
 40
19.0
 40
19.0
 40
20.0
 40
20.0
 40
20.0
 40
21.0
 40
21.0
 40
21.0
 40
22.0
 40
22.0
 40
22.0
 40
23.0
 40
23.0
 40
23.0
 40
24.0
 40
24.0
 40
24.0
 40
25.0
 40
25.0
 40
25.0
 40
26.0
 40
26.0
 40
26.0
 40
27.0
 40
27.0
 40
27.0
 40
28.0
 40
28.0
 40
28.0
 40
29.0
 40
29.0
 40
29.0
 40
30.0
 40
30.0
 40
30.0
 40
31.0
 40
31.0
 40
31.0
 40
32.0
 40
32.0
 40
32.0
 40
33.0
 40
33.0
 40
33.0
 40
34.0
 40
34.0
 40
34.0
 40
35.0
 40
35.0
 40
35.0
 40
36.0
 40
36.0
 40
36.0
 40
37.0
 40
37.0
 40
37.0
 40
38.0
 40
38.0
 40
38.0
 40
39.0
 40
39.0
 40
39.0
 40
40.0
 40
40.0
 40
40.0
 40
41.0
 40
41.0
 40
41.0
 40
42.0
 40
42.0
 40
42.0
 40
43.0
 40
43.0
 40
43.0
 40
44.0
 40
44.0
 40
44.0
 40
45.0
 40
45.0
 40
45.0
 40
46.0
 40
46.0
 40
46.0
 40
47.0
 40
47.0
 40
47.0
 40
48.0
 40
48.0
 40
48.0
 40
49.0
 40
49.0
 40
49.0
 40
50.0
 40
50.0
 40
50.0
 40
51.0
 40
51.0
 40
51.0
 40
52.0
 40
52.0
 40
52.0
 40
53.0
 40
53.0
 40
53.0
 40
54.0
 40
54.0
 40
54.0
 40
54.0
 10
11.37306754576467
 20
-1.355523222372401
 30
0.0
 10
11.1548288513815
 20
-1.168634307655642
 30
0.0
 10
10.91657703002028
 20
-1.002083725100066
 30
0.0
 10
10.66733977756869
 20
-1.171611561108383
 30
0.0
 10
10.48164111382256
 20
-1.298020441868061
 30
0.0
 10
10.56232451978988
 20
-1.433463522618796
 30
0.0
 10
10.64865348773846
 20
-1.492229725260156
 30
0.0
 10
10.66410723804706
 20
-1.502951740152298
 30
0.0
 10
10.68765859741878
 20
-1.517751828042441
 30
0.0
 10
10.71589291142964
 20
-1.532405573600272
 30
0.0
 10
10.71589291142964
 20
-1.532405573600272
 30
0.0
 10
10.55494886623339
 20
-1.532405573600272
 30
0.0
 10
10.55494886623339
 20
-1.532405573600272
 30
0.0
 10
10.53454549303569
 20
-1.466536889756488
 30
0.0
 10
10.47315325853949
 20
-1.418687825117331
 30
0.0
 10
10.40058046984288
 20
-1.418687825117331
 30
0.0
 10
10.32800768114612
 20
-1.418687825117331
 30
0.0
 10
10.26661544665007
 20
-1.466536889756488
 30
0.0
 10
10.24621207345222
 20
-1.532405573600272
 30
0.0
 10
10.24621207345222
 20
-1.532405573600272
 30
0.0
 10
10.13813988695069
 20
-1.532405573600272
 30
0.0
 10
10.13813988695069
 20
-1.532405573600272
 30
0.0
 10
10.11631861915389
 20
-1.435494428988325
 30
0.0
 10
10.02987908144289
 20
-1.363043592235347
 30
0.0
 10
9.926379279818066
 20
-1.363043592235347
 30
0.0
 10
9.822872974089629
 20
-1.363043592235347
 30
0.0
 10
9.73643994048229
 20
-1.435494428988325
 30
0.0
 10
9.714612168581828
 20
-1.532405573600272
 30
0.0
 10
9.714612168581828
 20
-1.532405573600272
 30
0.0
 10
9.606539982080323
 20
-1.532405573600272
 30
0.0
 10
9.606539982080323
 20
-1.532405573600272
 30
0.0
 10
9.586136608882446
 20
-1.466536889756488
 30
0.0
 10
9.5247443743864
 20
-1.418687825117331
 30
0.0
 10
9.452171585689635
 20
-1.418687825117331
 30
0.0
 10
9.379598796993024
 20
-1.418687825117331
 30
0.0
 10
9.318206562496975
 20
-1.466536889756488
 30
0.0
 10
9.297803189299126
 20
-1.532405573600272
 30
0.0
 10
9.297803189299126
 20
-1.532405573600272
 30
0.0
 10
2.702196541652686
 20
-1.532405573600272
 30
0.0
 10
2.702196541652686
 20
-1.532405573600272
 30
0.0
 10
2.681793168454836
 20
-1.466536889756488
 30
0.0
 10
2.620400933958788
 20
-1.418687825117331
 30
0.0
 10
2.547828145262024
 20
-1.418687825117331
 30
0.0
 10
2.475255356565413
 20
-1.418687825117331
 30
0.0
 10
2.413863122069213
 20
-1.466536889756488
 30
0.0
 10
2.39345974887149
 20
-1.532405573600272
 30
0.0
 10
2.39345974887149
 20
-1.532405573600272
 30
0.0
 10
2.285387562369957
 20
-1.532405573600272
 30
0.0
 10
2.285387562369957
 20
-1.532405573600272
 30
0.0
 10
2.263563042521279
 20
-1.435494428988325
 30
0.0
 10
2.177130008913941
 20
-1.363043592235347
 30
0.0
 10
2.073623703185502
 20
-1.363043592235347
 30
0.0
 10
1.970120649508772
 20
-1.363043592235347
 30
0.0
 10
1.883684363849675
 20
-1.435494428988325
 30
0.0
 10
1.861859844000997
 20
-1.532405573600272
 30
0.0
 10
1.861859844000997
 20
-1.532405573600272
 30
0.0
 10
1.753787657499591
 20
-1.532405573600272
 30
0.0
 10
1.753787657499591
 20
-1.532405573600272
 30
0.0
 10
1.733387536353499
 20
-1.466536889756488
 30
0.0
 10
1.671995301857452
 20
-1.418687825117331
 30
0.0
 10
1.599422513160688
 20
-1.418687825117331
 30
0.0
 10
1.526846472412192
 20
-1.418687825117331
 30
0.0
 10
1.465457489968003
 20
-1.466536889756488
 30
0.0
 10
1.445054116770153
 20
-1.532405573600272
 30
0.0
 10
1.445054116770153
 20
-1.532405573600272
 30
0.0
 10
1.284110071573928
 20
-1.532405573600272
 30
0.0
 10
1.284110071573928
 20
-1.532405573600272
 30
0.0
 10
1.31234438558479
 20
-1.517751828042441
 30
0.0
 10
1.335895744956512
 20
-1.502951740152298
 30
0.0
 10
1.351349495265115
 20
-1.492229725260156
 30
0.0
 10
1.437678463213817
 20
-1.433463522618796
 30
0.0
 10
1.5183586171291
 20
-1.298020441868061
 30
0.0
 10
1.332659953383073
 20
-1.171611561108383
 30
0.0
 10
1.083422700931376
 20
-1.002083725100066
 30
0.0
 10
0.8451741316220653
 20
-1.168634307655642
 30
0.0
 10
0.6269321851871407
 20
-1.355523222372401
 30
0.0
 10
0.4051292419953319
 20
-1.542408885037389
 30
0.0
 10
0.2499998654758302
 20
-1.580340817613028
 30
0.0
 10
0.2499998654758302
 20
-1.580340817613028
 30
0.0
 10
0.2499998654758302
 20
-1.580340817613028
 30
0.0
 10
0.4090772329201021
 20
-1.618035350404802
 30
0.0
 10
0.6263890925310484
 20
-1.805421829052029
 30
0.0
 10
0.8468782067823465
 20
-1.992177409643659
 30
0.0
 10
1.085705641317898
 20
-2.158597910125991
 30
0.0
 10
1.335485986425561
 20
-1.988569258135423
 30
0.0
 10
1.520833428573799
 20
-1.862264443034355
 30
0.0
 10
1.439574409432149
 20
-1.726847378698254
 30
0.0
 10
1.353632435651636
 20
-1.668448657914003
 30
0.0
 10
1.336367292472207
 20
-1.65669736861696
 30
0.0
 10
1.314321633098997
 20
-1.642251754376477
 30
0.0
 10
1.289160508070027
 20
-1.628137849422956
 30
0.0
 10
1.289160508070027
 20
-1.628137849422956
 30
0.0
 10
1.445054116770153
 20
-1.628137849422956
 30
0.0
 10
1.445054116770153
 20
-1.628137849422956
 30
0.0
 10
1.465457489968003
 20
-1.694006533266601
 30
0.0
 10
1.526846472412192
 20
-1.741857223931712
 30
0.0
 10
1.599422513160688
 20
-1.741857223931712
 30
0.0
 10
1.671995301857452
 20
-1.741857223931712
 30
0.0
 10
1.733387536353499
 20
-1.694006533266601
 30
0.0
 10
1.753787657499591
 20
-1.628137849422956
 30
0.0
 10
1.753787657499591
 20
-1.628137849422956
 30
0.0
 10
1.861859844000997
 20
-1.628137849422956
 30
0.0
 10
1.861859844000997
 20
-1.628137849422956
 30
0.0
 10
1.883684363849675
 20
-1.725048994034889
 30
0.0
 10
1.970120649508772
 20
-1.797499830787729
 30
0.0
 10
2.073623703185502
 20
-1.797499830787729
 30
0.0
 10
2.177130008913941
 20
-1.797499830787729
 30
0.0
 10
2.263563042521279
 20
-1.725048994034889
 30
0.0
 10
2.285387562369957
 20
-1.628137849422956
 30
0.0
 10
2.285387562369957
 20
-1.628137849422956
 30
0.0
 10
2.39345974887149
 20
-1.628137849422956
 30
0.0
 10
2.39345974887149
 20
-1.628137849422956
 30
0.0
 10
2.413863122069213
 20
-1.694006533266601
 30
0.0
 10
2.475255356565413
 20
-1.741857223931712
 30
0.0
 10
2.547828145262024
 20
-1.741857223931712
 30
0.0
 10
2.620400933958788
 20
-1.741857223931712
 30
0.0
 10
2.681793168454836
 20
-1.694006533266601
 30
0.0
 10
2.702196541652686
 20
-1.628137849422956
 30
0.0
 10
2.702196541652686
 20
-1.628137849422956
 30
0.0
 10
9.297803189299126
 20
-1.628137849422956
 30
0.0
 10
9.297803189299126
 20
-1.628137849422956
 30
0.0
 10
9.318206562496975
 20
-1.694006533266601
 30
0.0
 10
9.379598796993024
 20
-1.741857223931712
 30
0.0
 10
9.452171585689635
 20
-1.741857223931712
 30
0.0
 10
9.5247443743864
 20
-1.741857223931712
 30
0.0
 10
9.586136608882446
 20
-1.694006533266601
 30
0.0
 10
9.606539982080323
 20
-1.628137849422956
 30
0.0
 10
9.606539982080323
 20
-1.628137849422956
 30
0.0
 10
9.714612168581828
 20
-1.628137849422956
 30
0.0
 10
9.714612168581828
 20
-1.628137849422956
 30
0.0
 10
9.73643994048229
 20
-1.725048994034889
 30
0.0
 10
9.822872974089629
 20
-1.797499830787729
 30
0.0
 10
9.926379279818066
 20
-1.797499830787729
 30
0.0
 10
10.02987908144289
 20
-1.797499830787729
 30
0.0
 10
10.11631861915389
 20
-1.725048994034889
 30
0.0
 10
10.13813988695069
 20
-1.628137849422956
 30
0.0
 10
10.13813988695069
 20
-1.628137849422956
 30
0.0
 10
10.24621207345222
 20
-1.628137849422956
 30
0.0
 10
10.24621207345222
 20
-1.628137849422956
 30
0.0
 10
10.26661544665007
 20
-1.694006533266601
 30
0.0
 10
10.32800768114612
 20
-1.741857223931712
 30
0.0
 10
10.40058046984288
 20
-1.741857223931712
 30
0.0
 10
10.47315325853949
 20
-1.741857223931712
 30
0.0
 10
10.53454549303569
 20
-1.694006533266601
 30
0.0
 10
10.55494886623339
 20
-1.628137849422956
 30
0.0
 10
10.55494886623339
 20
-1.628137849422956
 30
0.0
 10
10.71083922288178
 20
-1.628137849422956
 30
0.0
 10
10.71083922288178
 20
-1.628137849422956
 30
0.0
 10
10.68568134990457
 20
-1.642251754376477
 30
0.0
 10
10.6636324384796
 20
-1.65669736861696
 30
0.0
 10
10.64637054735193
 20
-1.668448657914003
 30
0.0
 10
10.56042532151953
 20
-1.726847378698254
 30
0.0
 10
10.47916955442977
 20
-1.862264443034355
 30
0.0
 10
10.66451699657798
 20
-1.988569258135423
 30
0.0
 10
10.91429408963389
 20
-2.158597910125991
 30
0.0
 10
11.15312477622122
 20
-1.992177409643659
 30
0.0
 10
11.37361389047252
 20
-1.805421829052029
 30
0.0
 10
11.59092249803153
 20
-1.618035350404802
 30
0.0
 10
11.74999986547583
 20
-1.580340817613028
 30
0.0
 10
11.74999986547583
 20
-1.580340817613028
 30
0.0
 10
11.74999986547583
 20
-1.580340817613028
 30
0.0
 10
11.59487048895648
 20
-1.542408885037389
 30
0.0
 10
11.37306754576467
 20
-1.355523222372401
 30
0.0
  0
ENDSEC
  0
SECTION
  2
OBJECTS
  0
DICTIONARY
  5
C
330
0
100
AcDbDictionary
281
     1
  3
ACAD_GROUP
350
D
  3
ACAD_LAYOUT
350
1A
  3
ACAD_MATERIAL
350
3B
  3
ACAD_MLEADERSTYLE
350
46
  3
ACAD_MLINESTYLE
350
17
  3
ACAD_PLOTSETTINGS
350
19
  3
ACAD_PLOTSTYLENAME
350
E
  3
ACAD_TABLESTYLE
350
45
  3
ACAD_VISUALSTYLE
350
2A
  0
SUN
  5
3F
330
29
100
AcDbSun
 90
        1
290
     0
 63
     7
421
 16777215
 40
1.0
291
     1
 91
  2455826
 92
 54000000
292
     0
 70
     2
 71
   256
280
     1
  0
DICTIONARY
  5
D
102
{ACAD_REACTORS
330
C
102
}
330
C
100
AcDbDictionary
281
     1
  0
DICTIONARY
  5
1A
102
{ACAD_REACTORS
330
C
102
}
330
C
100
AcDbDictionary
281
     1
  3
Layout1
350
1E
  3
Layout2
350
26
  3
Model
350
22
  0
DICTIONARY
  5
3B
102
{ACAD_REACTORS
330
C
102
}
330
C
100
AcDbDictionary
281
     1
  3
ByBlock
350
3D
  3
ByLayer
350
3C
  3
Global
350
3E
  0
DICTIONARY
  5
46
102
{ACAD_REACTORS
330
C
102
}
330
C
100
AcDbDictionary
281
     1
  0
DICTIONARY
  5
17
102
{ACAD_REACTORS
330
C
102
}
330
C
100
AcDbDictionary
281
     1
  3
Standard
350
18
  0
DICTIONARY
  5
19
102
{ACAD_REACTORS
330
C
102
}
330
C
100
AcDbDictionary
281
     1
  0
ACDBDICTIONARYWDFLT
  5
E
102
{ACAD_REACTORS
330
C
102
}
330
C
100
AcDbDictionary
281
     1
  3
Normal
350
F
100
AcDbDictionaryWithDefault
340
F
  0
DICTIONARY
  5
45
102
{ACAD_REACTORS
330
C
102
}
330
C
100
AcDbDictionary
281
     1
  0
DICTIONARY
  5
2A
102
{ACAD_REACTORS
330
C
102
}
330
C
100
AcDbDictionary
281
     1
  3
2dWireframe
350
2F
  3
3D Hidden
350
31
  3
3dWireframe
350
30
  3
Basic
350
32
  3
Brighten
350
36
  3
ColorChange
350
3A
  3
Conceptual
350
34
  3
Dim
350
35
  3
Facepattern
350
39
  3
Flat
350
2B
  3
FlatWithEdges
350
2C
  3
Gouraud
350
2D
  3
GouraudWithEdges
350
2E
  3
Linepattern
350
38
  3
Realistic
350
33
  3
Thicken
350
37
  0
LAYOUT
  5
1E
102
{ACAD_REACTORS
330
1A
102
}
330
1A
100
AcDbPlotSettings
  1

  2
none_device
  4

  6

 40
0.0
 41
0.0
 42
0.0
 43
0.0
 44
0.0
 45
0.0
 46
0.0
 47
0.0
 48
0.0
 49
0.0
140
0.0
141
0.0
142
1.0
143
1.0
 70
   688
 72
     0
 73
     0
 74
     5
  7

 75
    16
 76
     0
 77
     2
 78
   300
147
1.0
148
0.0
149
0.0
100
AcDbLayout
  1
Layout1
 70
     1
 71
     1
 10
0.0
 20
0.0
 11
12.0
 21
9.0
 12
0.0
 22
0.0
 32
0.0
 14
1.000000000000000E+20
 24
1.000000000000000E+20
 34
1.000000000000000E+20
 15
-1.000000000000000E+20
 25
-1.000000000000000E+20
 35
-1.000000000000000E+20
146
0.0
 13
0.0
 23
0.0
 33
0.0
 16
1.0
 26
0.0
 36
0.0
 17
0.0
 27
1.0
 37
0.0
 76
     0
330
1B
  0
LAYOUT
  5
26
102
{ACAD_REACTORS
330
1A
102
}
330
1A
100
AcDbPlotSettings
  1

  2
none_device
  4

  6

 40
0.0
 41
0.0
 42
0.0
 43
0.0
 44
0.0
 45
0.0
 46
0.0
 47
0.0
 48
0.0
 49
0.0
140
0.0
141
0.0
142
1.0
143
1.0
 70
   688
 72
     0
 73
     0
 74
     5
  7

 75
    16
 76
     0
 77
     2
 78
   300
147
1.0
148
0.0
149
0.0
100
AcDbLayout
  1
Layout2
 70
     1
 71
     2
 10
0.0
 20
0.0
 11
0.0
 21
0.0
 12
0.0
 22
0.0
 32
0.0
 14
0.0
 24
0.0
 34
0.0
 15
0.0
 25
0.0
 35
0.0
146
0.0
 13
0.0
 23
0.0
 33
0.0
 16
1.0
 26
0.0
 36
0.0
 17
0.0
 27
1.0
 37
0.0
 76
     0
330
23
  0
LAYOUT
  5
22
102
{ACAD_REACTORS
330
1A
102
}
330
1A
100
AcDbPlotSettings
  1

  2
none_device
  4

  6

 40
0.0
 41
0.0
 42
0.0
 43
0.0
 44
0.0
 45
0.0
 46
0.0
 47
0.0
 48
0.0
 49
0.0
140
0.0
141
0.0
142
1.0
143
1.0
 70
  1712
 72
     0
 73
     0
 74
     0
  7

 75
     0
 76
     0
 77
     2
 78
   300
147
1.0
148
0.0
149
0.0
100
AcDbLayout
  1
Model
 70
     1
 71
     0
 10
0.0
 20
0.0
 11
12.0
 21
9.0
 12
0.0
 22
0.0
 32
0.0
 14
1.000000000000000E+20
 24
1.000000000000000E+20
 34
1.000000000000000E+20
 15
-1.000000000000000E+20
 25
-1.000000000000000E+20
 35
-1.000000000000000E+20
146
0.0
 13
0.0
 23
0.0
 33
0.0
 16
1.0
 26
0.0
 36
0.0
 17
0.0
 27
1.0
 37
0.0
 76
     0
330
1F
331
29
  0
MATERIAL
  5
3D
102
{ACAD_REACTORS
330
3B
102
}
330
3B
100
AcDbMaterial
  1
ByBlock
 72
     1
 94
      127
  0
MATERIAL
  5
3C
102
{ACAD_REACTORS
330
3B
102
}
330
3B
100
AcDbMaterial
  1
ByLayer
 72
     1
 94
      127
  0
MATERIAL
  5
3E
102
{ACAD_REACTORS
330
3B
102
}
330
3B
100
AcDbMaterial
  1
Global
 72
     1
 94
      127
  0
MLINESTYLE
  5
18
102
{ACAD_REACTORS
330
17
102
}
330
17
100
AcDbMlineStyle
  2
Standard
 70
     0
  3

 62
   256
 51
90.0
 52
90.0
 71
     2
 49
0.5
 62
   256
  6
BYLAYER
 49
-0.5
 62
   256
  6
BYLAYER
  0
ACDBPLACEHOLDER
  5
F
102
{ACAD_REACTORS
330
E
102
}
330
E
  0
VISUALSTYLE
  5
2F
102
{ACAD_REACTORS
330
2A
102
}
330
2A
100
AcDbVisualStyle
  2
2dWireframe
 70
     4
177
     2
291
     0
 71
     0
176
     1
 72
     2
176
     1
 73
     0
176
     1
 90
        0
176
     1
 40
-0.6
176
     1
 41
-30.0
176
     1
 62
     5
 63
     7
421
 16777215
176
     1
 74
     1
176
     1
 91
        4
176
     1
 64
     7
176
     1
 65
   257
176
     1
 75
     1
176
     1
175
     1
176
     1
 42
1.0
176
     1
 92
        0
176
     1
 66
   257
176
     1
 43
1.0
176
     1
 76
     1
176
     1
 77
     6
176
     1
 78
     2
176
     1
 67
     7
176
     1
 79
     5
176
     1
170
     0
176
     1
171
     0
176
     1
290
     0
176
     1
 93
        1
176
     1
 44
0.0
176
     1
173
     0
176
     1
  0
VISUALSTYLE
  5
31
102
{ACAD_REACTORS
330
2A
102
}
330
2A
100
AcDbVisualStyle
  2
3D Hidden
 70
     6
177
     2
291
     0
 71
     1
176
     1
 72
     2
176
     1
 73
     2
176
     1
 90
        0
176
     1
 40
-0.6
176
     1
 41
-30.0
176
     1
 62
     5
 63
     7
421
 16777215
176
     1
 74
     2
176
     1
 91
        2
176
     1
 64
     7
176
     1
 65
   257
176
     1
 75
     2
176
     1
175
     1
176
     1
 42
40.0
176
     1
 92
        0
176
     1
 66
   257
176
     1
 43
1.0
176
     1
 76
     1
176
     1
 77
     6
176
     1
 78
     2
176
     1
 67
     7
176
     1
 79
     3
176
     1
170
     0
176
     1
171
     0
176
     1
290
     0
176
     1
 93
        1
176
     1
 44
0.0
176
     1
173
     0
176
     1
  0
VISUALSTYLE
  5
30
102
{ACAD_REACTORS
330
2A
102
}
330
2A
100
AcDbVisualStyle
  2
3dWireframe
 70
     5
177
     2
291
     0
 71
     0
176
     1
 72
     2
176
     1
 73
     0
176
     1
 90
        0
176
     1
 40
-0.6
176
     1
 41
-30.0
176
     1
 62
     5
 63
     7
421
 16777215
176
     1
 74
     1
176
     1
 91
        4
176
     1
 64
     7
176
     1
 65
   257
176
     1
 75
     1
176
     1
175
     1
176
     1
 42
1.0
176
     1
 92
        0
176
     1
 66
   257
176
     1
 43
1.0
176
     1
 76
     1
176
     1
 77
     6
176
     1
 78
     2
176
     1
 67
     7
176
     1
 79
     5
176
     1
170
     0
176
     1
171
     0
176
     1
290
     0
176
     1
 93
        1
176
     1
 44
0.0
176
     1
173
     0
176
     1
  0
VISUALSTYLE
  5
32
102
{ACAD_REACTORS
330
2A
102
}
330
2A
100
AcDbVisualStyle
  2
Basic
 70
     7
177
     2
291
     1
 71
     1
176
     1
 72
     0
176
     1
 73
     1
176
     1
 90
        0
176
     1
 40
-0.6
176
     1
 41
-30.0
176
     1
 62
     5
 63
     7
421
 16777215
176
     1
 74
     0
176
     1
 91
        4
176
     1
 64
     7
176
     1
 65
   257
176
     1
 75
     1
176
     1
175
     1
176
     1
 42
1.0
176
     1
 92
        8
176
     1
 66
     7
176
     1
 43
1.0
176
     1
 76
     1
176
     1
 77
     6
176
     1
 78
     2
176
     1
 67
     7
176
     1
 79
     5
176
     1
170
     0
176
     1
171
     0
176
     1
290
     0
176
     1
 93
        1
176
     1
 44
0.0
176
     1
173
     0
176
     1
  0
VISUALSTYLE
  5
36
102
{ACAD_REACTORS
330
2A
102
}
330
2A
100
AcDbVisualStyle
  2
Brighten
 70
    12
177
     2
291
     1
 71
     2
176
     1
 72
     2
176
     1
 73
     0
176
     1
 90
        0
176
     1
 40
-0.6
176
     1
 41
-30.0
176
     1
 62
     5
 63
     7
421
 16777215
176
     1
 74
     1
176
     1
 91
        4
176
     1
 64
     7
176
     1
 65
   257
176
     1
 75
     1
176
     1
175
     1
176
     1
 42
1.0
176
     1
 92
        8
176
     1
 66
     7
176
     1
 43
1.0
176
     1
 76
     1
176
     1
 77
     6
176
     1
 78
     2
176
     1
 67
     7
176
     1
 79
     5
176
     1
170
     0
176
     1
171
     0
176
     1
290
     0
176
     1
 93
        1
176
     1
 44
50.0
176
     1
173
     0
176
     1
  0
VISUALSTYLE
  5
3A
102
{ACAD_REACTORS
330
2A
102
}
330
2A
100
AcDbVisualStyle
  2
ColorChange
 70
    16
177
     2
291
     1
 71
     2
176
     1
 72
     2
176
     1
 73
     3
176
     1
 90
        0
176
     1
 40
-0.6
176
     1
 41
-30.0
176
     1
 62
     5
 63
     8
421
  8421504
176
     1
 74
     1
176
     1
 91
        4
176
     1
 64
     7
176
     1
 65
   257
176
     1
 75
     1
176
     1
175
     1
176
     1
 42
1.0
176
     1
 92
        8
176
     1
 66
     8
424
  8421504
176
     1
 43
1.0
176
     1
 76
     1
176
     1
 77
     6
176
     1
 78
     2
176
     1
 67
     7
176
     1
 79
     5
176
     1
170
     0
176
     1
171
     0
176
     1
290
     0
176
     1
 93
        1
176
     1
 44
0.0
176
     1
173
     0
176
     1
  0
VISUALSTYLE
  5
34
102
{ACAD_REACTORS
330
2A
102
}
330
2A
100
AcDbVisualStyle
  2
Conceptual
 70
     9
177
     2
291
     0
 71
     3
176
     1
 72
     2
176
     1
 73
     0
176
     1
 90
        0
176
     1
 40
-0.6
176
     1
 41
-30.0
176
     1
 62
     5
 63
     7
421
 16777215
176
     1
 74
     2
176
     1
 91
        2
176
     1
 64
     7
176
     1
 65
   257
176
     1
 75
     1
176
     1
175
     1
176
     1
 42
40.0
176
     1
 92
        8
176
     1
 66
     7
176
     1
 43
1.0
176
     1
 76
     1
176
     1
 77
     6
176
     1
 78
     2
176
     1
 67
     7
176
     1
 79
     3
176
     1
170
     0
176
     1
171
     0
176
     1
290
     0
176
     1
 93
        1
176
     1
 44
0.0
176
     1
173
     0
176
     1
  0
VISUALSTYLE
  5
35
102
{ACAD_REACTORS
330
2A
102
}
330
2A
100
AcDbVisualStyle
  2
Dim
 70
    11
177
     2
291
     1
 71
     2
176
     1
 72
     2
176
     1
 73
     0
176
     1
 90
        0
176
     1
 40
-0.6
176
     1
 41
-30.0
176
     1
 62
     5
 63
     7
421
 16777215
176
     1
 74
     1
176
     1
 91
        4
176
     1
 64
     7
176
     1
 65
   257
176
     1
 75
     1
176
     1
175
     1
176
     1
 42
1.0
176
     1
 92
        8
176
     1
 66
     7
176
     1
 43
1.0
176
     1
 76
     1
176
     1
 77
     6
176
     1
 78
     2
176
     1
 67
     7
176
     1
 79
     5
176
     1
170
     0
176
     1
171
     0
176
     1
290
     0
176
     1
 93
        1
176
     1
 44
-50.0
176
     1
173
     0
176
     1
  0
VISUALSTYLE
  5
39
102
{ACAD_REACTORS
330
2A
102
}
330
2A
100
AcDbVisualStyle
  2
Facepattern
 70
    15
177
     2
291
     1
 71
     2
176
     1
 72
     2
176
     1
 73
     0
176
     1
 90
        0
176
     1
 40
-0.6
176
     1
 41
-30.0
176
     1
 62
     5
 63
     7
421
 16777215
176
     1
 74
     1
176
     1
 91
        4
176
     1
 64
     7
176
     1
 65
   257
176
     1
 75
     1
176
     1
175
     1
176
     1
 42
1.0
176
     1
 92
        8
176
     1
 66
     7
176
     1
 43
1.0
176
     1
 76
     1
176
     1
 77
     6
176
     1
 78
     2
176
     1
 67
     7
176
     1
 79
     5
176
     1
170
     0
176
     1
171
     0
176
     1
290
     0
176
     1
 93
        1
176
     1
 44
0.0
176
     1
173
     0
176
     1
  0
VISUALSTYLE
  5
2B
102
{ACAD_REACTORS
330
2A
102
}
330
2A
100
AcDbVisualStyle
  2
Flat
 70
     0
177
     2
291
     1
 71
     2
176
     1
 72
     1
176
     1
 73
     1
176
     1
 90
        2
176
     1
 40
-0.6
176
     1
 41
30.0
176
     1
 62
     5
 63
     7
421
 16777215
176
     1
 74
     0
176
     1
 91
        4
176
     1
 64
     7
176
     1
 65
   257
176
     1
 75
     1
176
     1
175
     1
176
     1
 42
1.0
176
     1
 92
        8
176
     1
 66
     7
176
     1
 43
1.0
176
     1
 76
     1
176
     1
 77
     6
176
     1
 78
     2
176
     1
 67
     7
176
     1
 79
     5
176
     1
170
     0
176
     1
171
     0
176
     1
290
     0
176
     1
 93
       13
176
     1
 44
0.0
176
     1
173
     0
176
     1
  0
VISUALSTYLE
  5
2C
102
{ACAD_REACTORS
330
2A
102
}
330
2A
100
AcDbVisualStyle
  2
FlatWithEdges
 70
     1
177
     2
291
     1
 71
     2
176
     1
 72
     1
176
     1
 73
     1
176
     1
 90
        2
176
     1
 40
-0.6
176
     1
 41
30.0
176
     1
 62
     5
 63
     7
421
 16777215
176
     1
 74
     1
176
     1
 91
        4
176
     1
 64
     7
176
     1
 65
   257
176
     1
 75
     1
176
     1
175
     1
176
     1
 42
1.0
176
     1
 92
        0
176
     1
 66
   257
176
     1
 43
1.0
176
     1
 76
     1
176
     1
 77
     6
176
     1
 78
     2
176
     1
 67
     7
176
     1
 79
     5
176
     1
170
     0
176
     1
171
     0
176
     1
290
     0
176
     1
 93
       13
176
     1
 44
0.0
176
     1
173
     0
176
     1
  0
VISUALSTYLE
  5
2D
102
{ACAD_REACTORS
330
2A
102
}
330
2A
100
AcDbVisualStyle
  2
Gouraud
 70
     2
177
     2
291
     1
 71
     2
176
     1
 72
     2
176
     1
 73
     1
176
     1
 90
        2
176
     1
 40
-0.6
176
     1
 41
30.0
176
     1
 62
     5
 63
     7
421
 16777215
176
     1
 74
     0
176
     1
 91
        4
176
     1
 64
     7
176
     1
 65
   257
176
     1
 75
     1
176
     1
175
     1
176
     1
 42
1.0
176
     1
 92
        0
176
     1
 66
     7
176
     1
 43
1.0
176
     1
 76
     1
176
     1
 77
     6
176
     1
 78
     2
176
     1
 67
     7
176
     1
 79
     5
176
     1
170
     0
176
     1
171
     0
176
     1
290
     0
176
     1
 93
       13
176
     1
 44
0.0
176
     1
173
     0
176
     1
  0
VISUALSTYLE
  5
2E
102
{ACAD_REACTORS
330
2A
102
}
330
2A
100
AcDbVisualStyle
  2
GouraudWithEdges
 70
     3
177
     2
291
     1
 71
     2
176
     1
 72
     2
176
     1
 73
     1
176
     1
 90
        2
176
     1
 40
-0.6
176
     1
 41
30.0
176
     1
 62
     5
 63
     7
421
 16777215
176
     1
 74
     1
176
     1
 91
        4
176
     1
 64
     7
176
     1
 65
   257
176
     1
 75
     1
176
     1
175
     1
176
     1
 42
1.0
176
     1
 92
        0
176
     1
 66
   257
176
     1
 43
1.0
176
     1
 76
     1
176
     1
 77
     6
176
     1
 78
     2
176
     1
 67
     7
176
     1
 79
     5
176
     1
170
     0
176
     1
171
     0
176
     1
290
     0
176
     1
 93
       13
176
     1
 44
0.0
176
     1
173
     0
176
     1
  0
VISUALSTYLE
  5
38
102
{ACAD_REACTORS
330
2A
102
}
330
2A
100
AcDbVisualStyle
  2
Linepattern
 70
    14
177
     2
291
     1
 71
     2
176
     1
 72
     2
176
     1
 73
     0
176
     1
 90
        0
176
     1
 40
-0.6
176
     1
 41
-30.0
176
     1
 62
     5
 63
     7
421
 16777215
176
     1
 74
     1
176
     1
 91
        4
176
     1
 64
     7
176
     1
 65
   257
176
     1
 75
     7
176
     1
175
     7
176
     1
 42
1.0
176
     1
 92
        8
176
     1
 66
     7
176
     1
 43
1.0
176
     1
 76
     1
176
     1
 77
     6
176
     1
 78
     2
176
     1
 67
     7
176
     1
 79
     5
176
     1
170
     0
176
     1
171
     0
176
     1
290
     0
176
     1
 93
        1
176
     1
 44
0.0
176
     1
173
     0
176
     1
  0
VISUALSTYLE
  5
33
102
{ACAD_REACTORS
330
2A
102
}
330
2A
100
AcDbVisualStyle
  2
Realistic
 70
     8
177
     2
291
     0
 71
     2
176
     1
 72
     2
176
     1
 73
     0
176
     1
 90
        0
176
     1
 40
-0.6
176
     1
 41
-30.0
176
     1
 62
     5
 63
     7
421
 16777215
176
     1
 74
     1
176
     1
 91
        0
176
     1
 64
     7
176
     1
 65
   257
176
     1
 75
     1
176
     1
175
     1
176
     1
 42
1.0
176
     1
 92
        8
176
     1
 66
     8
424
  7895160
176
     1
 43
1.0
176
     1
 76
     1
176
     1
 77
     6
176
     1
 78
     2
176
     1
 67
     7
176
     1
 79
     5
176
     1
170
     0
176
     1
171
     0
176
     1
290
     0
176
     1
 93
       13
176
     1
 44
0.0
176
     1
173
     0
176
     1
  0
VISUALSTYLE
  5
37
102
{ACAD_REACTORS
330
2A
102
}
330
2A
100
AcDbVisualStyle
  2
Thicken
 70
    13
177
     2
291
     1
 71
     2
176
     1
 72
     2
176
     1
 73
     0
176
     1
 90
        0
176
     1
 40
-0.6
176
     1
 41
-30.0
176
     1
 62
     5
 63
     7
421
 16777215
176
     1
 74
     1
176
     1
 91
        4
176
     1
 64
     7
176
     1
 65
   257
176
     1
 75
     1
176
     1
175
     1
176
     1
 42
1.0
176
     1
 92
       12
176
     1
 66
     7
176
     1
 43
1.0
176
     1
 76
     1
176
     1
 77
     6
176
     1
 78
     2
176
     1
 67
     7
176
     1
 79
     5
176
     1
170
     0
176
     1
171
     0
176
     1
290
     0
176
     1
 93
        1
176
     1
 44
0.0
176
     1
173
     0
176
     1
  0
ENDSEC
  0
EOF
