<?xml version="1.0" encoding="UTF-8" standalone="no"?>
<!-- Generator: Adobe Illustrator 16.0.0, SVG Export Plug-In . SVG Version: 6.00 Build 0)  -->

<svg
   xmlns:dc="http://purl.org/dc/elements/1.1/"
   xmlns:cc="http://creativecommons.org/ns#"
   xmlns:rdf="http://www.w3.org/1999/02/22-rdf-syntax-ns#"
   xmlns:svg="http://www.w3.org/2000/svg"
   xmlns="http://www.w3.org/2000/svg"
   xmlns:sodipodi="http://sodipodi.sourceforge.net/DTD/sodipodi-0.dtd"
   xmlns:inkscape="http://www.inkscape.org/namespaces/inkscape"
   version="1.1"
   id="Capa_1"
   x="0px"
   y="0px"
   width="475.044px"
   height="475.044px"
   viewBox="0 0 475.044 475.044"
   style="enable-background:new 0 0 475.044 475.044;"
   xml:space="preserve"
   sodipodi:docname="star-half-empty.svg"
   inkscape:version="0.92.4 (5da689c313, 2019-01-14)"><metadata
   id="metadata41"><rdf:RDF><cc:Work
       rdf:about=""><dc:format>image/svg+xml</dc:format><dc:type
         rdf:resource="http://purl.org/dc/dcmitype/StillImage" /><dc:title></dc:title></cc:Work></rdf:RDF></metadata><defs
   id="defs39" /><sodipodi:namedview
   pagecolor="#000000"
   bordercolor="#666666"
   borderopacity="1"
   objecttolerance="10"
   gridtolerance="10"
   guidetolerance="10"
   inkscape:pageopacity="0"
   inkscape:pageshadow="2"
   inkscape:window-width="1680"
   inkscape:window-height="1000"
   id="namedview37"
   showgrid="false"
   inkscape:snap-global="false"
   inkscape:zoom="0.49679608"
   inkscape:cx="-59.822764"
   inkscape:cy="181.54534"
   inkscape:window-x="0"
   inkscape:window-y="25"
   inkscape:window-maximized="1"
   inkscape:current-layer="Capa_1" />
<g
   id="g4"
   transform="translate(4.0258014,-6.0386949)"
   style="fill:#ffff00">
	<path
   d="m 474.487,183.276 c -1.711,-5.236 -6.852,-8.52 -15.41,-9.851 L 315.754,152.586 251.52,22.681 c -4,-7.804 -8.661,-11.704 -13.989,-11.704 -5.519,0 -10.183,3.9 -13.988,11.704 L 159.302,152.586 15.978,173.425 c -8.564,1.332 -13.704,4.615 -15.415,9.851 -1.709,5.236 0.478,10.898 6.567,16.989 L 111.054,301.333 86.501,444.082 c -0.95,6.286 -0.381,11.173 1.715,14.702 2.092,3.524 5.33,5.283 9.707,5.283 3.237,0 7.043,-1.14 11.42,-3.433 l 128.194,-67.382 128.19,67.382 c 4.377,2.286 8.186,3.433 11.423,3.433 4.381,0 7.622,-1.759 9.709,-5.283 2.088,-3.529 2.659,-8.416 1.708,-14.702 L 364.016,301.333 467.646,200.265 c 6.284,-6.091 8.566,-11.753 6.841,-16.989 z m -135.89,91.789 -13.99,13.421 3.43,18.843 17.128,101.357 -90.786,-47.965 -16.848,-8.856 V 76.927 l 45.395,91.933 8.559,17.128 18.85,2.856 101.642,14.844 z"
   id="path2"
   inkscape:connector-curvature="0"
   style="fill:#ffff00" />
</g>
<g
   id="g6">
</g>
<g
   id="g8">
</g>
<g
   id="g10">
</g>
<g
   id="g12">
</g>
<g
   id="g14">
</g>
<g
   id="g16">
</g>
<g
   id="g18">
</g>
<g
   id="g20">
</g>
<g
   id="g22">
</g>
<g
   id="g24">
</g>
<g
   id="g26">
</g>
<g
   id="g28">
</g>
<g
   id="g30">
</g>
<g
   id="g32">
</g>
<g
   id="g34">
</g>
<path
   style="fill:#000000;fill-opacity:1;stroke-width:2.01289845"
   d="m 293.54666,370.58782 -50.32246,-26.83306 -0.44817,-135.53752 -0.44818,-135.537518 26.61585,53.341808 26.61586,53.34181 49.31601,7.22173 c 27.1238,3.97196 53.82371,7.90789 59.33311,8.74653 l 10.01711,1.52477 -43.09127,41.65951 -43.09128,41.65951 9.42261,55.4347 c 9.82517,57.80301 10.39453,62.26279 7.91294,61.98177 -0.83032,-0.094 -24.15478,-12.24583 -51.83213,-27.00404 z"
   id="path47"
   inkscape:connector-curvature="0" /><g
   id="g201"
   transform="translate(515.28648,-4.0417963)"
   style="fill:#ffff00"><g
     id="g145"
     style="fill:#ffff00">
	<path
   id="path143"
   d="m 475.075,186.573 c 0,-7.043 -5.328,-11.42 -15.992,-13.135 L 315.766,152.6 251.529,22.694 c -3.614,-7.804 -8.281,-11.704 -13.99,-11.704 -5.708,0 -10.372,3.9 -13.989,11.704 L 159.31,152.6 15.986,173.438 C 5.33,175.153 0,179.53 0,186.573 c 0,3.999 2.38,8.567 7.139,13.706 L 111.063,301.347 86.51,444.096 c -0.381,2.666 -0.57,4.575 -0.57,5.712 0,3.997 0.998,7.374 2.996,10.136 1.997,2.766 4.993,4.142 8.992,4.142 3.428,0 7.233,-1.137 11.42,-3.423 l 128.188,-67.386 128.197,67.386 c 4.004,2.286 7.81,3.423 11.416,3.423 3.819,0 6.715,-1.376 8.713,-4.142 1.992,-2.758 2.991,-6.139 2.991,-10.136 0,-2.471 -0.096,-4.374 -0.287,-5.712 L 364.011,301.347 467.648,200.279 c 4.956,-4.949 7.427,-9.519 7.427,-13.706 z"
   inkscape:connector-curvature="0"
   style="fill:#ffff00" />
</g><g
     id="g147"
     style="fill:#ffff00">
</g><g
     id="g149"
     style="fill:#ffff00">
</g><g
     id="g151"
     style="fill:#ffff00">
</g><g
     id="g153"
     style="fill:#ffff00">
</g><g
     id="g155"
     style="fill:#ffff00">
</g><g
     id="g157"
     style="fill:#ffff00">
</g><g
     id="g159"
     style="fill:#ffff00">
</g><g
     id="g161"
     style="fill:#ffff00">
</g><g
     id="g163"
     style="fill:#ffff00">
</g><g
     id="g165"
     style="fill:#ffff00">
</g><g
     id="g167"
     style="fill:#ffff00">
</g><g
     id="g169"
     style="fill:#ffff00">
</g><g
     id="g171"
     style="fill:#ffff00">
</g><g
     id="g173"
     style="fill:#ffff00">
</g><g
     id="g175"
     style="fill:#ffff00">
</g></g><g
   id="g399"
   transform="translate(-517.33037,-2.028893)"
   style="fill:#ffff00"><g
     id="g343"
     style="fill:#ffff00">
	<path
   id="path341"
   d="m 475.075,186.573 c 0,-7.043 -5.328,-11.42 -15.992,-13.135 L 315.766,152.6 251.529,22.694 c -3.614,-7.804 -8.281,-11.704 -13.99,-11.704 -5.708,0 -10.372,3.9 -13.989,11.704 L 159.31,152.6 15.986,173.438 C 5.33,175.153 0,179.53 0,186.573 c 0,3.999 2.38,8.567 7.139,13.706 L 111.063,301.347 86.51,444.096 c -0.381,2.666 -0.57,4.575 -0.57,5.712 0,3.997 0.998,7.374 2.996,10.136 1.997,2.766 4.993,4.142 8.992,4.142 3.428,0 7.233,-1.137 11.42,-3.423 l 128.188,-67.386 128.194,67.379 c 4,2.286 7.806,3.43 11.416,3.43 7.812,0 11.714,-4.75 11.714,-14.271 0,-2.471 -0.096,-4.374 -0.287,-5.716 L 364.022,301.355 467.656,200.286 c 4.948,-4.956 7.419,-9.526 7.419,-13.713 z M 324.619,288.5 345.17,408.7 237.536,351.879 129.614,408.7 150.457,288.5 63.092,203.701 l 120.484,-17.7 53.959,-109.064 53.957,109.064 120.494,17.7 z"
   inkscape:connector-curvature="0"
   style="fill:#ffff00" />
</g><g
     id="g345"
     style="fill:#ffff00">
</g><g
     id="g347"
     style="fill:#ffff00">
</g><g
     id="g349"
     style="fill:#ffff00">
</g><g
     id="g351"
     style="fill:#ffff00">
</g><g
     id="g353"
     style="fill:#ffff00">
</g><g
     id="g355"
     style="fill:#ffff00">
</g><g
     id="g357"
     style="fill:#ffff00">
</g><g
     id="g359"
     style="fill:#ffff00">
</g><g
     id="g361"
     style="fill:#ffff00">
</g><g
     id="g363"
     style="fill:#ffff00">
</g><g
     id="g365"
     style="fill:#ffff00">
</g><g
     id="g367"
     style="fill:#ffff00">
</g><g
     id="g369"
     style="fill:#ffff00">
</g><g
     id="g371"
     style="fill:#ffff00">
</g><g
     id="g373"
     style="fill:#ffff00">
</g></g></svg>